<?xml version="1.0" encoding="UTF-8" standalone="no"?>
<svg
   xmlns:dc="http://purl.org/dc/elements/1.1/"
   xmlns:cc="http://creativecommons.org/ns#"
   xmlns:rdf="http://www.w3.org/1999/02/22-rdf-syntax-ns#"
   xmlns:svg="http://www.w3.org/2000/svg"
   xmlns="http://www.w3.org/2000/svg"
   xmlns:xlink="http://www.w3.org/1999/xlink"
   xmlns:sodipodi="http://sodipodi.sourceforge.net/DTD/sodipodi-0.dtd"
   xmlns:inkscape="http://www.inkscape.org/namespaces/inkscape"
   inkscape:export-ydpi="169.33333"
   inkscape:export-xdpi="169.33333"
   inkscape:export-filename="/home/yutyo/Resimler/tip-korsan.png"
   width="150mm"
   height="150mm"
   viewBox="0 0 150 150"
   version="1.1"
   id="svg549"
   inkscape:version="1.0 (4035a4fb49, 2020-05-01)"
   sodipodi:docname="tip-korsan.svg">
  <defs
     id="defs543">
    <rect
       x="60.575337"
       y="173.03656"
       width="37.041364"
       height="11.401651"
       id="rect9343" />
    <clipPath
       id="clipPath76"
       clipPathUnits="userSpaceOnUse">
      <path
         id="path74"
         d="M 0,0 H 467.717 V 680.315 H 0 Z" />
    </clipPath>
    <clipPath
       id="clipPath194"
       clipPathUnits="userSpaceOnUse">
      <path
         id="path192"
         d="M 0,0 H 467.717 V 680.315 H 0 Z" />
    </clipPath>
    <clipPath
       id="clipPath214"
       clipPathUnits="userSpaceOnUse">
      <path
         id="path212"
         d="M 0,0 H 467.717 V 680.315 H 0 Z" />
    </clipPath>
    <clipPath
       id="clipPath250"
       clipPathUnits="userSpaceOnUse">
      <path
         id="path248"
         d="M 0,0 H 467.717 V 680.315 H 0 Z" />
    </clipPath>
    <clipPath
       id="clipPath270"
       clipPathUnits="userSpaceOnUse">
      <path
         id="path268"
         d="M 0,0 H 467.717 V 680.315 H 0 Z" />
    </clipPath>
    <clipPath
       id="clipPath286"
       clipPathUnits="userSpaceOnUse">
      <path
         id="path284"
         d="M 0,0 H 467.717 V 680.315 H 0 Z" />
    </clipPath>
    <clipPath
       id="clipPath306"
       clipPathUnits="userSpaceOnUse">
      <path
         id="path304"
         d="M 0,0 H 467.717 V 680.315 H 0 Z" />
    </clipPath>
  </defs>
  <sodipodi:namedview
     inkscape:pagecheckerboard="true"
     id="base"
     pagecolor="#ffffff"
     bordercolor="#666666"
     borderopacity="1.0"
     inkscape:pageopacity="0.0"
     inkscape:pageshadow="2"
     inkscape:zoom="0.6325"
     inkscape:cx="141.33176"
     inkscape:cy="302.59251"
     inkscape:document-units="mm"
     inkscape:current-layer="g70"
     inkscape:document-rotation="0"
     showgrid="false"
     inkscape:window-width="1326"
     inkscape:window-height="743"
     inkscape:window-x="40"
     inkscape:window-y="0"
     inkscape:window-maximized="1" />
  <metadata
     id="metadata546">
    <rdf:RDF>
      <cc:Work
         rdf:about="">
        <dc:format>image/svg+xml</dc:format>
        <dc:type
           rdf:resource="http://purl.org/dc/dcmitype/StillImage" />
        <dc:title />
      </cc:Work>
    </rdf:RDF>
  </metadata>
  <g
     inkscape:label="Katman 1"
     inkscape:groupmode="layer"
     id="layer1">
    <g
       id="g910"
       transform="matrix(4.2085481,0,0,4.2085481,-258.84418,-679.66611)">
      <path
         style="fill:none;stroke:#000000;stroke-width:0.0628681px;stroke-linecap:butt;stroke-linejoin:miter;stroke-opacity:1"
         d="m 70.347316,194.16933 c 1.005894,-0.30213 0.56809,-0.26657 1.769525,-0.0192 1.620875,0.35337 3.054314,1.10738 5.604812,1.34979 0.91611,0.10821 2.639112,0.14932 4.691286,-0.24514 2.262808,-0.41311 2.411693,-0.7562 4.547317,-1.19812 0.641317,-0.10326 1.082338,-0.22741 1.559342,-0.0181"
         id="path9358"
         sodipodi:nodetypes="cccccc" />
      <g
         transform="matrix(0.43260433,0,0,-0.43260433,47.558103,404.33163)"
         id="g70">
        <g
           transform="translate(73.4409,479.0275)"
           id="g78">
          <path
             id="path80"
             style="fill:#ffffff;fill-opacity:1;fill-rule:nonzero;stroke:none"
             d="M 0,0 C 22.7,0 41.102,18.402 41.102,41.102 41.102,63.803 22.7,82.205 0,82.205 -22.7,82.205 -41.102,63.803 -41.102,41.102 -41.102,18.402 -22.7,0 0,0" />
        </g>
        <g
           transform="translate(110.5861,526.7302)"
           id="g82">
          <path
             id="path84"
             style="fill:#c51f30;fill-opacity:1;fill-rule:nonzero;stroke:none"
             d="M 0,0 -1.48,5.524 C -1.597,5.959 -1.992,6.261 -2.443,6.258 L -4.886,6.244 c -0.807,1.965 -1.788,3.84 -2.923,5.605 l 1.416,1.998 c 0.26,0.368 0.24,0.865 -0.05,1.21 l -3.676,4.381 c -0.289,0.345 -0.775,0.451 -1.182,0.259 l -2.217,-1.05 c -10e-4,0 -10e-4,0 -0.002,0 -1.545,1.427 -3.22,2.716 -5.005,3.847 -0.002,0.001 -0.003,0.003 -0.003,0.005 l 0.439,2.406 c 0.081,0.443 -0.148,0.885 -0.556,1.075 l -5.183,2.417 c -0.408,0.191 -0.894,0.082 -1.181,-0.265 l -1.56,-1.881 c -1.986,0.633 -4.05,1.094 -6.173,1.363 l -0.62,2.37 c -0.114,0.435 -0.508,0.739 -0.958,0.739 h -5.719 c -0.451,0 -0.845,-0.304 -0.959,-0.739 l -0.62,-2.37 c -2.123,-0.269 -4.186,-0.73 -6.173,-1.363 l -1.56,1.881 c -0.287,0.347 -0.772,0.456 -1.181,0.265 l -5.183,-2.417 c -0.408,-0.19 -0.637,-0.632 -0.556,-1.075 l 0.439,-2.406 c 0,-0.002 0,-0.004 -0.002,-0.005 -1.785,-1.131 -3.46,-2.42 -5.006,-3.847 -10e-4,0 -10e-4,0 -10e-4,0 l -2.217,1.05 c -0.408,0.192 -0.894,0.086 -1.183,-0.259 l -3.676,-4.381 c -0.29,-0.345 -0.31,-0.842 -0.049,-1.21 l 1.416,-1.998 c -1.136,-1.765 -2.117,-3.64 -2.924,-5.605 l -2.443,0.014 c -0.45,0.003 -0.846,-0.299 -0.963,-0.734 L -74.36,0 c -0.116,-0.435 0.075,-0.894 0.467,-1.117 l 2.128,-1.213 c -0.205,-1.528 -0.311,-3.088 -0.311,-4.672 0,-0.668 0.02,-1.331 0.057,-1.989 0.627,-0.533 1.629,-1.384 1.955,-1.658 0.487,-0.408 1.242,-1.336 1.242,-1.336 0,0 -0.471,1.996 0.409,3.285 0.88,1.289 2.798,2.625 4.134,3.93 0.758,0.74 1.303,1.865 1.633,2.699 2.304,11.966 12.828,21.005 25.466,21.005 12.64,0 23.167,-9.043 25.467,-21.012 0.331,-0.834 0.875,-1.954 1.631,-2.692 1.336,-1.305 3.254,-2.641 4.134,-3.93 0.88,-1.289 0.409,-3.285 0.409,-3.285 0,10e-4 0.755,0.928 1.242,1.336 0.326,0.274 1.33,1.126 1.957,1.659 0.037,0.658 0.056,1.321 0.056,1.988 0,1.584 -0.106,3.144 -0.311,4.672 l 2.129,1.213 C -0.075,-0.894 0.117,-0.435 0,0" />
        </g>
        <g
           transform="translate(60.5163,485.0347)"
           id="g86">
          <path
             id="path88"
             style="fill:#c51f30;fill-opacity:1;fill-rule:nonzero;stroke:none"
             d="m 0,0 c -0.628,-0.033 -1.176,-0.017 -1.658,0.031 -0.476,0.06 -0.883,0.158 -1.244,0.267 -0.18,0.055 -0.348,0.113 -0.508,0.174 -0.16,0.058 -0.304,0.133 -0.446,0.2 -0.281,0.139 -0.536,0.278 -0.79,0.408 -0.126,0.065 -0.272,0.137 -0.43,0.212 -0.159,0.074 -0.324,0.164 -0.498,0.25 -0.346,0.175 -0.715,0.355 -1.053,0.52 -0.171,0.079 -0.328,0.165 -0.471,0.242 -0.144,0.076 -0.274,0.144 -0.383,0.202 -0.218,0.115 -0.354,0.186 -0.354,0.186 0,0 0.276,-0.207 0.956,-0.666 0.348,-0.216 0.801,-0.491 1.373,-0.828 0.072,-0.042 0.145,-0.086 0.221,-0.129 0.077,-0.04 0.156,-0.082 0.237,-0.125 0.163,-0.085 0.333,-0.175 0.511,-0.268 0.178,-0.092 0.365,-0.189 0.56,-0.289 0.098,-0.05 0.197,-0.101 0.299,-0.153 0.104,-0.048 0.21,-0.097 0.318,-0.146 0.439,-0.2 0.819,-0.334 1.165,-0.43 0.086,-0.024 0.17,-0.045 0.253,-0.065 0.083,-0.019 0.166,-0.032 0.246,-0.046 0.162,-0.026 0.319,-0.047 0.473,-0.066 0.309,-0.038 0.611,-0.067 0.934,-0.114 0.162,-0.025 0.33,-0.051 0.508,-0.079 0.178,-0.029 0.366,-0.066 0.566,-0.113 0.843,-0.214 1.912,-0.587 2.981,-0.906 0.537,-0.146 1.072,-0.283 1.571,-0.385 0.502,-0.081 0.97,-0.125 1.365,-0.109 0.192,0.008 0.386,0.031 0.58,0.071 0.196,0.046 0.391,0.106 0.585,0.178 0.388,0.143 0.77,0.335 1.136,0.559 0.092,0.057 0.182,0.113 0.271,0.176 0.09,0.063 0.179,0.128 0.266,0.195 0.175,0.132 0.344,0.271 0.507,0.413 0.327,0.285 0.631,0.584 0.905,0.879 0.068,0.074 0.135,0.148 0.2,0.221 0.065,0.075 0.128,0.152 0.189,0.226 0.123,0.15 0.237,0.297 0.344,0.438 0.213,0.282 0.394,0.544 0.541,0.766 0.293,0.445 0.452,0.736 0.452,0.736 0,0 -0.207,0.005 -0.542,0.014 -0.167,0.004 -0.366,0.009 -0.587,0.015 -0.11,0.004 -0.226,0.002 -0.346,0.012 -0.119,0.009 -0.243,0.018 -0.37,0.028 -0.253,0.019 -0.518,0.04 -0.784,0.06 -0.133,0.01 -0.267,0.02 -0.4,0.03 C 9.517,2.809 9.386,2.826 9.257,2.842 8.999,2.875 8.749,2.906 8.518,2.936 8.403,2.95 8.292,2.964 8.186,2.978 8.134,2.985 8.083,2.991 8.033,2.998 7.984,3.006 7.937,3.015 7.891,3.023 7.118,3.165 6.405,3.02 5.723,2.793 5.38,2.672 5.044,2.514 4.711,2.333 4.543,2.24 4.38,2.155 4.216,2.061 4.053,1.967 3.89,1.87 3.727,1.771 3.079,1.376 2.435,0.933 1.815,0.616 1.504,0.452 1.196,0.309 0.892,0.2 0.74,0.146 0.59,0.1 0.44,0.065 0.366,0.047 0.291,0.031 0.218,0.02 0.145,0.011 0.072,0.004 0,0" />
        </g>
        <g
           transform="translate(52.6432,489.1038)"
           id="g90">
          <path
             id="path92"
             style="fill:#c51f30;fill-opacity:1;fill-rule:nonzero;stroke:none"
             d="m 0,0 c -0.616,0.118 -1.144,0.264 -1.599,0.426 -0.451,0.168 -0.82,0.363 -1.144,0.553 -0.655,0.376 -1.075,0.803 -1.506,1.172 -0.439,0.361 -1.109,0.945 -1.691,1.421 -0.147,0.118 -0.279,0.238 -0.4,0.346 -0.122,0.108 -0.232,0.205 -0.324,0.287 -0.185,0.163 -0.299,0.264 -0.299,0.264 0,0 0.218,-0.266 0.77,-0.872 C -5.906,3.305 -5.532,2.931 -5.057,2.468 -4.94,2.35 -4.809,2.235 -4.672,2.114 -4.535,1.992 -4.391,1.866 -4.24,1.733 -4.089,1.601 -3.931,1.463 -3.766,1.319 -3.683,1.247 -3.599,1.173 -3.512,1.1 -3.422,1.029 -3.331,0.957 -3.238,0.883 -2.86,0.585 -2.523,0.365 -2.211,0.19 -2.132,0.146 -2.057,0.104 -1.98,0.067 c 0.077,-0.036 0.153,-0.07 0.229,-0.102 0.15,-0.064 0.296,-0.122 0.442,-0.178 0.29,-0.11 0.576,-0.21 0.878,-0.333 0.149,-0.064 0.31,-0.123 0.475,-0.195 0.166,-0.071 0.339,-0.152 0.522,-0.246 0.387,-0.198 0.805,-0.469 1.264,-0.735 0.227,-0.137 0.46,-0.28 0.695,-0.426 0.117,-0.073 0.235,-0.147 0.353,-0.22 0.12,-0.071 0.242,-0.138 0.364,-0.207 0.242,-0.136 0.485,-0.269 0.724,-0.397 0.12,-0.062 0.239,-0.124 0.356,-0.185 0.059,-0.03 0.118,-0.059 0.176,-0.088 0.059,-0.026 0.118,-0.052 0.177,-0.077 0.468,-0.201 0.91,-0.358 1.296,-0.439 0.095,-0.02 0.19,-0.036 0.287,-0.048 0.098,-0.008 0.197,-0.014 0.297,-0.015 0.201,-0.004 0.405,0.007 0.61,0.029 0.411,0.046 0.826,0.133 1.237,0.269 0.413,0.141 0.818,0.317 1.203,0.513 0.192,0.098 0.38,0.2 0.562,0.306 0.181,0.105 0.356,0.214 0.527,0.332 0.679,0.461 1.241,0.937 1.63,1.296 0.39,0.356 0.615,0.611 0.615,0.611 0,0 -0.051,0.011 -0.142,0.032 -0.09,0.026 -0.221,0.063 -0.382,0.108 -0.321,0.094 -0.768,0.213 -1.253,0.361 C 10.682,0.198 10.153,0.369 9.664,0.546 9.18,0.737 8.728,0.915 8.382,1.052 8.021,1.207 7.665,1.305 7.304,1.345 7.123,1.366 6.942,1.373 6.76,1.37 6.581,1.37 6.402,1.365 6.222,1.347 5.502,1.28 4.76,1.051 4.041,0.832 3.679,0.717 3.317,0.594 2.959,0.476 2.78,0.417 2.602,0.36 2.425,0.305 2.251,0.255 2.079,0.208 1.909,0.166 1.228,-0.001 0.573,-0.098 0,0" />
        </g>
        <g
           transform="translate(45.9686,494.9197)"
           id="g94">
          <path
             id="path96"
             style="fill:#c51f30;fill-opacity:1;fill-rule:nonzero;stroke:none"
             d="M 0,0 C -0.571,0.26 -1.049,0.527 -1.453,0.791 -1.851,1.06 -2.163,1.337 -2.434,1.599 -2.981,2.119 -3.289,2.633 -3.62,3.094 -3.961,3.549 -4.475,4.275 -4.928,4.876 -4.983,4.952 -5.04,5.025 -5.091,5.097 -5.141,5.17 -5.19,5.24 -5.236,5.307 -5.328,5.442 -5.412,5.562 -5.482,5.664 -5.623,5.866 -5.71,5.992 -5.71,5.992 c 0,0 0.039,-0.077 0.124,-0.246 0.087,-0.167 0.22,-0.427 0.419,-0.785 C -4.958,4.609 -4.683,4.156 -4.33,3.594 -4.244,3.451 -4.144,3.308 -4.04,3.158 -3.935,3.008 -3.825,2.85 -3.711,2.686 -3.595,2.521 -3.474,2.35 -3.347,2.171 -3.284,2.082 -3.22,1.99 -3.152,1.899 -3.082,1.809 -3.01,1.717 -2.937,1.623 -2.64,1.244 -2.365,0.95 -2.103,0.706 -1.974,0.582 -1.841,0.477 -1.71,0.379 c 0.131,-0.098 0.26,-0.188 0.388,-0.276 0.256,-0.176 0.51,-0.341 0.774,-0.532 0.13,-0.097 0.272,-0.192 0.415,-0.301 C 0.012,-0.839 0.16,-0.958 0.316,-1.092 0.48,-1.234 0.649,-1.395 0.822,-1.568 0.865,-1.611 0.909,-1.655 0.953,-1.7 0.998,-1.743 1.044,-1.787 1.09,-1.831 1.182,-1.921 1.275,-2.012 1.37,-2.105 1.558,-2.291 1.749,-2.486 1.942,-2.683 2.039,-2.782 2.136,-2.881 2.233,-2.98 l 0.304,-0.286 c 0.204,-0.19 0.407,-0.377 0.609,-0.558 0.203,-0.178 0.398,-0.358 0.605,-0.507 0.406,-0.306 0.797,-0.564 1.153,-0.734 0.171,-0.086 0.359,-0.147 0.552,-0.198 0.193,-0.051 0.393,-0.09 0.598,-0.117 0.204,-0.028 0.413,-0.044 0.624,-0.05 0.21,-0.006 0.422,-0.003 0.641,0.018 0.434,0.039 0.869,0.112 1.289,0.21 0.42,0.098 0.823,0.215 1.21,0.362 0.769,0.285 1.427,0.611 1.891,0.866 0.231,0.125 0.419,0.242 0.547,0.322 0.127,0.082 0.197,0.128 0.197,0.128 0,0 -0.046,0.023 -0.129,0.066 -0.042,0.022 -0.093,0.047 -0.152,0.079 -0.057,0.033 -0.123,0.071 -0.195,0.113 -0.291,0.166 -0.691,0.396 -1.131,0.65 -0.428,0.274 -0.894,0.574 -1.332,0.855 C 9.09,-1.459 8.694,-1.177 8.391,-0.962 8.31,-0.906 8.231,-0.851 8.152,-0.797 8.073,-0.744 7.993,-0.696 7.911,-0.651 7.749,-0.56 7.583,-0.485 7.412,-0.422 7.242,-0.359 7.068,-0.308 6.891,-0.268 6.714,-0.227 6.542,-0.189 6.362,-0.164 5.648,-0.057 4.871,-0.105 4.121,-0.147 3.742,-0.173 3.362,-0.207 2.987,-0.236 2.799,-0.251 2.612,-0.265 2.428,-0.276 2.246,-0.285 2.069,-0.289 1.893,-0.29 1.193,-0.291 0.534,-0.231 0,0" />
        </g>
        <g
           transform="translate(40.8566,502.1515)"
           id="g98">
          <path
             id="path100"
             style="fill:#c51f30;fill-opacity:1;fill-rule:nonzero;stroke:none"
             d="M 0,0 C -0.492,0.389 -0.893,0.763 -1.223,1.116 -1.264,1.16 -1.304,1.204 -1.344,1.247 -1.38,1.292 -1.417,1.336 -1.452,1.38 -1.522,1.468 -1.588,1.554 -1.651,1.639 -1.775,1.81 -1.886,1.975 -1.985,2.135 -2.085,2.295 -2.172,2.45 -2.252,2.601 -2.291,2.676 -2.33,2.75 -2.365,2.824 -2.397,2.899 -2.428,2.972 -2.459,3.044 -2.579,3.334 -2.678,3.607 -2.783,3.872 -3,4.399 -3.341,5.224 -3.628,5.918 -3.779,6.264 -3.891,6.585 -3.98,6.815 c -0.088,0.231 -0.143,0.374 -0.143,0.374 0,0 0.02,-0.084 0.062,-0.268 0.022,-0.092 0.05,-0.209 0.085,-0.353 0.037,-0.143 0.073,-0.315 0.136,-0.51 0.119,-0.393 0.277,-0.899 0.484,-1.531 0.109,-0.314 0.244,-0.655 0.388,-1.031 0.148,-0.374 0.297,-0.786 0.5,-1.217 0.198,-0.441 0.395,-0.792 0.591,-1.092 0.096,-0.151 0.204,-0.284 0.307,-0.411 0.103,-0.126 0.207,-0.245 0.31,-0.361 0.208,-0.232 0.415,-0.453 0.626,-0.702 0.213,-0.247 0.447,-0.513 0.683,-0.849 0.126,-0.178 0.253,-0.374 0.38,-0.583 0.032,-0.053 0.063,-0.106 0.096,-0.16 0.034,-0.053 0.068,-0.106 0.103,-0.16 0.067,-0.109 0.136,-0.219 0.206,-0.332 0.139,-0.226 0.279,-0.46 0.42,-0.698 0.071,-0.119 0.142,-0.238 0.213,-0.358 l 0.228,-0.349 c 0.153,-0.233 0.306,-0.463 0.459,-0.686 0.156,-0.222 0.303,-0.442 0.468,-0.636 0.323,-0.393 0.642,-0.737 0.947,-0.986 0.146,-0.124 0.315,-0.228 0.49,-0.323 0.176,-0.096 0.361,-0.18 0.553,-0.255 0.192,-0.075 0.391,-0.14 0.594,-0.196 0.203,-0.055 0.41,-0.103 0.628,-0.133 0.43,-0.066 0.87,-0.097 1.301,-0.101 0.431,-0.005 0.851,0.015 1.261,0.066 0.815,0.094 1.531,0.255 2.042,0.393 0.254,0.067 0.466,0.137 0.608,0.184 0.143,0.05 0.222,0.077 0.222,0.077 0,0 -0.039,0.034 -0.11,0.096 -0.035,0.03 -0.078,0.068 -0.129,0.111 -0.048,0.046 -0.103,0.098 -0.164,0.156 -0.242,0.231 -0.576,0.55 -0.944,0.9 -0.35,0.368 -0.732,0.769 -1.091,1.146 -0.341,0.393 -0.659,0.761 -0.903,1.041 -0.065,0.074 -0.129,0.146 -0.193,0.217 -0.064,0.07 -0.131,0.136 -0.199,0.199 -0.137,0.127 -0.28,0.239 -0.431,0.341 -0.15,0.101 -0.307,0.192 -0.47,0.272 -0.162,0.081 -0.321,0.16 -0.49,0.227 C 5.477,-1.393 4.71,-1.257 3.971,-1.12 3.597,-1.055 3.219,-0.998 2.847,-0.938 2.662,-0.908 2.477,-0.877 2.295,-0.844 2.115,-0.81 1.943,-0.771 1.771,-0.731 1.091,-0.566 0.466,-0.35 0,0" />
        </g>
        <g
           transform="translate(37.6105,510.4027)"
           id="g102">
          <path
             id="path104"
             style="fill:#c51f30;fill-opacity:1;fill-rule:nonzero;stroke:none"
             d="m 0,0 c -0.39,0.494 -0.683,0.955 -0.918,1.377 -0.059,0.106 -0.113,0.209 -0.164,0.31 -0.051,0.102 -0.09,0.202 -0.131,0.3 -0.08,0.195 -0.147,0.382 -0.204,0.561 -0.114,0.359 -0.189,0.687 -0.247,0.995 -0.046,0.31 -0.075,0.6 -0.111,0.882 -0.036,0.282 -0.095,0.642 -0.163,1.024 -0.051,0.383 -0.11,0.789 -0.166,1.16 -0.028,0.186 -0.055,0.363 -0.079,0.524 -0.012,0.081 -0.024,0.157 -0.035,0.229 -0.009,0.071 -0.016,0.138 -0.023,0.199 -0.028,0.245 -0.046,0.396 -0.046,0.396 0,0 -0.002,-0.086 -0.007,-0.275 C -2.295,7.588 -2.299,7.469 -2.297,7.321 -2.291,7.174 -2.284,6.999 -2.275,6.795 -2.265,6.59 -2.253,6.356 -2.239,6.09 -2.231,5.957 -2.223,5.816 -2.214,5.667 -2.209,5.593 -2.205,5.516 -2.2,5.438 c 0.009,-0.079 0.017,-0.159 0.026,-0.241 0.039,-0.33 0.081,-0.694 0.127,-1.093 0.025,-0.199 0.05,-0.408 0.08,-0.625 0.038,-0.216 0.077,-0.441 0.118,-0.675 0.085,-0.475 0.188,-0.864 0.308,-1.202 0.132,-0.336 0.273,-0.622 0.417,-0.898 0.145,-0.275 0.291,-0.54 0.438,-0.831 0.157,-0.289 0.313,-0.606 0.462,-0.989 0.08,-0.203 0.155,-0.424 0.228,-0.658 0.078,-0.233 0.162,-0.477 0.241,-0.73 0.164,-0.505 0.307,-1.05 0.502,-1.572 0.093,-0.263 0.186,-0.524 0.282,-0.777 0.049,-0.127 0.097,-0.252 0.145,-0.375 0.048,-0.123 0.107,-0.239 0.16,-0.355 0.219,-0.459 0.447,-0.869 0.684,-1.185 0.112,-0.155 0.255,-0.295 0.401,-0.43 0.148,-0.135 0.308,-0.262 0.477,-0.38 0.168,-0.119 0.346,-0.229 0.53,-0.332 0.093,-0.051 0.187,-0.1 0.282,-0.147 0.096,-0.047 0.197,-0.089 0.297,-0.131 0.404,-0.166 0.823,-0.301 1.24,-0.408 0.209,-0.053 0.418,-0.099 0.623,-0.139 0.204,-0.042 0.418,-0.069 0.619,-0.095 0.814,-0.102 1.547,-0.115 2.077,-0.102 0.262,0.005 0.485,0.024 0.635,0.036 0.15,0.014 0.234,0.022 0.234,0.022 0,0 -0.03,0.042 -0.085,0.119 -0.027,0.038 -0.06,0.085 -0.099,0.139 -0.035,0.056 -0.077,0.119 -0.122,0.19 -0.181,0.281 -0.43,0.67 -0.704,1.098 -0.254,0.44 -0.53,0.92 -0.79,1.371 C 7.396,-5.494 7.174,-5.061 7.005,-4.73 6.911,-4.557 6.825,-4.388 6.721,-4.233 6.619,-4.078 6.506,-3.935 6.384,-3.8 6.141,-3.531 5.856,-3.302 5.569,-3.087 5.276,-2.875 4.956,-2.689 4.619,-2.519 4.451,-2.434 4.278,-2.353 4.103,-2.273 3.934,-2.193 3.762,-2.115 3.588,-2.039 3.241,-1.886 2.889,-1.74 2.543,-1.592 2.199,-1.444 1.85,-1.298 1.544,-1.135 0.922,-0.812 0.374,-0.451 0,0" />
        </g>
        <g
           transform="translate(36.4354,519.1804)"
           id="g106">
          <path
             id="path108"
             style="fill:#c51f30;fill-opacity:1;fill-rule:nonzero;stroke:none"
             d="m 0,0 c -0.278,0.571 -0.457,1.086 -0.578,1.55 -0.062,0.233 -0.109,0.452 -0.141,0.661 -0.034,0.208 -0.059,0.405 -0.071,0.593 -0.056,0.75 0.034,1.341 0.093,1.906 0.061,0.565 0.124,1.454 0.196,2.203 0.07,0.748 0.143,1.355 0.143,1.355 0,0 -0.098,-0.331 -0.264,-1.135 C -0.783,6.33 -1.018,5.05 -1.15,3.153 -1.214,2.191 -1.091,1.548 -0.94,0.947 c 0.038,-0.15 0.076,-0.298 0.117,-0.448 0.044,-0.15 0.086,-0.302 0.127,-0.46 0.081,-0.317 0.153,-0.66 0.204,-1.067 0.013,-0.108 0.024,-0.219 0.034,-0.335 0.013,-0.115 0.026,-0.234 0.038,-0.356 0.023,-0.244 0.041,-0.5 0.056,-0.764 0.014,-0.265 0.027,-0.538 0.041,-0.813 0.024,-0.275 0.048,-0.554 0.072,-0.831 0.025,-0.277 0.052,-0.552 0.082,-0.822 0.009,-0.067 0.016,-0.134 0.024,-0.2 0.01,-0.067 0.022,-0.132 0.033,-0.197 0.023,-0.13 0.047,-0.258 0.072,-0.382 0.101,-0.499 0.218,-0.953 0.375,-1.316 0.165,-0.35 0.391,-0.685 0.66,-0.996 0.27,-0.312 0.578,-0.601 0.935,-0.858 0.35,-0.258 0.725,-0.49 1.104,-0.693 0.189,-0.102 0.379,-0.198 0.571,-0.285 0.195,-0.087 0.39,-0.166 0.581,-0.239 0.765,-0.294 1.473,-0.482 1.989,-0.596 0.527,-0.11 0.861,-0.15 0.861,-0.15 0,0 -0.019,0.048 -0.054,0.135 -0.032,0.088 -0.089,0.212 -0.139,0.372 -0.108,0.317 -0.255,0.754 -0.418,1.235 -0.043,0.12 -0.077,0.246 -0.113,0.372 -0.036,0.127 -0.072,0.255 -0.109,0.383 -0.073,0.257 -0.146,0.516 -0.217,0.766 -0.038,0.125 -0.064,0.25 -0.093,0.371 -0.028,0.122 -0.055,0.24 -0.081,0.353 -0.053,0.227 -0.101,0.436 -0.143,0.617 -0.096,0.382 -0.208,0.732 -0.382,1.051 -0.167,0.32 -0.39,0.611 -0.625,0.887 -0.461,0.551 -1.063,1.03 -1.674,1.491 -0.596,0.461 -1.221,0.903 -1.765,1.363 -0.068,0.058 -0.135,0.115 -0.2,0.174 C 0.961,-1.233 0.9,-1.175 0.84,-1.116 0.721,-0.998 0.609,-0.878 0.506,-0.757 0.299,-0.514 0.125,-0.263 0,0" />
        </g>
        <g
           transform="translate(54.9307,501.8657)"
           id="g114">
          <path
             id="path116"
             style="fill:#c51f30;fill-opacity:1;fill-rule:nonzero;stroke:none"
             d="m 0,0 c 0.067,-0.069 0.135,-0.139 0.205,-0.211 0.035,-0.036 0.07,-0.073 0.105,-0.11 0.037,-0.036 0.075,-0.072 0.113,-0.109 0.152,-0.149 0.305,-0.318 0.455,-0.53 0.075,-0.106 0.15,-0.223 0.223,-0.353 0.079,-0.125 0.157,-0.263 0.234,-0.418 0.078,-0.155 0.154,-0.328 0.229,-0.52 0.073,-0.195 0.151,-0.404 0.235,-0.631 0.076,-0.211 0.119,-0.456 0.142,-0.731 0.012,-0.136 0.019,-0.28 0.023,-0.431 0.002,-0.149 0.005,-0.304 0.007,-0.462 0.008,-0.628 -0.01,-1.338 0.04,-2.062 0.062,-0.704 0.195,-1.421 0.485,-2.065 0.151,-0.312 0.341,-0.605 0.578,-0.87 0.118,-0.132 0.248,-0.256 0.39,-0.372 0.147,-0.109 0.306,-0.208 0.478,-0.296 0.647,-0.345 1.718,-0.853 2.646,-1.227 0.233,-0.092 0.455,-0.179 0.657,-0.259 0.204,-0.078 0.383,-0.157 0.541,-0.206 0.312,-0.105 0.506,-0.171 0.506,-0.171 0,0 -0.054,0.33 -0.156,0.842 -0.051,0.256 -0.112,0.56 -0.179,0.895 -0.068,0.337 -0.145,0.701 -0.23,1.073 -0.085,0.375 -0.181,0.749 -0.281,1.13 C 7.348,-7.71 7.24,-7.335 7.118,-6.987 6.869,-6.303 6.596,-5.67 6.203,-5.29 6.152,-5.24 6.098,-5.193 6.039,-5.145 5.983,-5.094 5.923,-5.044 5.859,-4.995 5.732,-4.896 5.591,-4.8 5.441,-4.707 5.292,-4.614 5.13,-4.525 4.966,-4.434 4.806,-4.335 4.64,-4.238 4.472,-4.142 4.303,-4.047 4.134,-3.951 3.966,-3.856 3.799,-3.76 3.643,-3.651 3.488,-3.549 c -0.153,0.103 -0.3,0.207 -0.437,0.31 -0.068,0.051 -0.135,0.102 -0.196,0.155 -0.06,0.055 -0.117,0.11 -0.169,0.165 -0.2,0.208 -0.35,0.406 -0.477,0.599 -0.062,0.097 -0.123,0.188 -0.174,0.287 -0.052,0.098 -0.102,0.195 -0.154,0.293 -0.204,0.39 -0.444,0.757 -0.9,1.209 -0.92,0.87 -1.498,1.513 -1.873,1.912 -0.095,0.099 -0.177,0.183 -0.245,0.254 -0.067,0.073 -0.119,0.134 -0.162,0.181 -0.085,0.093 -0.124,0.135 -0.124,0.135 0,0 0.052,-0.088 0.137,-0.232 0.022,-0.035 0.045,-0.075 0.07,-0.117 0.028,-0.04 0.057,-0.083 0.088,-0.128 0.063,-0.091 0.131,-0.19 0.203,-0.295 0.146,-0.207 0.302,-0.44 0.464,-0.647 C -0.294,0.329 -0.133,0.14 0,0" />
        </g>
        <g
           transform="translate(51.2098,506.777)"
           id="g118">
          <path
             id="path120"
             style="fill:#c51f30;fill-opacity:1;fill-rule:nonzero;stroke:none"
             d="M 0,0 C 0.049,-0.083 0.098,-0.167 0.149,-0.254 0.174,-0.297 0.199,-0.341 0.225,-0.385 0.253,-0.428 0.28,-0.472 0.309,-0.517 0.421,-0.698 0.53,-0.898 0.625,-1.139 0.673,-1.26 0.717,-1.391 0.758,-1.534 0.805,-1.674 0.849,-1.827 0.887,-1.996 0.925,-2.165 0.958,-2.35 0.985,-2.555 1.01,-2.761 1.037,-2.983 1.065,-3.224 1.089,-3.446 1.072,-3.695 1.03,-3.967 1.01,-4.103 0.982,-4.244 0.951,-4.391 0.917,-4.537 0.883,-4.687 0.849,-4.842 0.708,-5.455 0.522,-6.14 0.4,-6.855 0.294,-7.554 0.253,-8.283 0.383,-8.977 c 0.073,-0.338 0.188,-0.669 0.355,-0.981 0.084,-0.157 0.18,-0.31 0.292,-0.455 0.117,-0.14 0.247,-0.274 0.394,-0.401 0.138,-0.12 0.298,-0.259 0.472,-0.409 0.087,-0.074 0.175,-0.155 0.271,-0.232 0.096,-0.076 0.195,-0.154 0.296,-0.233 0.202,-0.158 0.41,-0.322 0.617,-0.484 0.104,-0.081 0.204,-0.166 0.311,-0.24 0.105,-0.075 0.21,-0.149 0.312,-0.222 0.204,-0.145 0.399,-0.283 0.576,-0.409 0.088,-0.064 0.172,-0.124 0.251,-0.18 0.08,-0.055 0.157,-0.102 0.226,-0.147 0.278,-0.178 0.45,-0.288 0.45,-0.288 0,0 0.026,0.333 0.05,0.855 0.019,0.516 0.058,1.244 0.07,2.009 0.007,0.384 0.005,0.774 -0.005,1.164 -0.004,0.397 -0.02,0.787 -0.055,1.154 -0.08,0.726 -0.198,1.404 -0.489,1.869 -0.037,0.06 -0.079,0.12 -0.124,0.18 -0.044,0.061 -0.09,0.125 -0.141,0.188 -0.1,0.126 -0.214,0.252 -0.338,0.379 -0.124,0.126 -0.259,0.251 -0.397,0.378 -0.133,0.134 -0.271,0.268 -0.412,0.401 -0.142,0.133 -0.284,0.266 -0.424,0.398 -0.14,0.133 -0.266,0.277 -0.392,0.412 -0.125,0.137 -0.244,0.272 -0.352,0.404 -0.054,0.067 -0.107,0.132 -0.154,0.198 -0.045,0.067 -0.087,0.134 -0.126,0.2 -0.145,0.25 -0.243,0.478 -0.321,0.695 -0.038,0.109 -0.075,0.212 -0.102,0.32 -0.026,0.107 -0.053,0.213 -0.079,0.321 -0.106,0.427 -0.253,0.84 -0.588,1.386 -0.687,1.062 -1.096,1.821 -1.364,2.298 -0.069,0.118 -0.128,0.219 -0.177,0.304 -0.052,0.085 -0.084,0.158 -0.115,0.213 -0.061,0.11 -0.089,0.16 -0.089,0.16 0,0 0.03,-0.098 0.078,-0.257 C -0.818,1.89 -0.783,1.798 -0.744,1.696 -0.705,1.594 -0.662,1.481 -0.618,1.362 -0.525,1.127 -0.431,0.863 -0.321,0.625 -0.207,0.388 -0.096,0.167 0,0" />
        </g>
        <g
           transform="translate(48.7683,512.4199)"
           id="g122">
          <path
             id="path124"
             style="fill:#c51f30;fill-opacity:1;fill-rule:nonzero;stroke:none"
             d="M 0,0 C 0.027,-0.092 0.054,-0.186 0.082,-0.282 0.108,-0.378 0.148,-0.473 0.179,-0.574 0.243,-0.776 0.3,-0.996 0.334,-1.253 0.354,-1.381 0.359,-1.521 0.372,-1.667 0.383,-1.814 0.389,-1.972 0.385,-2.145 0.381,-2.318 0.369,-2.506 0.346,-2.711 0.334,-2.815 0.321,-2.921 0.307,-3.033 0.296,-3.143 0.282,-3.258 0.265,-3.378 0.235,-3.599 0.159,-3.837 0.054,-4.091 -0.05,-4.344 -0.193,-4.618 -0.33,-4.897 c -0.283,-0.561 -0.627,-1.184 -0.915,-1.849 -0.267,-0.653 -0.482,-1.352 -0.519,-2.056 -0.009,-0.346 0.024,-0.694 0.113,-1.038 0.044,-0.172 0.101,-0.343 0.176,-0.511 0.08,-0.163 0.176,-0.325 0.288,-0.483 0.106,-0.149 0.228,-0.321 0.361,-0.508 0.068,-0.093 0.134,-0.192 0.209,-0.29 0.076,-0.096 0.154,-0.195 0.233,-0.296 0.158,-0.202 0.322,-0.41 0.485,-0.617 0.082,-0.102 0.159,-0.209 0.245,-0.306 0.085,-0.098 0.169,-0.195 0.251,-0.289 0.164,-0.19 0.32,-0.37 0.462,-0.535 0.072,-0.082 0.139,-0.16 0.203,-0.233 0.064,-0.072 0.128,-0.136 0.184,-0.196 0.228,-0.239 0.369,-0.387 0.369,-0.387 0,0 0.104,0.318 0.251,0.82 0.141,0.496 0.35,1.194 0.543,1.935 0.097,0.371 0.187,0.751 0.27,1.132 0.09,0.387 0.166,0.769 0.219,1.135 0.094,0.724 0.14,1.41 -0.033,1.93 -0.022,0.067 -0.048,0.135 -0.078,0.204 -0.029,0.07 -0.058,0.144 -0.092,0.216 -0.067,0.147 -0.148,0.296 -0.239,0.448 -0.09,0.152 -0.19,0.306 -0.296,0.461 -0.097,0.161 -0.199,0.324 -0.304,0.486 -0.106,0.163 -0.212,0.326 -0.317,0.487 -0.055,0.08 -0.101,0.164 -0.147,0.246 -0.046,0.083 -0.092,0.165 -0.136,0.246 -0.089,0.162 -0.172,0.321 -0.245,0.476 -0.037,0.077 -0.072,0.153 -0.103,0.227 -0.03,0.076 -0.053,0.151 -0.075,0.224 -0.081,0.276 -0.122,0.521 -0.145,0.75 -0.012,0.114 -0.02,0.225 -0.025,0.334 0,0.111 0.001,0.22 0.001,0.33 -0.002,0.219 -0.009,0.439 -0.046,0.679 -0.009,0.059 -0.021,0.12 -0.034,0.183 C 0.77,-1.48 0.755,-1.416 0.743,-1.348 0.714,-1.213 0.676,-1.072 0.625,-0.92 0.574,-0.771 0.525,-0.628 0.478,-0.49 0.453,-0.422 0.43,-0.354 0.407,-0.289 0.383,-0.223 0.368,-0.157 0.348,-0.093 0.274,0.163 0.204,0.396 0.139,0.607 0.106,0.712 0.075,0.812 0.045,0.907 0.016,1.002 -0.004,1.093 -0.027,1.179 -0.073,1.35 -0.113,1.501 -0.149,1.633 c -0.072,0.263 -0.132,0.449 -0.164,0.57 -0.032,0.122 -0.046,0.178 -0.046,0.178 0,0 0.001,-0.026 0.003,-0.072 C -0.353,2.262 -0.354,2.195 -0.345,2.112 -0.326,1.948 -0.3,1.72 -0.272,1.469 -0.257,1.343 -0.241,1.211 -0.224,1.078 l 0.026,-0.2 C -0.185,0.813 -0.172,0.747 -0.159,0.683 -0.106,0.427 -0.052,0.185 0,0" />
        </g>
        <g
           transform="translate(47.741,518.4886)"
           id="g126">
          <path
             id="path128"
             style="fill:#c51f30;fill-opacity:1;fill-rule:nonzero;stroke:none"
             d="m 0,0 c 0.021,-0.387 0.092,-0.784 0.027,-1.302 -0.019,-0.13 -0.026,-0.264 -0.053,-0.411 -0.025,-0.145 -0.059,-0.301 -0.106,-0.468 -0.046,-0.168 -0.105,-0.348 -0.177,-0.542 -0.068,-0.194 -0.139,-0.401 -0.232,-0.628 -0.35,-0.831 -1.401,-1.753 -2.271,-2.907 -0.209,-0.286 -0.407,-0.585 -0.579,-0.898 -0.086,-0.156 -0.166,-0.316 -0.238,-0.479 -0.072,-0.163 -0.136,-0.33 -0.179,-0.496 -0.093,-0.334 -0.144,-0.68 -0.142,-1.036 0.004,-0.176 0.012,-0.359 0.052,-0.536 0.038,-0.179 0.093,-0.358 0.164,-0.539 0.137,-0.339 0.298,-0.791 0.519,-1.254 0.214,-0.466 0.426,-0.97 0.665,-1.41 0.114,-0.223 0.223,-0.435 0.322,-0.629 0.05,-0.097 0.097,-0.189 0.141,-0.275 0.048,-0.084 0.093,-0.163 0.134,-0.234 0.164,-0.286 0.266,-0.463 0.266,-0.463 0,0 0.177,0.284 0.438,0.737 0.129,0.226 0.283,0.494 0.452,0.79 0.171,0.299 0.353,0.624 0.535,0.961 0.181,0.337 0.362,0.686 0.53,1.034 0.179,0.354 0.345,0.708 0.484,1.05 0.069,0.171 0.132,0.34 0.185,0.504 0.027,0.083 0.052,0.164 0.074,0.244 0.025,0.082 0.048,0.163 0.069,0.242 0.082,0.318 0.122,0.617 0.102,0.89 -0.029,0.279 -0.088,0.601 -0.191,0.938 -0.051,0.169 -0.11,0.343 -0.176,0.519 -0.064,0.176 -0.117,0.361 -0.181,0.543 -0.265,0.726 -0.486,1.489 -0.54,2.092 -0.011,0.289 0.01,0.536 0.044,0.764 0.017,0.114 0.037,0.224 0.058,0.331 0.011,0.053 0.021,0.107 0.032,0.16 0.012,0.053 0.026,0.106 0.039,0.16 0.053,0.213 0.101,0.43 0.124,0.672 0.025,0.242 0.016,0.508 0,0.829 C 0.368,-0.731 0.344,-0.44 0.32,-0.174 0.317,-0.14 0.314,-0.108 0.311,-0.075 0.31,-0.042 0.309,-0.01 0.308,0.022 0.305,0.086 0.303,0.149 0.301,0.21 0.296,0.332 0.292,0.449 0.287,0.56 0.277,0.781 0.266,0.98 0.255,1.158 0.245,1.336 0.245,1.494 0.239,1.631 0.226,2.18 0.216,2.411 0.216,2.411 0.216,2.411 0.198,2.31 0.17,2.146 0.147,1.981 0.108,1.754 0.081,1.5 0.046,1.247 0.033,0.969 0.018,0.706 0.004,0.442 -0.004,0.194 0,0" />
        </g>
        <g
           transform="translate(48.179,524.6404)"
           id="g130">
          <path
             id="path132"
             style="fill:#c51f30;fill-opacity:1;fill-rule:nonzero;stroke:none"
             d="m 0,0 c -0.076,-0.379 -0.109,-0.78 -0.281,-1.268 -0.168,-0.491 -0.468,-1.066 -1.041,-1.858 -0.131,-0.183 -0.309,-0.359 -0.517,-0.536 -0.21,-0.178 -0.45,-0.355 -0.709,-0.539 -0.52,-0.368 -1.111,-0.762 -1.654,-1.219 -0.273,-0.229 -0.54,-0.473 -0.784,-0.736 -0.121,-0.132 -0.243,-0.268 -0.345,-0.409 -0.103,-0.141 -0.198,-0.287 -0.284,-0.439 -0.172,-0.303 -0.308,-0.627 -0.393,-0.973 -0.047,-0.173 -0.061,-0.35 -0.07,-0.533 -0.006,-0.182 0.002,-0.37 0.026,-0.562 0.023,-0.182 0.05,-0.391 0.079,-0.619 0.037,-0.226 0.083,-0.47 0.127,-0.723 0.045,-0.252 0.091,-0.513 0.138,-0.772 0.05,-0.258 0.115,-0.512 0.17,-0.756 0.113,-0.488 0.209,-0.933 0.308,-1.247 0.09,-0.318 0.146,-0.514 0.146,-0.514 0,0 0.24,0.234 0.603,0.611 0.181,0.188 0.394,0.412 0.623,0.658 0.238,0.249 0.494,0.521 0.752,0.806 0.258,0.283 0.519,0.579 0.766,0.878 0.124,0.15 0.247,0.301 0.37,0.451 0.122,0.151 0.239,0.302 0.348,0.452 0.218,0.3 0.406,0.595 0.55,0.882 0.158,0.29 0.27,0.571 0.319,0.842 0.024,0.14 0.036,0.291 0.036,0.451 0.001,0.16 0.008,0.331 -0.001,0.508 -0.007,0.177 -0.022,0.36 -0.041,0.548 -0.019,0.187 -0.047,0.378 -0.056,0.572 -0.028,0.387 -0.064,0.779 -0.084,1.15 -0.008,0.371 0.004,0.721 0.057,1.021 0.099,0.568 0.31,0.945 0.5,1.337 0.196,0.392 0.377,0.797 0.471,1.43 0.19,1.25 0.376,2.091 0.489,2.626 0.058,0.267 0.099,0.457 0.125,0.58 0.024,0.124 0.036,0.181 0.036,0.181 0,0 -0.041,-0.094 -0.106,-0.247 C 0.607,1.882 0.524,1.669 0.432,1.431 0.253,0.957 0.072,0.379 0,0" />
        </g>
        <g
           transform="translate(79.6637,482.8096)"
           id="g134">
          <path
             id="path136"
             style="fill:#c51f30;fill-opacity:1;fill-rule:nonzero;stroke:none"
             d="M 0,0 C 0.395,-0.016 0.862,0.028 1.365,0.109 1.864,0.211 2.399,0.348 2.936,0.494 4.005,0.813 5.074,1.186 5.916,1.4 6.117,1.447 6.304,1.484 6.483,1.513 6.66,1.541 6.828,1.567 6.99,1.592 c 0.323,0.047 0.625,0.076 0.935,0.114 0.154,0.019 0.311,0.04 0.472,0.066 0.081,0.014 0.164,0.027 0.247,0.046 0.082,0.02 0.167,0.041 0.253,0.065 0.346,0.096 0.726,0.23 1.165,0.43 0.108,0.05 0.214,0.098 0.318,0.146 0.102,0.052 0.201,0.103 0.299,0.153 0.195,0.1 0.381,0.197 0.56,0.289 0.178,0.094 0.348,0.183 0.51,0.268 0.081,0.043 0.16,0.085 0.238,0.126 0.076,0.042 0.149,0.086 0.221,0.128 0.572,0.337 1.024,0.612 1.373,0.828 0.679,0.459 0.955,0.666 0.955,0.666 0,0 -0.135,-0.071 -0.353,-0.186 C 14.074,4.674 13.944,4.605 13.8,4.529 13.656,4.453 13.5,4.366 13.329,4.287 12.991,4.123 12.622,3.942 12.275,3.767 12.101,3.682 11.937,3.591 11.778,3.517 11.62,3.442 11.474,3.37 11.347,3.305 11.094,3.175 10.839,3.036 10.557,2.898 10.416,2.83 10.272,2.755 10.111,2.697 9.952,2.636 9.784,2.578 9.603,2.523 9.243,2.414 8.836,2.317 8.359,2.256 7.878,2.208 7.33,2.192 6.702,2.225 6.63,2.229 6.557,2.236 6.484,2.245 6.411,2.257 6.336,2.273 6.261,2.29 6.112,2.325 5.961,2.371 5.81,2.425 5.506,2.534 5.198,2.677 4.886,2.841 4.267,3.159 3.622,3.601 2.974,3.996 2.812,4.095 2.649,4.192 2.486,4.286 2.322,4.38 2.159,4.465 1.991,4.558 1.658,4.739 1.321,4.897 0.979,5.018 0.297,5.245 -0.416,5.39 -1.189,5.248 -1.235,5.24 -1.283,5.232 -1.332,5.223 -1.381,5.216 -1.432,5.21 -1.485,5.203 -1.59,5.19 -1.701,5.176 -1.816,5.161 -2.048,5.131 -2.297,5.1 -2.555,5.067 -2.685,5.05 -2.815,5.034 -2.948,5.017 -3.08,5.007 -3.214,4.997 -3.347,4.987 -3.613,4.967 -3.878,4.947 -4.132,4.927 -4.258,4.918 -4.382,4.908 -4.502,4.899 -4.621,4.889 -4.737,4.891 -4.847,4.887 -5.068,4.881 -5.267,4.876 -5.434,4.872 -5.769,4.863 -5.976,4.858 -5.976,4.858 c 0,0 0.158,-0.291 0.452,-0.736 C -5.378,3.9 -5.196,3.639 -4.983,3.356 -4.876,3.215 -4.762,3.068 -4.639,2.918 -4.578,2.844 -4.515,2.767 -4.45,2.692 -4.385,2.619 -4.319,2.545 -4.25,2.471 -3.976,2.176 -3.673,1.877 -3.346,1.592 -3.182,1.45 -3.013,1.311 -2.838,1.179 -2.751,1.112 -2.662,1.047 -2.573,0.984 -2.483,0.921 -2.393,0.865 -2.301,0.809 -1.936,0.585 -1.553,0.392 -1.165,0.249 -0.971,0.177 -0.776,0.117 -0.581,0.071 -0.386,0.031 -0.192,0.008 0,0" />
        </g>
        <g
           transform="translate(88.267,485.3425)"
           id="g138">
          <path
             id="path140"
             style="fill:#c51f30;fill-opacity:1;fill-rule:nonzero;stroke:none"
             d="M 0,0 C 0.387,0.081 0.828,0.238 1.297,0.439 1.355,0.464 1.414,0.49 1.474,0.516 1.532,0.545 1.59,0.574 1.649,0.604 1.766,0.665 1.885,0.727 2.005,0.79 2.245,0.917 2.487,1.051 2.73,1.187 2.851,1.255 2.973,1.322 3.093,1.393 3.212,1.466 3.33,1.54 3.447,1.613 3.682,1.759 3.914,1.902 4.141,2.039 4.6,2.305 5.019,2.576 5.406,2.774 5.589,2.868 5.762,2.949 5.927,3.02 6.093,3.092 6.253,3.151 6.403,3.215 6.704,3.338 6.99,3.438 7.281,3.549 c 0.145,0.055 0.292,0.113 0.442,0.177 0.075,0.032 0.151,0.066 0.229,0.102 0.077,0.037 0.152,0.079 0.23,0.123 0.313,0.175 0.649,0.395 1.027,0.694 0.094,0.073 0.185,0.146 0.274,0.217 0.088,0.072 0.172,0.147 0.255,0.218 0.164,0.144 0.323,0.282 0.474,0.414 0.15,0.133 0.294,0.26 0.431,0.381 0.138,0.121 0.268,0.237 0.385,0.354 0.476,0.463 0.849,0.837 1.136,1.129 0.552,0.606 0.771,0.873 0.771,0.873 0,0 -0.115,-0.101 -0.3,-0.265 C 12.544,7.885 12.434,7.787 12.312,7.679 12.191,7.571 12.058,7.451 11.912,7.333 11.33,6.857 10.659,6.274 10.221,5.912 9.79,5.543 9.37,5.116 8.715,4.74 8.39,4.55 8.021,4.355 7.571,4.187 7.116,4.026 6.588,3.879 5.971,3.761 5.398,3.663 4.743,3.76 4.063,3.927 3.893,3.97 3.721,4.016 3.546,4.067 3.37,4.121 3.192,4.179 3.013,4.237 2.655,4.355 2.293,4.478 1.931,4.593 1.212,4.812 0.469,5.041 -0.25,5.108 -0.431,5.126 -0.609,5.131 -0.789,5.131 -0.971,5.134 -1.152,5.127 -1.332,5.106 -1.694,5.066 -2.05,4.968 -2.411,4.813 -2.756,4.676 -3.209,4.498 -3.693,4.307 -4.182,4.13 -4.71,3.96 -5.19,3.795 -5.676,3.646 -6.122,3.527 -6.444,3.433 -6.605,3.388 -6.735,3.351 -6.825,3.326 -6.917,3.305 -6.968,3.293 -6.968,3.293 c 0,0 0.226,-0.254 0.615,-0.611 0.39,-0.359 0.951,-0.835 1.631,-1.296 0.17,-0.118 0.346,-0.226 0.527,-0.332 0.181,-0.105 0.369,-0.208 0.562,-0.306 0.384,-0.196 0.789,-0.371 1.203,-0.513 0.411,-0.135 0.825,-0.222 1.237,-0.269 0.205,-0.022 0.409,-0.032 0.609,-0.029 0.1,0.002 0.199,0.007 0.298,0.016 C -0.19,-0.036 -0.094,-0.019 0,0" />
        </g>
        <g
           transform="translate(96.0096,489.8544)"
           id="g142">
          <path
             id="path144"
             style="fill:#c51f30;fill-opacity:1;fill-rule:nonzero;stroke:none"
             d="M 0,0 C 0.356,0.17 0.746,0.429 1.153,0.735 1.359,0.884 1.555,1.063 1.758,1.242 1.959,1.422 2.163,1.61 2.366,1.799 L 2.67,2.085 C 2.767,2.184 2.864,2.284 2.961,2.382 3.154,2.579 3.346,2.774 3.534,2.96 3.628,3.053 3.722,3.144 3.813,3.234 3.859,3.278 3.905,3.322 3.95,3.365 3.995,3.41 4.038,3.454 4.081,3.498 4.255,3.671 4.424,3.831 4.588,3.973 4.743,4.108 4.892,4.227 5.036,4.335 5.18,4.444 5.322,4.539 5.452,4.636 5.716,4.827 5.969,4.992 6.225,5.168 6.354,5.256 6.482,5.347 6.613,5.445 6.744,5.542 6.878,5.648 7.006,5.771 7.268,6.015 7.543,6.309 7.84,6.688 c 0.073,0.094 0.145,0.186 0.215,0.276 0.068,0.091 0.132,0.183 0.196,0.272 0.126,0.179 0.247,0.351 0.363,0.515 0.115,0.165 0.225,0.322 0.329,0.472 0.105,0.151 0.205,0.294 0.291,0.436 0.353,0.563 0.627,1.015 0.837,1.367 0.199,0.359 0.332,0.618 0.419,0.786 0.085,0.168 0.124,0.245 0.124,0.245 0,0 -0.088,-0.125 -0.229,-0.328 -0.07,-0.102 -0.153,-0.222 -0.246,-0.356 C 10.093,10.306 10.044,10.235 9.994,10.163 9.943,10.09 9.887,10.017 9.831,9.942 9.379,9.34 8.864,8.615 8.524,8.159 8.192,7.698 7.884,7.184 7.337,6.664 7.067,6.403 6.754,6.126 6.356,5.856 5.952,5.592 5.474,5.325 4.904,5.065 4.369,4.835 3.711,4.774 3.011,4.776 2.835,4.777 2.658,4.78 2.475,4.789 2.291,4.8 2.104,4.814 1.917,4.829 1.541,4.859 1.161,4.893 0.782,4.918 0.032,4.961 -0.745,5.009 -1.458,4.902 -1.638,4.877 -1.811,4.838 -1.988,4.797 -2.165,4.757 -2.339,4.707 -2.509,4.644 -2.679,4.581 -2.846,4.505 -3.008,4.415 -3.089,4.37 -3.17,4.321 -3.249,4.268 -3.327,4.214 -3.407,4.159 -3.488,4.103 -3.79,3.888 -4.186,3.606 -4.611,3.305 -5.048,3.023 -5.515,2.724 -5.942,2.449 -6.383,2.196 -6.783,1.966 -7.073,1.799 -7.146,1.757 -7.211,1.719 -7.269,1.686 -7.327,1.654 -7.379,1.629 -7.42,1.608 -7.504,1.565 -7.55,1.541 -7.55,1.541 c 0,0 0.071,-0.045 0.198,-0.128 0.128,-0.08 0.316,-0.197 0.547,-0.322 0.464,-0.255 1.121,-0.581 1.89,-0.866 0.388,-0.146 0.79,-0.264 1.211,-0.362 0.42,-0.097 0.854,-0.171 1.288,-0.209 0.219,-0.022 0.431,-0.024 0.642,-0.019 0.211,0.006 0.419,0.022 0.624,0.05 0.204,0.027 0.404,0.066 0.597,0.117 C -0.359,-0.147 -0.171,-0.085 0,0" />
        </g>
        <g
           transform="translate(102.4562,496.0671)"
           id="g146">
          <path
             id="path148"
             style="fill:#c51f30;fill-opacity:1;fill-rule:nonzero;stroke:none"
             d="M 0,0 C 0.305,0.25 0.624,0.593 0.946,0.986 1.112,1.18 1.259,1.4 1.414,1.622 1.568,1.845 1.721,2.076 1.874,2.308 l 0.228,0.35 c 0.071,0.119 0.142,0.239 0.213,0.358 0.141,0.237 0.281,0.471 0.419,0.697 0.07,0.113 0.14,0.224 0.207,0.332 0.035,0.054 0.069,0.108 0.103,0.161 0.032,0.053 0.064,0.107 0.096,0.159 0.127,0.21 0.254,0.406 0.38,0.583 0.235,0.337 0.47,0.602 0.683,0.85 0.211,0.248 0.418,0.469 0.626,0.701 0.103,0.116 0.207,0.235 0.31,0.362 0.103,0.127 0.211,0.259 0.306,0.411 0.197,0.3 0.394,0.651 0.592,1.091 0.203,0.431 0.352,0.844 0.5,1.218 0.144,0.376 0.279,0.716 0.388,1.03 0.207,0.633 0.365,1.138 0.484,1.531 0.063,0.195 0.099,0.368 0.136,0.511 0.035,0.144 0.063,0.26 0.085,0.352 0.042,0.185 0.061,0.269 0.061,0.269 0,0 -0.054,-0.143 -0.142,-0.374 C 7.46,12.669 7.348,12.348 7.196,12.003 6.91,11.308 6.569,10.483 6.352,9.957 6.247,9.692 6.148,9.418 6.028,9.128 5.997,9.056 5.966,8.983 5.934,8.908 5.899,8.835 5.86,8.761 5.821,8.685 5.741,8.535 5.653,8.38 5.554,8.219 5.455,8.059 5.344,7.894 5.219,7.724 5.157,7.639 5.091,7.552 5.021,7.464 4.985,7.421 4.949,7.377 4.913,7.332 4.873,7.289 4.833,7.245 4.792,7.2 4.462,6.847 4.061,6.473 3.569,6.084 3.102,5.734 2.478,5.518 1.797,5.354 1.626,5.313 1.454,5.274 1.273,5.24 1.092,5.207 0.907,5.177 0.721,5.146 0.35,5.086 -0.028,5.029 -0.402,4.964 -1.141,4.828 -1.908,4.691 -2.575,4.418 -2.744,4.351 -2.903,4.273 -3.065,4.192 -3.228,4.111 -3.385,4.021 -3.535,3.919 -3.686,3.818 -3.83,3.705 -3.966,3.579 -4.034,3.516 -4.101,3.45 -4.166,3.38 -4.229,3.309 -4.293,3.236 -4.359,3.163 -4.602,2.882 -4.92,2.515 -5.261,2.121 -5.62,1.745 -6.002,1.343 -6.353,0.975 -6.72,0.625 -7.054,0.306 -7.297,0.075 -7.357,0.018 -7.412,-0.034 -7.46,-0.08 c -0.051,-0.044 -0.094,-0.081 -0.129,-0.112 -0.071,-0.061 -0.11,-0.095 -0.11,-0.095 0,0 0.079,-0.028 0.222,-0.078 0.142,-0.046 0.354,-0.117 0.608,-0.184 0.511,-0.138 1.227,-0.299 2.041,-0.393 0.411,-0.051 0.831,-0.07 1.262,-0.066 0.431,0.005 0.87,0.036 1.301,0.101 0.218,0.031 0.425,0.078 0.628,0.134 0.203,0.055 0.402,0.12 0.594,0.195 0.192,0.075 0.377,0.16 0.553,0.255 0.175,0.096 0.344,0.2 0.49,0.323" />
        </g>
        <g
           transform="translate(107.2531,503.6344)"
           id="g150">
          <path
             id="path152"
             style="fill:#c51f30;fill-opacity:1;fill-rule:nonzero;stroke:none"
             d="m 0,0 c 0.237,0.316 0.465,0.726 0.684,1.186 0.053,0.115 0.113,0.231 0.16,0.354 0.048,0.124 0.096,0.249 0.145,0.375 0.096,0.254 0.19,0.515 0.282,0.777 0.195,0.522 0.338,1.068 0.502,1.572 0.079,0.254 0.163,0.497 0.241,0.73 0.073,0.234 0.149,0.455 0.228,0.658 0.149,0.383 0.305,0.7 0.462,0.989 0.147,0.292 0.293,0.557 0.438,0.832 0.144,0.275 0.285,0.561 0.417,0.897 0.12,0.338 0.223,0.727 0.308,1.202 0.041,0.234 0.081,0.459 0.118,0.675 0.031,0.217 0.055,0.426 0.08,0.625 0.046,0.399 0.089,0.763 0.127,1.093 0.009,0.082 0.017,0.163 0.026,0.241 0.005,0.079 0.01,0.155 0.014,0.23 0.009,0.149 0.017,0.289 0.025,0.423 0.014,0.265 0.026,0.5 0.037,0.704 0.008,0.205 0.015,0.379 0.021,0.527 0.002,0.147 -0.002,0.267 -0.003,0.361 -0.005,0.188 -0.007,0.274 -0.007,0.274 0,0 -0.018,-0.151 -0.046,-0.395 C 4.252,14.269 4.245,14.202 4.236,14.13 4.225,14.058 4.214,13.982 4.201,13.901 4.177,13.74 4.15,13.563 4.122,13.377 4.066,13.006 4.007,12.6 3.956,12.217 3.888,11.835 3.829,11.475 3.793,11.193 3.757,10.911 3.728,10.621 3.682,10.312 3.624,10.004 3.549,9.676 3.435,9.317 3.378,9.137 3.311,8.95 3.231,8.755 3.191,8.657 3.151,8.557 3.1,8.456 3.049,8.354 2.995,8.251 2.936,8.145 2.701,7.723 2.408,7.263 2.018,6.768 1.644,6.317 1.096,5.956 0.474,5.634 0.168,5.47 -0.181,5.324 -0.525,5.176 -0.871,5.028 -1.223,4.882 -1.57,4.73 -1.744,4.653 -1.916,4.576 -2.085,4.495 -2.259,4.416 -2.433,4.335 -2.601,4.249 -2.938,4.079 -3.258,3.893 -3.551,3.681 -3.838,3.467 -4.123,3.237 -4.366,2.968 -4.488,2.834 -4.601,2.69 -4.703,2.535 -4.807,2.381 -4.893,2.211 -4.986,2.038 -5.156,1.708 -5.377,1.275 -5.615,0.811 -5.874,0.361 -6.151,-0.12 -6.405,-0.56 c -0.274,-0.428 -0.523,-0.816 -0.704,-1.098 -0.045,-0.07 -0.086,-0.134 -0.122,-0.19 -0.039,-0.054 -0.072,-0.101 -0.099,-0.139 -0.054,-0.076 -0.085,-0.119 -0.085,-0.119 0,0 0.084,-0.008 0.235,-0.022 0.149,-0.012 0.372,-0.031 0.635,-0.036 0.529,-0.012 1.262,0.001 2.076,0.102 0.201,0.026 0.415,0.054 0.619,0.095 0.206,0.04 0.414,0.086 0.623,0.14 0.417,0.106 0.837,0.241 1.24,0.407 0.1,0.042 0.201,0.084 0.298,0.131 0.095,0.047 0.188,0.096 0.281,0.148 0.184,0.102 0.362,0.213 0.531,0.331 0.168,0.119 0.328,0.245 0.476,0.38 C -0.255,-0.295 -0.112,-0.155 0,0" />
        </g>
        <g
           transform="translate(110.111,512.1366)"
           id="g154">
          <path
             id="path156"
             style="fill:#c51f30;fill-opacity:1;fill-rule:nonzero;stroke:none"
             d="m 0,0 c 0.157,0.363 0.274,0.816 0.376,1.315 0.025,0.125 0.049,0.253 0.072,0.383 0.011,0.065 0.023,0.13 0.032,0.197 0.008,0.066 0.016,0.133 0.024,0.2 0.03,0.269 0.057,0.545 0.082,0.822 0.024,0.277 0.048,0.555 0.072,0.83 0.014,0.276 0.028,0.549 0.041,0.813 0.015,0.265 0.033,0.521 0.056,0.765 0.012,0.122 0.026,0.241 0.039,0.356 0.009,0.116 0.02,0.227 0.034,0.335 0.05,0.406 0.122,0.75 0.204,1.067 0.04,0.158 0.083,0.31 0.126,0.46 0.041,0.15 0.079,0.298 0.117,0.448 0.151,0.601 0.274,1.244 0.21,2.206 -0.132,1.897 -0.367,3.177 -0.528,3.98 -0.165,0.804 -0.263,1.136 -0.263,1.136 0,0 0.073,-0.608 0.142,-1.356 C 0.908,13.208 0.971,12.319 1.032,11.754 1.091,11.189 1.181,10.598 1.125,9.848 1.113,9.66 1.088,9.463 1.055,9.255 1.022,9.046 0.975,8.827 0.913,8.594 0.792,8.13 0.613,7.615 0.335,7.044 0.21,6.781 0.037,6.53 -0.171,6.287 -0.274,6.166 -0.386,6.046 -0.505,5.928 -0.564,5.869 -0.625,5.811 -0.688,5.753 -0.752,5.694 -0.82,5.637 -0.888,5.579 -1.432,5.119 -2.056,4.677 -2.653,4.215 -3.263,3.754 -3.866,3.276 -4.326,2.724 -4.562,2.449 -4.785,2.158 -4.952,1.838 -5.126,1.519 -5.237,1.169 -5.334,0.787 -5.376,0.606 -5.424,0.397 -5.477,0.17 -5.503,0.057 -5.53,-0.062 -5.558,-0.183 -5.586,-0.304 -5.612,-0.43 -5.651,-0.554 -5.722,-0.804 -5.795,-1.063 -5.868,-1.32 -5.905,-1.448 -5.941,-1.577 -5.977,-1.703 -6.013,-1.83 -6.047,-1.955 -6.09,-2.075 -6.252,-2.556 -6.4,-2.993 -6.508,-3.311 -6.558,-3.47 -6.615,-3.594 -6.647,-3.682 -6.681,-3.769 -6.7,-3.817 -6.7,-3.817 c 0,0 0.334,0.04 0.86,0.15 0.516,0.114 1.224,0.302 1.989,0.595 0.191,0.074 0.386,0.153 0.582,0.239 0.191,0.088 0.381,0.184 0.571,0.286 0.379,0.203 0.753,0.435 1.104,0.693 0.356,0.256 0.664,0.546 0.934,0.858 C -0.391,-0.685 -0.164,-0.351 0,0" />
        </g>
        <g
           transform="translate(85.7484,496.5758)"
           id="g162">
          <path
             id="path164"
             style="fill:#c51f30;fill-opacity:1;fill-rule:nonzero;stroke:none"
             d="m 0,0 c -0.393,-0.38 -0.666,-1.013 -0.916,-1.697 -0.121,-0.348 -0.229,-0.723 -0.327,-1.107 -0.1,-0.381 -0.197,-0.755 -0.281,-1.13 -0.085,-0.372 -0.162,-0.736 -0.23,-1.073 -0.067,-0.335 -0.128,-0.639 -0.179,-0.895 -0.102,-0.512 -0.156,-0.842 -0.156,-0.842 0,0 0.193,0.066 0.506,0.171 0.157,0.049 0.337,0.128 0.54,0.206 0.203,0.08 0.425,0.167 0.658,0.259 0.928,0.374 1.999,0.882 2.645,1.226 0.172,0.089 0.332,0.188 0.478,0.296 0.143,0.117 0.273,0.241 0.391,0.373 0.237,0.265 0.426,0.558 0.578,0.87 0.289,0.644 0.422,1.36 0.485,2.065 0.05,0.723 0.032,1.434 0.039,2.062 0.003,0.158 0.005,0.312 0.008,0.462 0.003,0.151 0.01,0.295 0.022,0.432 0.024,0.274 0.067,0.519 0.142,0.73 0.085,0.227 0.163,0.436 0.236,0.631 0.075,0.192 0.151,0.365 0.228,0.52 0.077,0.155 0.156,0.293 0.234,0.418 0.074,0.13 0.148,0.247 0.223,0.353 0.151,0.212 0.304,0.381 0.456,0.53 0.038,0.037 0.075,0.073 0.112,0.109 0.036,0.037 0.071,0.074 0.106,0.11 0.069,0.072 0.137,0.142 0.205,0.211 0.133,0.14 0.294,0.329 0.461,0.532 0.161,0.207 0.317,0.44 0.463,0.647 0.072,0.105 0.141,0.204 0.203,0.295 0.031,0.045 0.061,0.088 0.088,0.128 0.025,0.042 0.049,0.081 0.07,0.117 0.085,0.143 0.138,0.232 0.138,0.232 0,0 -0.039,-0.042 -0.125,-0.135 C 7.458,7.059 7.407,6.998 7.34,6.925 7.271,6.854 7.19,6.77 7.095,6.671 6.72,6.272 6.142,5.629 5.221,4.759 4.766,4.307 4.526,3.94 4.321,3.55 4.27,3.452 4.219,3.355 4.168,3.257 4.117,3.158 4.056,3.067 3.993,2.97 3.867,2.777 3.717,2.579 3.517,2.371 3.464,2.316 3.408,2.261 3.348,2.206 3.287,2.153 3.22,2.102 3.152,2.05 3.015,1.947 2.868,1.844 2.714,1.741 2.56,1.639 2.404,1.53 2.237,1.434 2.069,1.339 1.899,1.243 1.731,1.148 1.563,1.052 1.397,0.955 1.236,0.856 1.072,0.764 0.911,0.676 0.761,0.582 0.611,0.489 0.471,0.394 0.344,0.295 0.28,0.246 0.22,0.196 0.163,0.145 0.105,0.097 0.05,0.049 0,0" />
        </g>
        <g
           transform="translate(90.8947,500.1696)"
           id="g166">
          <path
             id="path168"
             style="fill:#c51f30;fill-opacity:1;fill-rule:nonzero;stroke:none"
             d="m 0,0 c -0.291,-0.465 -0.409,-1.143 -0.488,-1.868 -0.035,-0.368 -0.051,-0.758 -0.056,-1.155 -0.009,-0.39 -0.011,-0.78 -0.005,-1.163 0.012,-0.765 0.051,-1.494 0.071,-2.009 0.023,-0.522 0.049,-0.856 0.049,-0.856 0,0 0.173,0.111 0.45,0.289 0.069,0.045 0.147,0.091 0.226,0.147 0.079,0.056 0.163,0.116 0.252,0.179 0.177,0.126 0.372,0.264 0.575,0.41 0.103,0.072 0.207,0.146 0.313,0.221 0.106,0.074 0.206,0.16 0.31,0.24 0.207,0.163 0.416,0.326 0.617,0.484 0.101,0.08 0.2,0.158 0.296,0.233 0.096,0.078 0.184,0.158 0.272,0.233 0.173,0.15 0.333,0.288 0.471,0.408 0.147,0.127 0.278,0.261 0.394,0.401 0.112,0.146 0.208,0.299 0.292,0.455 0.167,0.313 0.282,0.643 0.355,0.982 0.13,0.694 0.089,1.422 -0.017,2.121 C 4.255,0.467 4.07,1.153 3.929,1.765 3.894,1.92 3.86,2.07 3.827,2.216 3.795,2.363 3.768,2.505 3.747,2.641 3.705,2.913 3.689,3.162 3.712,3.384 3.74,3.624 3.767,3.846 3.792,4.052 3.819,4.258 3.852,4.443 3.891,4.612 3.929,4.781 3.972,4.933 4.019,5.073 4.06,5.216 4.104,5.348 4.152,5.468 4.248,5.71 4.357,5.91 4.468,6.09 c 0.029,0.045 0.057,0.089 0.084,0.132 0.026,0.045 0.052,0.089 0.077,0.132 0.05,0.086 0.099,0.17 0.148,0.253 0.096,0.168 0.208,0.389 0.321,0.625 0.11,0.239 0.204,0.502 0.297,0.738 0.044,0.118 0.087,0.231 0.126,0.333 0.039,0.103 0.074,0.195 0.096,0.275 0.048,0.16 0.078,0.258 0.078,0.258 0,0 -0.028,-0.051 -0.088,-0.161 C 5.576,8.62 5.543,8.547 5.492,8.463 5.442,8.377 5.383,8.276 5.315,8.158 5.047,7.682 4.638,6.923 3.951,5.861 3.616,5.314 3.468,4.901 3.363,4.474 3.336,4.367 3.31,4.261 3.283,4.153 3.256,4.045 3.219,3.942 3.181,3.833 3.103,3.616 3.005,3.388 2.86,3.139 2.821,3.073 2.779,3.006 2.735,2.938 2.687,2.872 2.635,2.807 2.581,2.741 2.472,2.608 2.353,2.473 2.228,2.337 2.102,2.201 1.976,2.058 1.837,1.925 1.696,1.793 1.554,1.659 1.412,1.526 1.272,1.393 1.133,1.26 1.001,1.126 0.862,0.999 0.727,0.873 0.603,0.747 0.479,0.621 0.365,0.495 0.265,0.368 0.215,0.306 0.169,0.241 0.125,0.18 0.079,0.12 0.037,0.06 0,0" />
        </g>
        <g
           transform="translate(95.0481,504.8811)"
           id="g170">
          <path
             id="path172"
             style="fill:#c51f30;fill-opacity:1;fill-rule:nonzero;stroke:none"
             d="m 0,0 c -0.173,-0.521 -0.127,-1.206 -0.033,-1.93 0.053,-0.366 0.13,-0.749 0.219,-1.135 0.083,-0.381 0.173,-0.761 0.27,-1.133 0.193,-0.74 0.402,-1.438 0.543,-1.935 0.147,-0.501 0.251,-0.819 0.251,-0.819 0,0 0.141,0.148 0.369,0.386 0.056,0.061 0.12,0.124 0.185,0.197 0.063,0.073 0.131,0.151 0.202,0.233 0.142,0.164 0.299,0.345 0.463,0.534 0.082,0.095 0.165,0.192 0.25,0.29 0.086,0.097 0.163,0.204 0.246,0.306 0.163,0.207 0.326,0.415 0.485,0.617 0.079,0.1 0.157,0.2 0.232,0.296 0.075,0.097 0.142,0.197 0.209,0.29 0.133,0.187 0.256,0.359 0.362,0.508 0.112,0.158 0.208,0.319 0.288,0.483 0.075,0.167 0.131,0.339 0.176,0.511 0.088,0.343 0.121,0.692 0.112,1.038 C 4.792,-0.559 4.577,0.14 4.31,0.793 4.023,1.458 3.679,2.081 3.396,2.642 3.259,2.921 3.115,3.195 3.011,3.448 2.906,3.702 2.83,3.94 2.8,4.161 2.784,4.281 2.77,4.396 2.758,4.506 2.745,4.617 2.732,4.724 2.719,4.827 2.697,5.033 2.684,5.221 2.68,5.394 2.677,5.567 2.682,5.725 2.694,5.872 2.706,6.018 2.712,6.158 2.731,6.286 2.765,6.543 2.822,6.763 2.887,6.965 2.917,7.066 2.957,7.161 2.983,7.257 3.011,7.353 3.038,7.446 3.065,7.539 3.117,7.724 3.171,7.965 3.224,8.222 3.237,8.286 3.25,8.351 3.263,8.417 l 0.027,0.2 C 3.306,8.749 3.322,8.882 3.338,9.008 3.366,9.259 3.392,9.486 3.41,9.651 3.419,9.733 3.418,9.801 3.421,9.848 3.423,9.894 3.424,9.92 3.424,9.92 3.424,9.92 3.41,9.864 3.379,9.742 3.346,9.62 3.286,9.435 3.214,9.171 3.179,9.04 3.138,8.889 3.092,8.718 3.069,8.632 3.049,8.54 3.02,8.445 2.99,8.351 2.959,8.251 2.926,8.145 2.861,7.935 2.791,7.702 2.717,7.446 2.698,7.382 2.682,7.315 2.658,7.25 2.635,7.184 2.612,7.117 2.588,7.048 2.541,6.911 2.492,6.768 2.441,6.618 2.389,6.467 2.351,6.325 2.323,6.191 2.31,6.123 2.296,6.059 2.281,5.997 2.268,5.934 2.257,5.873 2.247,5.813 2.21,5.574 2.203,5.354 2.202,5.134 c 0,-0.11 0,-0.219 0,-0.329 C 2.197,4.695 2.189,4.585 2.177,4.471 2.154,4.242 2.113,3.997 2.032,3.721 2.01,3.648 1.987,3.572 1.958,3.497 1.926,3.423 1.892,3.346 1.855,3.269 1.781,3.115 1.698,2.956 1.61,2.794 1.565,2.713 1.519,2.631 1.473,2.548 1.427,2.466 1.381,2.382 1.327,2.302 1.222,2.141 1.115,1.977 1.01,1.815 0.905,1.653 0.802,1.49 0.706,1.329 0.6,1.173 0.499,1.019 0.409,0.867 0.319,0.716 0.238,0.566 0.17,0.42 0.136,0.347 0.107,0.274 0.078,0.204 0.048,0.135 0.022,0.067 0,0" />
        </g>
        <g
           transform="translate(97.9592,510.434)"
           id="g174">
          <path
             id="path176"
             style="fill:#c51f30;fill-opacity:1;fill-rule:nonzero;stroke:none"
             d="m 0,0 c -0.02,-0.274 0.019,-0.572 0.101,-0.89 0.021,-0.08 0.044,-0.16 0.07,-0.242 0.022,-0.08 0.047,-0.162 0.073,-0.244 0.054,-0.165 0.116,-0.333 0.186,-0.504 0.138,-0.342 0.304,-0.696 0.484,-1.05 0.167,-0.349 0.348,-0.698 0.53,-1.035 0.182,-0.337 0.364,-0.662 0.535,-0.96 0.169,-0.296 0.322,-0.564 0.451,-0.791 0.262,-0.452 0.438,-0.736 0.438,-0.736 0,0 0.102,0.177 0.267,0.463 0.041,0.071 0.085,0.15 0.134,0.234 0.044,0.086 0.091,0.178 0.14,0.275 0.1,0.193 0.208,0.406 0.323,0.629 0.238,0.44 0.45,0.944 0.664,1.41 0.221,0.463 0.382,0.915 0.52,1.254 0.071,0.18 0.125,0.36 0.164,0.538 0.039,0.178 0.047,0.36 0.051,0.537 C 5.134,-0.757 5.082,-0.41 4.99,-0.076 4.946,0.09 4.882,0.256 4.81,0.42 4.739,0.583 4.659,0.742 4.573,0.899 4.401,1.211 4.203,1.511 3.994,1.796 3.123,2.951 2.073,3.873 1.722,4.704 1.63,4.93 1.559,5.137 1.491,5.331 1.418,5.526 1.36,5.706 1.313,5.873 1.267,6.041 1.232,6.196 1.208,6.342 1.181,6.488 1.174,6.623 1.154,6.753 1.09,7.27 1.161,7.668 1.182,8.055 1.185,8.248 1.177,8.497 1.164,8.76 1.149,9.024 1.136,9.302 1.101,9.555 1.073,9.808 1.035,10.036 1.012,10.2 c -0.029,0.164 -0.046,0.266 -0.046,0.266 0,0 -0.01,-0.232 -0.023,-0.781 C 0.936,9.548 0.937,9.391 0.926,9.213 0.915,9.035 0.905,8.836 0.895,8.614 0.89,8.503 0.885,8.387 0.88,8.265 0.878,8.204 0.876,8.141 0.874,8.077 0.873,8.045 0.872,8.013 0.871,7.98 0.868,7.947 0.865,7.914 0.862,7.881 0.837,7.614 0.813,7.324 0.79,7.008 0.775,6.687 0.765,6.42 0.79,6.178 0.814,5.936 0.861,5.72 0.914,5.506 0.927,5.453 0.942,5.399 0.954,5.346 0.964,5.293 0.975,5.24 0.986,5.187 1.007,5.08 1.027,4.97 1.043,4.856 1.077,4.628 1.098,4.38 1.088,4.092 1.034,3.489 0.813,2.726 0.547,2 0.483,1.817 0.43,1.633 0.366,1.456 0.301,1.28 0.241,1.107 0.19,0.938 0.088,0.601 0.028,0.279 0,0" />
        </g>
        <g
           transform="translate(99.4562,516.5178)"
           id="g178">
          <path
             id="path180"
             style="fill:#c51f30;fill-opacity:1;fill-rule:nonzero;stroke:none"
             d="m 0,0 c 0.048,-0.271 0.16,-0.553 0.319,-0.842 0.143,-0.288 0.331,-0.583 0.55,-0.883 0.109,-0.149 0.226,-0.301 0.347,-0.451 0.123,-0.15 0.247,-0.301 0.371,-0.452 0.247,-0.298 0.508,-0.594 0.766,-0.878 0.258,-0.284 0.514,-0.556 0.752,-0.805 0.229,-0.247 0.441,-0.47 0.623,-0.658 0.363,-0.378 0.603,-0.612 0.603,-0.612 0,0 0.056,0.197 0.146,0.514 0.099,0.315 0.195,0.76 0.308,1.247 0.054,0.244 0.12,0.498 0.17,0.757 0.046,0.259 0.092,0.52 0.137,0.772 0.045,0.252 0.091,0.496 0.128,0.722 0.029,0.228 0.055,0.438 0.078,0.62 0.025,0.192 0.033,0.379 0.026,0.562 C 5.316,-0.204 5.302,-0.028 5.255,0.146 5.17,0.491 5.034,0.816 4.862,1.119 4.776,1.27 4.68,1.416 4.578,1.557 4.476,1.698 4.353,1.835 4.233,1.967 3.988,2.23 3.722,2.474 3.448,2.702 2.905,3.159 2.314,3.553 1.794,3.921 1.536,4.105 1.296,4.283 1.085,4.46 0.878,4.637 0.7,4.814 0.568,4.996 c -0.572,0.793 -0.872,1.367 -1.041,1.858 -0.171,0.489 -0.205,0.89 -0.28,1.269 -0.073,0.378 -0.254,0.957 -0.433,1.431 -0.091,0.237 -0.174,0.45 -0.241,0.603 -0.065,0.152 -0.105,0.247 -0.105,0.247 0,0 0.011,-0.057 0.035,-0.181 0.027,-0.123 0.068,-0.313 0.125,-0.581 0.114,-0.534 0.3,-1.376 0.49,-2.626 0.094,-0.632 0.274,-1.038 0.47,-1.43 C -0.221,5.195 -0.011,4.818 0.088,4.25 0.142,3.95 0.154,3.599 0.146,3.228 0.126,2.857 0.089,2.466 0.062,2.078 0.053,1.885 0.025,1.694 0.006,1.506 -0.014,1.319 -0.028,1.135 -0.035,0.958 -0.045,0.782 -0.037,0.61 -0.037,0.451 -0.036,0.29 -0.025,0.14 0,0" />
        </g>
      </g>
      <g
         id="g9538">
        <g
           transform="matrix(0.43260433,0,0,-0.43260433,66.091737,174.28745)"
           id="g204">
          <path
             id="path206"
             style="fill:#ffffff;fill-opacity:1;fill-rule:nonzero;stroke:none"
             d="M 0,0 0.894,-0.297 0.51,-1.454 3.661,-2.499 3.309,-3.559 0.158,-2.514 -0.224,-3.665 -1.118,-3.369 Z" />
        </g>
        <g
           id="g208"
           transform="matrix(0.43260433,0,0,-0.43260433,47.558103,404.33163)">
          <g
             clip-path="url(#clipPath214)"
             id="g210">
            <g
               transform="translate(43.4436,533.8555)"
               id="g216">
              <path
                 id="path218"
                 style="fill:#ffffff;fill-opacity:1;fill-rule:nonzero;stroke:none"
                 d="M 0,0 -0.801,0.409 -0.398,1.199 0.403,0.79 Z M 0.538,1.054 -0.263,1.462 0.14,2.253 0.941,1.844 Z m 3.026,-3.246 c -0.449,-0.163 -0.97,-0.094 -1.567,0.21 l -2.112,1.079 0.507,0.994 2.172,-1.108 c 0.57,-0.291 0.973,-0.206 1.209,0.257 0.236,0.462 0.069,0.839 -0.501,1.13 L 1.1,1.478 1.613,2.484 3.726,1.405 C 4.979,0.766 5.108,-0.256 4.628,-1.196 4.373,-1.696 4.019,-2.031 3.564,-2.192" />
            </g>
            <g
               transform="translate(51.4678,538.0739)"
               id="g220">
              <path
                 id="path222"
                 style="fill:#ffffff;fill-opacity:1;fill-rule:nonzero;stroke:none"
                 d="m 0,0 -0.756,-1.033 -1.47,0.373 -0.346,-0.473 1.135,-0.83 -0.648,-0.887 -3.439,2.517 1.051,1.437 C -3.817,2 -3.154,2.211 -2.35,1.623 -1.868,1.27 -1.665,0.852 -1.742,0.369 Z m -4.121,0.001 0.785,-0.574 0.456,0.624 c 0.175,0.238 0.129,0.452 -0.134,0.644 -0.259,0.189 -0.479,0.163 -0.654,-0.075 z" />
            </g>
          </g>
        </g>
        <g
           transform="matrix(0.43260433,0,0,-0.43260433,70.751622,170.59923)"
           id="g224">
          <path
             id="path226"
             style="fill:#ffffff;fill-opacity:1;fill-rule:nonzero;stroke:none"
             d="m 0,0 -1.863,0.547 0.126,-0.507 0.895,-0.888 -0.769,-0.776 -3.025,3.002 0.769,0.775 1.162,-1.152 -0.379,1.94 0.973,0.982 0.227,-2.309 2.802,-0.689 z" />
        </g>
        <g
           transform="matrix(0.43260433,0,0,-0.43260433,70.090343,168.46177)"
           id="g228">
          <path
             id="path230"
             style="fill:#ffffff;fill-opacity:1;fill-rule:nonzero;stroke:none"
             d="M 0,0 -0.519,0.644 0.463,1.435 0.982,0.792 Z m 3.007,-3.616 -2.674,3.318 0.869,0.701 2.675,-3.318 z" />
        </g>
        <g
           transform="matrix(0.43260433,0,0,-0.43260433,71.918615,167.38038)"
           id="g232">
          <path
             id="path234"
             style="fill:#ffffff;fill-opacity:1;fill-rule:nonzero;stroke:none"
             d="m 0,0 0.96,0.617 0.411,-3.073 0.787,-1.223 -0.944,-0.608 -0.787,1.224 -2.626,1.649 1.001,0.643 1.54,-1.112 z" />
        </g>
        <g
           transform="matrix(0.43260433,0,0,-0.43260433,74.062948,166.29361)"
           id="g236">
          <path
             id="path238"
             style="fill:#ffffff;fill-opacity:1;fill-rule:nonzero;stroke:none"
             d="m 0,0 0.388,-0.851 -1.922,-0.876 0.283,-0.621 1.785,0.813 0.395,-0.867 -1.785,-0.814 0.31,-0.681 1.961,0.894 0.39,-0.857 -2.977,-1.356 -1.766,3.877 z" />
        </g>
        <g
           transform="matrix(0.43260433,0,0,-0.43260433,76.673542,165.35766)"
           id="g240">
          <path
             id="path242"
             style="fill:#ffffff;fill-opacity:1;fill-rule:nonzero;stroke:none"
             d="M 0,0 -0.136,0.816 1.109,1.023 1.245,0.207 Z m 0.843,-4.627 -0.699,4.204 1.101,0.183 0.7,-4.204 z" />
        </g>
        <g
           id="g244"
           transform="matrix(0.43260433,0,0,-0.43260433,47.558103,404.33163)">
          <g
             clip-path="url(#clipPath250)"
             id="g246">
            <g
               transform="translate(72.016,548.1486)"
               id="g252">
              <path
                 id="path254"
                 style="fill:#ffffff;fill-opacity:1;fill-rule:nonzero;stroke:none"
                 d="m 0,0 -0.017,-0.116 c 0.121,-0.011 0.228,-0.071 0.312,-0.169 0.091,-0.109 0.141,-0.239 0.15,-0.402 0.02,-0.337 -0.257,-0.661 -0.721,-0.688 -0.247,-0.014 -0.437,0.035 -0.565,0.148 l 0.088,0.464 c 0.039,-0.052 0.125,-0.071 0.251,-0.063 0.103,0.005 0.154,0.057 0.149,0.147 -0.008,0.126 -0.16,0.142 -0.19,0.14 -0.114,-0.007 -0.186,-0.017 -0.21,-0.024 l -0.022,0.282 0.021,0.249 C -1.276,0.004 -1.707,0.135 -2.041,0.364 L -1.716,1.21 C -1.415,1.034 -0.881,0.891 -0.405,0.919 -0.013,0.941 0.18,1.055 0.168,1.26 0.151,1.44 0.013,1.529 -0.208,1.588 c -0.135,0.035 -0.19,0.043 -0.361,0.07 -0.085,0.013 -0.146,0.021 -0.189,0.031 -0.367,0.069 -0.62,0.157 -0.897,0.34 -0.277,0.183 -0.44,0.493 -0.464,0.909 -0.027,0.463 0.115,0.822 0.433,1.064 0.312,0.242 0.721,0.38 1.221,0.409 C 0.126,4.446 0.658,4.338 1.132,4.088 L 0.826,3.231 C 0.386,3.405 -0.029,3.477 -0.433,3.453 -0.806,3.431 -0.986,3.306 -0.973,3.083 -0.964,2.927 -0.838,2.844 -0.599,2.785 -0.464,2.751 -0.396,2.737 -0.207,2.699 -0.115,2.681 -0.036,2.667 0.032,2.653 0.295,2.596 0.448,2.557 0.698,2.426 0.817,2.361 0.918,2.288 1.001,2.208 1.156,2.042 1.293,1.755 1.314,1.412 1.361,0.611 0.833,0.127 0,0" />
            </g>
            <g
               transform="translate(77.2438,549.3525)"
               id="g256">
              <path
                 id="path258"
                 style="fill:#ffffff;fill-opacity:1;fill-rule:nonzero;stroke:none"
                 d="M 0,0 0.522,-0.71 C 0.158,-1.067 -0.377,-1.313 -0.941,-1.32 l -0.042,-0.142 c 0.118,-0.028 0.215,-0.103 0.285,-0.212 0.074,-0.121 0.105,-0.257 0.091,-0.419 -0.028,-0.337 -0.348,-0.619 -0.812,-0.58 -0.246,0.021 -0.428,0.097 -0.538,0.227 l 0.153,0.448 c 0.032,-0.057 0.114,-0.089 0.24,-0.099 0.103,-0.009 0.161,0.034 0.168,0.125 0.011,0.126 -0.138,0.163 -0.168,0.165 -0.114,0.01 -0.187,0.01 -0.211,0.006 l 0.018,0.283 0.074,0.309 c -0.441,0.152 -0.787,0.43 -1.038,0.832 -0.251,0.403 -0.355,0.891 -0.307,1.462 0.059,0.704 0.362,1.278 0.783,1.606 0.415,0.322 0.931,0.479 1.46,0.434 C -0.135,3.07 0.453,2.718 0.777,2.248 L 0.155,1.629 C -0.126,1.955 -0.426,2.132 -0.733,2.158 -1.034,2.183 -1.29,2.089 -1.502,1.877 -1.719,1.665 -1.841,1.367 -1.874,0.976 -1.907,0.591 -1.836,0.276 -1.663,0.037 -1.495,-0.207 -1.264,-0.342 -0.97,-0.367 -0.651,-0.393 -0.332,-0.269 0,0" />
            </g>
          </g>
        </g>
        <g
           transform="matrix(0.43260433,0,0,-0.43260433,81.484363,167.34107)"
           id="g260">
          <path
             id="path262"
             style="fill:#ffffff;fill-opacity:1;fill-rule:nonzero;stroke:none"
             d="M 0,0 0.827,4.18 1.923,3.964 1.096,-0.217 Z M 0.842,4.627 1.003,5.438 2.24,5.193 2.079,4.382 Z" />
        </g>
        <g
           id="g264"
           transform="matrix(0.43260433,0,0,-0.43260433,47.558103,404.33163)">
          <g
             clip-path="url(#clipPath270)"
             id="g266">
            <g
               transform="translate(88.0616,549.0717)"
               id="g272">
              <path
                 id="path274"
                 style="fill:#ffffff;fill-opacity:1;fill-rule:nonzero;stroke:none"
                 d="M 0,0 C 0.952,-0.471 1.22,-1.168 0.8,-2.018 0.367,-2.894 -0.358,-3.081 -1.381,-2.576 l -0.519,0.257 -0.594,-1.201 -1.001,0.494 1.888,3.82 z m -0.931,-1.748 c 0.324,-0.16 0.516,-0.1 0.687,0.246 0.171,0.346 0.094,0.532 -0.235,0.695 l -0.541,0.268 -0.463,-0.936 z" />
            </g>
          </g>
        </g>
        <g
           transform="matrix(0.43260433,0,0,-0.43260433,86.580569,169.50881)"
           id="g276">
          <path
             id="path278"
             style="fill:#ffffff;fill-opacity:1;fill-rule:nonzero;stroke:none"
             d="M 0,0 0.264,0.814 -0.771,1.523 -1.439,0.985 -2.416,1.654 1.187,4.351 2.228,3.639 1.016,-0.696 Z M -0.116,2.149 0.601,1.658 1.073,3.106 Z" />
        </g>
        <g
           id="g280"
           transform="matrix(0.43260433,0,0,-0.43260433,47.558103,404.33163)">
          <g
             clip-path="url(#clipPath286)"
             id="g282">
            <g
               transform="translate(94.28,539.2654)"
               id="g288">
              <path
                 id="path290"
                 style="fill:#ffffff;fill-opacity:1;fill-rule:nonzero;stroke:none"
                 d="M 0,0 -0.933,0.876 -0.384,2.289 -0.811,2.69 -1.773,1.665 -2.575,2.417 0.342,5.523 1.641,4.305 C 2.45,3.545 2.579,2.861 1.897,2.135 1.488,1.699 1.049,1.549 0.579,1.683 Z M 0.503,4.09 -0.162,3.381 0.401,2.852 C 0.617,2.65 0.834,2.67 1.057,2.907 1.276,3.14 1.277,3.362 1.062,3.565 Z" />
            </g>
          </g>
        </g>
        <g
           transform="matrix(0.43260433,0,0,-0.43260433,90.889698,171.25774)"
           id="g292">
          <path
             id="path294"
             style="fill:#ffffff;fill-opacity:1;fill-rule:nonzero;stroke:none"
             d="m 0,0 -0.736,-0.587 -0.761,0.953 -2.595,-2.07 -0.696,0.873 2.595,2.07 -0.756,0.948 0.736,0.587 z" />
        </g>
        <g
           transform="matrix(0.43260433,0,0,-0.43260433,89.603954,172.67262)"
           id="g296">
          <path
             id="path298"
             style="fill:#ffffff;fill-opacity:1;fill-rule:nonzero;stroke:none"
             d="M 0,0 3.595,2.288 4.195,1.346 0.599,-0.942 Z M 3.928,2.586 4.625,3.03 5.303,1.966 4.605,1.522 Z" />
        </g>
        <g
           id="g300"
           transform="matrix(0.43260433,0,0,-0.43260433,47.558103,404.33163)">
          <g
             clip-path="url(#clipPath306)"
             id="g302">
            <g
               transform="translate(98.6138,534.0493)"
               id="g308">
              <path
                 id="path310"
                 style="fill:#ffffff;fill-opacity:1;fill-rule:nonzero;stroke:none"
                 d="M 0,0 0.907,0.03 C 0.862,-0.316 0.936,-0.864 1.147,-1.292 1.32,-1.644 1.5,-1.777 1.685,-1.687 1.844,-1.601 1.872,-1.44 1.841,-1.213 1.821,-1.075 1.807,-1.021 1.766,-0.853 1.744,-0.769 1.728,-0.71 1.721,-0.667 1.642,-0.302 1.625,-0.034 1.686,0.292 1.748,0.618 1.971,0.889 2.344,1.073 2.761,1.278 3.147,1.287 3.494,1.088 3.838,0.894 4.125,0.571 4.346,0.121 4.608,-0.409 4.715,-0.942 4.669,-1.476 L 3.759,-1.527 C 3.748,-1.055 3.654,-0.644 3.475,-0.281 3.31,0.055 3.124,0.172 2.924,0.074 2.783,0.004 2.755,-0.144 2.794,-0.387 2.815,-0.525 2.828,-0.592 2.867,-0.782 2.885,-0.874 2.904,-0.952 2.917,-1.02 2.967,-1.284 2.99,-1.441 2.967,-1.722 2.952,-1.857 2.924,-1.978 2.883,-2.086 2.79,-2.293 2.578,-2.532 2.269,-2.684 1.863,-2.884 1.491,-2.892 1.149,-2.704 0.807,-2.515 0.523,-2.198 0.302,-1.748 0.014,-1.163 -0.092,-0.483 0,0" />
            </g>
          </g>
        </g>
        <g
           transform="matrix(0.43260433,0,0,-0.43260433,90.837224,175.06037)"
           id="g312">
          <path
             id="path314"
             style="fill:#ffffff;fill-opacity:1;fill-rule:nonzero;stroke:none"
             d="M 0,0 4.007,1.45 4.387,0.4 0.38,-1.05 Z M 4.396,1.668 5.174,1.949 5.603,0.763 4.826,0.482 Z" />
        </g>
      </g>
      <g
         id="g863"
         transform="matrix(0.0023788,0,0,0.0023788,79.325262,179.31745)">
        <circle
           style="fill:#ffffff;fill-opacity:1;stroke:none;stroke-width:9.8;stroke-miterlimit:4;stroke-dasharray:none;stroke-opacity:1"
           id="circle4"
           fill="#fff"
           r="4500"
           cx="0"
           cy="0" />
        <path
           style="fill:#c51f30;fill-opacity:1"
           id="path6"
           d="m -1944,1560 v -4207 c -187,-12 -343,0 -441,29 -28,-61 144,-155 441,-245 v -810 h 438 v 700 c 1578,-327 4724,-344 4741,2384 11,1926 -3401,1632 -4390,2257 -1076,678 -593,2113 -593,2113 0,0 -651,-1344 -196,-2221 z m 438,-469 C -1044,777 -251,398 -98,-327 210,-1785 -717,-2390 -1506,-2580 Z" />
        <path
           inkscape:transform-center-y="-100.3877"
           inkscape:transform-center-x="0.15544413"
           d="M 2099.2982,-86.06874 1480.3102,-411.11261 861.6331,-85.477438 979.49039,-774.61408 478.6112,-1262.3842 l 691.8278,-100.866 309.1167,-627.0936 309.7158,626.798 691.9239,100.2049 -500.4129,488.24848 z"
           inkscape:randomized="0"
           inkscape:rounded="0"
           inkscape:flatsided="false"
           sodipodi:arg2="1.5703186"
           sodipodi:arg1="0.94200004"
           sodipodi:r2="526.41046"
           sodipodi:r1="1052.8209"
           sodipodi:cy="-937.52301"
           sodipodi:cx="1480.0587"
           sodipodi:sides="5"
           id="path821"
           style="opacity:1;vector-effect:none;fill:none;fill-opacity:1;fill-rule:nonzero;stroke:#ffffff;stroke-width:266.022;stroke-linecap:square;stroke-linejoin:miter;stroke-miterlimit:4;stroke-dasharray:none;stroke-dashoffset:0;stroke-opacity:1;paint-order:normal"
           sodipodi:type="star" />
      </g>
      <g
         id="g8516"
         transform="matrix(1.0216542,0,0,1.0216542,43.541172,12.09582)"
         style="fill:#c51f30;fill-opacity:1;stroke:#ffffff;stroke-width:0.232575;stroke-miterlimit:4;stroke-dasharray:none;stroke-opacity:1">
        <path
           d="m 40.032321,179.0452 c 0,0 2.804043,-1.05826 4.18035,-0.52948 1.304765,0.45856 0.422788,1.14672 0.211363,1.21694 -1.414586,0.68996 -3.563456,0.15951 -4.391713,-0.68746 z"
           id="path742"
           style="fill:#c51f30;fill-opacity:1;stroke:#ffffff;stroke-width:0.232575;stroke-miterlimit:4;stroke-dasharray:none;stroke-opacity:1"
           inkscape:connector-curvature="0"
           sodipodi:nodetypes="cccc" />
        <path
           d="m 38.990912,173.85921 2.275887,-0.75838 c 0,0 1.252081,-0.3701 1.657957,0.49434 0.455961,2.08474 0.995623,3.38876 1.834239,4.85027 -2.074772,-0.61998 -3.443725,0.0526 -5.643793,0.66992 0,0 -2.293428,0.79421 -5.238986,0.56456 -0.0035,-1.1e-4 -0.0069,-2.2e-4 -0.01042,-3.3e-4 -3.986614,-0.12973 -6.166512,-2.28808 -8.456341,-1.18153 -0.335275,0.0878 -0.123221,-0.17628 -0.123221,-0.17628 0,0 1.393219,-1.83424 1.48136,-2.85805 0.141139,-0.89958 0.159056,-1.78086 0.159056,-1.78086 0,0 0.529161,-0.8293 1.340536,-0.75907 0.811061,0.0709 2.39848,0.79421 2.821897,0.91781 0.423416,0.1236 2.628451,0.68815 4.868189,0.54632 2.240116,-0.14038 3.033637,-0.52872 3.033637,-0.52872 z"
           id="path744"
           style="fill:#c51f30;fill-opacity:1;stroke:#ffffff;stroke-width:0.232575;stroke-miterlimit:4;stroke-dasharray:none;stroke-opacity:1"
           inkscape:connector-curvature="0"
           sodipodi:nodetypes="ccccccscccccscc" />
        <path
           d="m 25.374378,178.70955 c 0,0 -0.599699,0.51193 0.123598,1.02311 1.374749,0.70152 3.196539,0.33565 4.374173,-0.61661 0,0 -1.922695,-0.74084 -2.927955,-0.74084 -1.005575,0 -1.569816,0.33434 -1.569816,0.33434 z"
           id="path746"
           style="fill:#c51f30;fill-opacity:1;stroke:#ffffff;stroke-width:0.232575;stroke-miterlimit:4;stroke-dasharray:none;stroke-opacity:1"
           inkscape:connector-curvature="0"
           sodipodi:nodetypes="cccsc" />
      </g>
      <text
         xml:space="preserve"
         id="text9341"
         style="font-style:normal;font-weight:normal;font-size:2.77348px;line-height:1.25;font-family:sans-serif;white-space:pre;fill:#ffffff;fill-opacity:1;stroke:none;stroke-width:1.21408"
         transform="matrix(0.75385694,0,0,0.72330339,19.43387,52.265028)"><textPath
           xlink:href="#path9358"
           startOffset="50%"
           id="textPath9391"><tspan
             style="font-style:normal;font-variant:normal;font-weight:bold;font-stretch:normal;font-family:Kollektif;-inkscape-font-specification:'Kollektif Bold';text-align:center;text-anchor:middle;fill:#ffffff;stroke-width:1.21408"
             id="tspan9345">KORSANLAR</tspan></textPath></text>
    </g>
  </g>
</svg>
