<?xml version="1.0" encoding="UTF-8" standalone="no"?>
<svg
   xmlns:dc="http://purl.org/dc/elements/1.1/"
   xmlns:cc="http://creativecommons.org/ns#"
   xmlns:rdf="http://www.w3.org/1999/02/22-rdf-syntax-ns#"
   xmlns:svg="http://www.w3.org/2000/svg"
   xmlns="http://www.w3.org/2000/svg"
   xmlns:sodipodi="http://sodipodi.sourceforge.net/DTD/sodipodi-0.dtd"
   xmlns:inkscape="http://www.inkscape.org/namespaces/inkscape"
   height="10000"
   width="30000"
   viewBox="-5000 -5000 30000 10000"
   version="1.1"
   id="svg8"
   sodipodi:docname="korsansohbetler-logo.svg"
   inkscape:version="1.0.2 (e86c870879, 2021-01-15)"
   inkscape:export-filename="/home/yutyo/git/kptr-git/artwork/logo/korsansohbetler-logo.png"
   inkscape:export-xdpi="6.4000001"
   inkscape:export-ydpi="6.4000001">
  <metadata
     id="metadata14">
    <rdf:RDF>
      <cc:Work
         rdf:about="">
        <dc:format>image/svg+xml</dc:format>
        <dc:type
           rdf:resource="http://purl.org/dc/dcmitype/StillImage" />
        <dc:title></dc:title>
      </cc:Work>
    </rdf:RDF>
  </metadata>
  <defs
     id="defs12">
    <rect
       x="-46.767128"
       y="165.44666"
       width="1090.873"
       height="506.2384"
       id="rect1498" />
    <rect
       x="-46.767128"
       y="165.44666"
       width="1090.873"
       height="506.2384"
       id="rect1606" />
  </defs>
  <sodipodi:namedview
     pagecolor="#ffffff"
     bordercolor="#666666"
     borderopacity="1"
     objecttolerance="10"
     gridtolerance="10"
     guidetolerance="10"
     inkscape:pageopacity="0"
     inkscape:pageshadow="2"
     inkscape:window-width="1366"
     inkscape:window-height="715"
     id="namedview10"
     showgrid="false"
     inkscape:zoom="0.020526726"
     inkscape:cx="4786.1677"
     inkscape:cy="6710.9874"
     inkscape:window-x="0"
     inkscape:window-y="25"
     inkscape:window-maximized="1"
     inkscape:current-layer="svg8"
     inkscape:document-rotation="0" />
  <rect
     style="fill:#000000;fill-opacity:1;stroke-width:6.49277;stroke-linecap:round;paint-order:stroke fill markers"
     id="rect154"
     width="30154.527"
     height="10218.042"
     x="-5109.021"
     y="-5109.021" />
  <text
     xml:space="preserve"
     id="text1496"
     style="font-style:normal;font-variant:normal;font-weight:normal;font-stretch:normal;font-size:10.5833px;line-height:1.05;font-family:'Open Sans';-inkscape-font-specification:'Open Sans';white-space:pre;shape-inside:url(#rect1498);fill:#ffffff;fill-opacity:1;stroke:none;"
     transform="matrix(243.79688,0,0,243.79688,16642.034,-43192.716)"><tspan
       x="-46.767578"
       y="174.9065"><tspan
         style="font-style:normal;font-variant:normal;font-weight:bold;font-stretch:normal;font-size:12.0339px;font-family:'Open Sans';-inkscape-font-specification:'Open Sans Bold';letter-spacing:0px">Korsan
</tspan></tspan><tspan
       x="-46.767578"
       y="187.54209"><tspan
         style="font-style:normal;font-variant:normal;font-weight:bold;font-stretch:normal;font-size:12.0339px;font-family:'Open Sans';-inkscape-font-specification:'Open Sans Bold';letter-spacing:0px">Sohbetler</tspan><tspan
         style="font-style:normal;font-variant:normal;font-weight:bold;font-stretch:normal;font-family:'Open Sans';-inkscape-font-specification:'Open Sans Bold';fill:#ffffff">
</tspan></tspan></text>
  <g
     id="g30"
     transform="matrix(12.789121,0,0,12.789121,-7074.6709,-5451.9139)">
    <g
       id="g1328"
       transform="matrix(0.24416975,0,0,0.24416975,133.89711,91.531135)"
       style="fill:#ffffff">
      <path
         d="m 1099,2305 c -50,-27 -58,-91 -17,-144 26,-35 22,-59 -18,-103 -32,-36 -35,-44 -32,-91 3,-46 7,-54 38,-75 44,-29 87,-25 137,15 62,50 94,63 160,63 115,0 379,-88 693,-232 325,-149 354,-168 414,-286 36,-68 55,-93 88,-115 50,-32 77,-34 106,-7 26,25 29,69 7,130 -8,23 -15,44 -15,46 0,1 16,19 35,40 40,42 44,70 15,107 -30,38 -81,52 -137,37 l -46,-11 -236,115 c -335,162 -447,208 -776,316 -168,56 -186,65 -246,134 -62,70 -117,90 -170,61 z"
         id="path1306"
         style="fill:#ffffff" />
      <path
         d="m 2621,2279 c -13,-5 -54,-38 -92,-73 -74,-70 -76,-71 -344,-146 -82,-23 -156,-46 -164,-50 -9,-5 8,-19 55,-44 111,-59 126,-61 237,-37 158,34 196,28 304,-49 62,-44 79,-48 124,-25 60,31 61,97 3,166 -19,22 -34,48 -34,57 1,10 14,33 30,52 48,56 40,109 -21,140 -42,22 -62,24 -98,9 z"
         id="path1308"
         style="fill:#ffffff" />
      <path
         d="m 1446,1775 -150,-75 -73,6 c -59,5 -77,4 -98,-10 -40,-26 -50,-57 -31,-95 9,-17 21,-31 26,-31 5,0 14,-9 20,-19 7,-15 5,-31 -10,-66 -27,-63 -26,-100 5,-130 56,-57 131,-18 188,97 29,59 48,85 80,106 43,30 316,170 375,192 17,7 32,17 32,22 0,15 -131,70 -175,75 -34,3 -63,-8 -189,-72 z"
         id="path1310"
         style="fill:#ffffff" />
    </g>
    <g
       id="g1490"
       transform="matrix(0.87695566,0,0,0.87695566,73.826617,26.856374)">
      <rect
         style="fill:#ffffff;stroke:none;stroke-width:28.2229;stroke-linecap:round;paint-order:stroke fill markers"
         id="rect1397"
         width="381.80051"
         height="236.38719"
         x="409.09973"
         y="191.85762"
         ry="37.738918" />
      <rect
         style="fill:#000000;stroke:none;stroke-width:21.8425;stroke-linecap:round;paint-order:stroke fill markers"
         id="rect1419"
         width="329.05054"
         height="160.00084"
         x="435.47473"
         y="219.68604"
         rx="0"
         ry="6.3164902" />
      <g
         id="g1468"
         transform="matrix(1.104053,0,0,1.104053,-92.4147,-31.183277)">
        <rect
           style="fill:#ffffff;stroke:none;stroke-width:10.6674;stroke-linecap:round;paint-order:stroke fill markers"
           id="rect1397-3"
           width="226.32803"
           height="56.96825"
           x="513.9931"
           y="271.20233"
           ry="28.484125"
           rx="24.975868" />
        <circle
           style="fill:#000000;stroke:none;stroke-width:6.45607;stroke-linecap:round;paint-order:stroke fill markers"
           id="path1423-6"
           cx="707.56995"
           cy="299.42029"
           r="21.809479" />
        <circle
           style="fill:#000000;stroke:none;stroke-width:6.45607;stroke-linecap:round;paint-order:stroke fill markers"
           id="path1423-6-7"
           cx="546.22021"
           cy="299.42029"
           r="21.809479" />
      </g>
    </g>
  </g>
</svg>
