<?xml version="1.0" encoding="UTF-8" standalone="no"?>
<svg
   xmlns:dc="http://purl.org/dc/elements/1.1/"
   xmlns:cc="http://creativecommons.org/ns#"
   xmlns:rdf="http://www.w3.org/1999/02/22-rdf-syntax-ns#"
   xmlns:svg="http://www.w3.org/2000/svg"
   xmlns="http://www.w3.org/2000/svg"
   xmlns:sodipodi="http://sodipodi.sourceforge.net/DTD/sodipodi-0.dtd"
   xmlns:inkscape="http://www.inkscape.org/namespaces/inkscape"
   inkscape:version="1.0.2 (e86c870879, 2021-01-15)"
   inkscape:export-ydpi="64.800003"
   inkscape:export-xdpi="64.800003"
   inkscape:export-filename="/home/yutyo/Resimler/wiki.korsanparti.png"
   sodipodi:docname="wiki.korsanparti.svg"
   xml:space="preserve"
   viewBox="0 0 200 200"
   height="200"
   width="200"
   y="0px"
   x="0px"
   id="Capa_1"
   version="1.1"><g
   id="g1341"
   transform="matrix(1.3344718,0,0,1.3344718,-33.44718,-33.44718)"><g
     id="g62">
</g><g
     id="g64">
</g><g
     style="display:inline"
     id="g66">
</g><g
     id="g68">
</g><g
     id="g70">
</g><g
     id="g72">
</g><g
     id="g74">
</g><g
     id="g76">
</g><g
     id="g78">
</g><g
     id="g80">
</g><g
     id="g82">
</g><g
     id="g84">
</g><g
     id="g86">
</g><g
     id="g88"
     style="display:inline">
</g><g
     id="g90">
</g><g
     transform="matrix(1.0207797,0,0,1.0207797,-2.0779695,-2.0779698)"
     id="g2865"
     style="fill:#000000"><g
       id="g60"
       transform="matrix(1.4633027,0,0,1.4633027,27.878931,27.878968)"
       style="display:inline;fill:#000000;fill-opacity:1">
	<g
   id="g58"
   style="fill:#000000;fill-opacity:1">
		<path
   style="opacity:1;fill:#000000;fill-opacity:1;enable-background:new"
   d="m 96.9,32.006 c -0.016,-0.062 -0.047,-0.121 -0.086,-0.173 l -0.232,-0.294 0.059,-0.236 c 0.021,-0.082 0.02,-0.168 -0.004,-0.249 -1.609,-5.56 -4.332,-11.017 -7.871,-15.782 -0.052,-0.068 -0.119,-0.122 -0.199,-0.155 l -0.592,-0.249 c -0.149,-0.063 -0.328,-0.044 -0.463,0.053 l -0.472,0.323 c -0.321,-0.407 -0.653,-0.846 -0.835,-1.09 -0.809,-0.888 -1.492,-1.793 -1.798,-2.208 0.021,-0.086 0.019,-0.178 -0.011,-0.264 l -0.242,-0.72 C 83.683,10.047 82.214,8.838 82.019,8.683 81.957,8.64 81.4,8.255 80.984,8.093 80.546,7.921 80.087,7.897 80.036,7.895 79.939,7.89 79.839,7.918 79.756,7.972 78.479,7.056 75.702,4.825 75.671,4.799 75.623,4.761 75.57,4.734 75.512,4.715 L 74.96,4.543 C 74.781,4.487 74.639,4.493 74.516,4.633 74.51,4.636 74.383,4.719 73.94,4.837 73.379,4.986 72.883,5.052 72.447,5.109 L 72.336,5.125 C 71.749,5.2 71.539,5.44 71.47,5.635 L 70.667,6.92 C 70.643,6.958 70.624,7 70.612,7.043 70.593,7.105 70.566,7.255 70.619,7.48 70.609,7.459 70.598,7.438 70.59,7.417 70.395,6.99 70.01,6.655 69.895,6.567 69.014,6.066 67.495,6.262 66.883,6.369 c -1.104,0.188 -2.593,0.685 -2.896,0.8 -0.238,0.092 -1.505,0.514 -2.158,0.682 -0.382,0.1 -0.714,0.198 -1.005,0.285 -0.21,0.063 -0.398,0.12 -0.571,0.165 -0.284,0.074 -1.716,0.496 -4.373,1.288 -1.02,0.302 -1.686,0.422 -1.68,0.422 -0.345,0.036 -0.632,0.049 -0.868,0.049 -0.693,0 -0.945,-0.101 -0.947,-0.097 -0.002,-0.01 -0.01,-0.105 -0.01,-0.105 L 52.383,8.725 C 52.378,8.656 52.321,8.04 51.792,7.753 51.365,7.52 50.813,7.452 50.059,7.416 c -0.81,-0.035 -1.683,0.043 -2.125,0.14 -0.82,0.18 -1.475,0.537 -1.941,1.061 -0.684,0.763 -0.59,1.421 -0.584,1.436 0,0 0.037,0.666 0.088,1.161 0.019,0.182 0.07,0.337 0.142,0.47 -0.427,0.198 -1.143,0.486 -2.251,0.811 -2.038,0.598 -3.421,0.723 -3.435,0.725 -0.262,0.022 -0.456,0.252 -0.436,0.514 0.041,0.541 0.47,2.938 0.516,3.203 0.022,0.136 0.219,1.336 0.305,1.664 0.081,0.313 0.298,1.002 0.3,1.002 0.015,0.062 0.16,0.576 0.697,0.83 0.419,0.197 1.207,0.309 2.047,-0.02 0.699,-0.276 0.975,-0.604 1.24,-0.919 l 0.468,-0.548 c 0.005,-0.004 0.438,-0.391 0.933,-0.225 0.46,0.158 0.824,0.673 0.938,0.874 -0.264,0.089 -0.591,0.193 -0.835,0.259 -0.484,0.13 -5.177,1.64 -5.177,1.64 0,0 -1.817,0.583 -3.261,0.932 -1.441,0.348 -2.242,0.464 -2.557,0.485 -0.289,0.02 -0.35,0.009 -0.358,0.007 0,0 0.015,-0.027 0.148,-0.265 0.01,-0.017 0.013,-0.035 0.02,-0.052 0.002,-0.005 0.004,-0.008 0.006,-0.013 0.031,-0.072 0.053,-0.145 0.063,-0.22 0.006,-0.026 0.009,-0.043 0.012,-0.065 0.003,-0.038 0.007,-0.069 0.009,-0.101 0,-0.012 10e-4,-0.019 0,-0.028 0.002,-0.07 0,-0.125 0,-0.125 0,0 -0.014,-0.034 -0.042,-0.091 -0.013,-0.034 -0.033,-0.072 -0.059,-0.113 -0.102,-0.191 -0.271,-0.485 -0.52,-0.759 -0.1,-0.108 -0.21,-0.19 -0.318,-0.252 -0.328,-0.184 -0.648,-0.18 -0.648,-0.18 0,0 -0.813,-0.116 -2.255,0.491 -1.443,0.608 -1.942,1.114 -2.245,1.572 -0.3,0.458 -0.024,0.991 -0.024,0.991 0.349,0.499 1.012,1.074 1.012,1.074 l -0.014,0.004 c -0.453,0.513 -1.648,0.993 -1.94,1.105 -0.042,0.015 -0.065,0.024 -0.065,0.024 0,0 -0.028,0.009 -0.08,0.028 -0.367,0.127 -1.921,0.646 -3.332,0.824 -0.772,0.097 -1.471,0.146 -1.98,0.172 0.688,-0.682 0.991,-1.412 1.004,-1.447 0.655,-1.607 0.066,-3.195 -0.289,-3.59 -0.331,-0.359 -0.992,-0.851 -1.042,-0.886 -0.233,-0.196 -0.805,-0.434 -1.491,-0.12 0.065,-0.395 0.192,-0.875 0.379,-1.329 0.315,-0.763 1,-2.098 1,-2.098 0.042,-0.071 1.029,-1.761 1.438,-2.838 0.43,-1.126 0.429,-1.992 0.429,-2.028 -0.001,-0.106 -0.036,-0.21 -0.102,-0.294 0,0 -0.466,-0.591 -0.719,-0.92 0.76,0.165 1.32,-0.151 1.424,-0.216 1.052,-0.795 1.705,-2.217 1.726,-2.261 L 27.222,6.997 C 27.294,6.85 27.286,6.674 27.2,6.533 L 26.412,5.255 C 26.344,5.143 26.231,5.065 26.102,5.038 26.006,5.019 25.847,4.985 24.914,5.304 24.484,5.45 24.127,5.603 23.877,5.719 L 23.618,5.335 C 23.603,5.311 23.523,5.227 23.505,5.206 23.289,4.985 22.872,4.955 22.196,5.108 21.418,5.287 20.308,5.88 19.789,6.57 c -0.288,0.382 -0.425,0.662 -0.49,0.835 -1.403,1.208 -2.582,1.78 -2.841,1.898 -0.474,0.073 -0.776,0.3 -0.827,0.338 -1.318,1.114 -2.856,2.904 -3.053,3.135 -0.065,0.063 -0.125,0.151 -0.183,0.261 -0.06,0.116 -0.261,0.724 -0.212,0.989 0.004,0.021 0.01,0.043 0.015,0.062 -0.6,0.796 -0.986,1.239 -1.19,1.459 -0.058,-0.001 -0.12,0.003 -0.18,0.012 -0.235,0.068 -0.664,0.334 -0.838,0.445 C 9.938,16.038 9.893,16.081 9.857,16.13 9.49,16.651 8.642,18.051 8.368,18.508 8.305,18.539 8.239,18.579 8.179,18.618 8.107,18.621 8.035,18.642 7.97,18.679 L 7.316,19.046 C 7.244,19.087 7.183,19.145 7.141,19.215 4.089,24.234 1.984,29.697 0.882,35.457 0.869,35.526 0.872,35.6 0.89,35.669 L 0.931,35.82 0.759,36.203 C 0.743,36.24 0.732,36.278 0.725,36.316 0.244,39.087 0,41.933 0,44.781 c 0,1.858 0.105,3.73 0.312,5.564 0.01,0.08 0.038,0.156 0.083,0.221 l 0.174,0.248 -0.106,0.263 c -0.03,0.077 -0.041,0.16 -0.03,0.242 0.867,6.552 3.013,12.765 6.376,18.466 0.032,0.056 0.075,0.104 0.127,0.143 L 7,69.975 l 0.054,0.19 c 0.011,0.042 0.028,0.082 0.051,0.119 9.022,14.891 24.791,23.779 42.181,23.779 12.423,0 24.29,-4.637 33.415,-13.055 9.072,-8.37 14.646,-19.727 15.693,-31.977 0.006,-0.075 -0.006,-0.152 -0.033,-0.222 L 98.232,48.5 98.403,48.215 c 0.038,-0.063 0.062,-0.139 0.065,-0.214 0.069,-1.085 0.105,-2.171 0.105,-3.228 0,-4.332 -0.563,-8.627 -1.673,-12.767 z m 0.168,6.713 c 0.066,-0.065 0.109,-0.19 0.097,-0.503 0.167,1.231 0.286,2.47 0.358,3.715 -0.084,0.183 -0.116,0.578 -0.116,0.578 0,0 -0.063,0.447 -0.149,0.438 -0.021,-0.004 -0.053,-0.004 -0.092,-0.022 -0.119,-0.06 -0.304,-0.3 -0.447,-1.329 -0.191,-1.374 -0.149,-2.822 -0.149,-2.822 0,0 -0.042,-0.148 0.044,-0.181 0.085,-0.031 0.18,0.096 0.18,0.096 0,0 0.127,0.179 0.274,0.03 z M 96.002,32.35 c 0.205,0.771 0.373,1.554 0.54,2.335 -0.237,-0.985 -0.508,-1.897 -0.716,-2.557 z m -0.177,-0.225 c 0.056,0.175 0.11,0.359 0.168,0.554 -0.06,-0.195 -0.118,-0.39 -0.171,-0.557 z m -0.141,-0.177 0.018,0.021 -0.157,-0.176 v -10e-4 l 0.138,0.15 c -0.001,0.001 10e-4,0.005 10e-4,0.006 z m -1.94,-6.051 c 0.008,-0.003 0.006,-0.012 0.014,-0.015 0.732,1.711 1.37,3.452 1.889,5.205 -0.041,0.002 -0.08,-0.001 -0.123,0.008 -0.016,0.004 -0.023,0.01 -0.035,0.014 -0.004,-0.01 -0.006,-0.016 -0.006,-0.016 0,0 -0.299,-0.873 -0.989,-2.619 -0.606,-1.527 -0.772,-2.184 -0.806,-2.324 -0.006,-0.021 -0.008,-0.029 -0.008,-0.029 0,0 -0.041,-0.19 0.064,-0.224 z m 1.797,5.884 v 0 l -0.002,-0.002 z m -0.064,-0.693 v 0 c 0,10e-4 -0.002,-0.005 -0.002,-0.007 0,0.002 0.002,0.005 0.002,0.007 z M 88.291,17.226 c 0.121,-0.061 0.255,-0.138 0.363,-0.222 0.04,-0.031 0.064,-0.063 0.097,-0.096 0.822,1.171 1.595,2.379 2.313,3.618 -0.088,0.013 -0.157,0.123 0.02,0.59 0.111,0.294 0.129,0.399 0.107,0.417 -0.035,0.024 -0.18,-0.194 -0.18,-0.194 -0.886,-1.127 -2.717,-4.109 -2.717,-4.109 l -0.176,-0.121 z m -0.585,0.255 c 0.026,-0.012 0.056,-0.022 0.08,-0.033 0.021,-0.008 0.038,-0.017 0.058,-0.025 0.057,-0.023 0.111,-0.046 0.16,-0.069 0,0 0.012,-0.004 0.035,-0.015 0,0 0,0 0.002,0 l 0.008,0.014 c 0.977,1.577 2.723,4.111 2.723,4.111 0,0 0.709,0.917 0.867,0.926 0.157,0.011 -0.08,-0.709 -0.08,-0.709 0,0 -0.078,-0.29 -0.014,-0.329 0.655,1.18 1.258,2.387 1.811,3.609 l -0.002,0.002 c 0,0 -0.14,0.069 -0.14,0.316 0,0.482 0.476,1.588 0.476,1.588 0,0 0.996,2.533 1.632,4.307 -0.203,0.112 -0.326,0.289 -0.769,0.361 -0.566,0.092 -1.221,0.292 -1.861,1.262 -0.192,0.291 -0.262,0.601 -0.275,0.896 -0.001,0.005 -0.004,0.009 -0.005,0.014 -0.001,0.02 0.004,0.038 0.002,0.057 0,0.119 0.005,0.232 0.021,0.34 0.004,0.033 0.006,0.064 0.012,0.096 0.016,0.091 0.035,0.174 0.057,0.253 0.008,0.029 0.014,0.066 0.021,0.093 0.002,0.006 0.004,0.01 0.007,0.016 0.077,0.25 0.163,0.413 0.163,0.413 0,0 0.344,0.566 0.511,0.856 0.164,0.293 1.021,2.121 0.035,3.455 0,0 -0.528,0.614 -1.46,0.822 -0.823,0.183 -0.614,-0.781 -0.698,-1.297 0,0 -0.123,-2.184 -1.183,-3.436 -0.937,-1.096 -2.629,0.852 -3.475,1.5 -0.787,0.602 -3.089,2.979 -6.396,4.712 l -0.12,-1.588 c 0,0 -0.081,-0.854 -0.541,-2.184 -0.938,-2.706 -1.857,-3.945 -1.857,-3.945 0,0 -0.369,-0.796 -1.188,-1.12 -0.207,-0.082 -0.436,-0.143 -0.701,-0.143 -1.273,0 -1.37,1.168 -1.37,1.168 0,0 -0.298,0.921 -0.786,1.206 -0.419,0.242 -1.549,0.9 -2.322,0.518 -0.11,-0.057 -0.213,-0.131 -0.307,-0.233 -0.146,-0.16 -0.267,-0.332 -0.393,-0.5 -0.145,-0.192 -0.272,-0.387 -0.389,-0.587 -0.4,-0.695 -0.647,-1.427 -0.713,-2.139 -0.098,-1.1 0.354,-1.546 0.354,-1.546 0,0 0.092,-0.284 1.544,-0.284 1.627,0 1.927,-0.501 1.927,-0.501 0,0 0.31,-0.285 0.286,-0.922 -0.025,-0.638 -0.273,-2.006 -0.745,-2.874 -0.065,-0.119 -0.157,-0.261 -0.253,-0.403 -0.357,-0.543 -0.889,-1.216 -1.361,-1.764 l -0.877,-0.16 0.877,0.156 c 0.566,-0.211 1.348,-0.518 2.188,-0.896 1.72,-0.776 2.54,-1.424 3.329,-1.874 0,0 1.74,-1.071 2.763,-1.043 0.003,0 0.238,-0.007 0.261,0.307 0.021,0.313 0.101,0.779 0.207,1.049 0.107,0.269 0.703,1.744 2.612,1.961 0.239,0.027 0.462,0.03 0.667,0.016 0.113,-0.008 0.21,-0.032 0.312,-0.051 0.084,-0.015 0.176,-0.021 0.252,-0.04 0.145,-0.039 0.271,-0.089 0.395,-0.142 0.023,-0.009 0.053,-0.016 0.075,-0.026 0.128,-0.06 0.239,-0.125 0.344,-0.192 0.011,-0.006 0.024,-0.011 0.034,-0.019 0.443,-0.295 0.646,-0.619 0.646,-0.619 0,0 0.655,-1.002 -0.473,-2.196 0,0 -0.918,-0.984 -0.945,-1.06 0,0 -0.056,-0.089 0.041,-0.164 0.027,-0.021 0.062,-0.041 0.116,-0.058 0.162,-0.046 1.302,-0.366 2.396,-0.72 0.509,-0.166 1.006,-0.337 1.392,-0.494 z M 81.717,48.68 c 0.504,1.044 1.627,1.151 2.438,0.949 0.815,-0.204 1.083,-0.651 1.534,-1.629 0.447,-0.974 0.69,-1.043 0.69,-1.043 0,0 0.181,-0.259 1.007,-0.162 0.826,0.095 1.004,0.678 1.004,0.678 0,0 0.477,1.125 0.379,2.307 -0.092,1.178 -0.351,1.708 -0.621,2.127 -0.272,0.423 -1.685,0.284 -1.685,0.284 0,0 -2.427,-0.271 -2.645,2.646 -0.218,2.915 0.759,4.936 0.759,4.936 0.355,0.772 0.718,1.179 1.018,1.396 0.297,0.216 0.582,0.502 0.582,0.502 0,0 0.053,0.045 0.127,0.143 l -0.013,-10e-4 c -1.729,1.4 -2.241,1.854 -3.62,2.829 0,0 -1.572,1.175 -3.292,2.103 -1.728,0.929 -3.753,0.815 -3.753,0.815 0,0 -0.548,-0.06 -0.281,-0.457 0.264,-0.396 0.606,-1.362 0.737,-1.854 0.136,-0.493 0.397,-1.741 -0.604,-2.14 -1.004,-0.396 -2.89,0.188 -2.89,0.188 0,0 -4.331,1.153 -6.099,3.092 -1.717,1.885 -0.273,2.726 -0.273,2.726 0,0 0.672,0.469 1.326,0.698 0.617,0.22 0.493,0.416 0.34,0.53 0,0 -1.936,1.232 -4.222,1.891 0,0 -3.127,0.957 -6.164,1.153 -2.979,0.191 -4.265,0.271 -4.297,0.271 -0.326,-0.64 -0.663,-1.213 -0.663,-1.213 0,0 -0.354,-0.545 -0.525,-1.311 -0.145,-0.646 -0.16,-1.444 0.291,-2.23 0.993,-1.727 2.618,-2.247 2.618,-2.247 0,0 1.437,-0.318 2.868,0.015 1.357,0.311 2.042,-0.209 2.042,-0.209 0,0 0.468,-0.203 0.806,-1.005 0.028,-0.069 0.053,-0.156 0.08,-0.234 0.023,-0.069 0.051,-0.134 0.072,-0.213 0.047,-0.169 0.088,-0.356 0.118,-0.565 0.25,-1.654 -0.015,-4.729 -2.218,-5.339 -2.207,-0.604 -3.379,0.54 -3.379,0.54 0,0 -1.188,1.312 -1.572,1.502 -0.387,0.192 -0.98,0.538 -0.98,0.538 0,0 -0.828,0.497 -1.391,0.621 -0.35,0.077 -1.529,-1.47 -1.795,-2.79 -0.018,-0.09 -0.043,-0.182 -0.053,-0.27 -0.111,-1.103 -0.321,-2.025 -0.312,-3.976 0.002,-0.276 0.007,-0.573 0.019,-0.896 0,-0.004 0,-0.01 0,-0.017 0.391,-0.021 0.788,-0.043 1.187,-0.06 3.42,-0.124 5.115,-0.53 6.933,-0.937 1.816,-0.41 4.373,-1.896 4.754,-2.181 0.332,-0.247 0.986,-0.547 1.25,-1.456 0.028,-0.097 0.047,-0.208 0.065,-0.316 0.006,-0.035 0.017,-0.063 0.021,-0.101 0,-0.004 0.002,-0.007 0.002,-0.01 0.162,-1.238 -1.305,-2.064 -1.305,-2.064 0,0 -1.166,-0.615 -1.412,-0.89 -0.123,-0.137 -0.127,-0.271 -0.102,-0.371 0.025,-0.095 0.079,-0.158 0.079,-0.158 0,0 0.659,-1.421 2.772,-2.253 2.11,-0.835 3.531,-1.061 4.42,-1.156 0.893,-0.095 1.191,0.227 1.315,0.379 0.121,0.15 0.121,0.464 0.021,0.785 -0.1,0.295 -0.426,0.994 -0.619,1.336 -0.188,0.341 -0.5,1.164 -0.301,1.553 0.198,0.388 0.807,0.568 1.59,0.426 0.787,-0.143 2.859,-0.729 4.68,-1.486 1.82,-0.757 4.855,-2.245 4.855,-2.245 0,0 0.01,-0.004 0.021,-0.012 l 0.001,-0.007 c 0.002,0 0.002,0 0.005,-0.002 l 0.079,-0.676 c 0.001,0.004 0.003,0.01 0.004,0.014 l -0.077,0.684 c 0.571,1.99 1.76,4.499 2.254,5.525 z m 4.941,13.169 -0.02,0.604 c 0.2,0.55 0.348,1.418 0.137,2.696 -0.275,1.7 -0.68,2.685 -0.95,3.189 -0.048,0.086 -0.097,0.175 -0.146,0.254 -0.021,0.028 -0.029,0.043 -0.045,0.064 -0.045,0.067 -0.093,0.127 -0.14,0.188 -0.05,0.064 -0.144,0.176 -0.259,0.307 -0.057,0.059 -0.111,0.122 -0.17,0.175 -0.022,0.02 -0.047,0.041 -0.067,0.06 -0.063,0.063 -0.134,0.129 -0.209,0.192 -0.021,0.019 -0.03,0.032 -0.05,0.05 -0.365,0.31 -0.821,0.6 -1.312,0.659 -1.07,0.128 -2.23,0.113 -3.31,1.145 -0.017,0.017 -0.036,0.024 -0.052,0.04 -0.034,0.035 -0.073,0.076 -0.109,0.114 -0.02,0.021 -0.039,0.035 -0.059,0.057 -0.006,0.008 -0.012,0.017 -0.018,0.023 -0.105,0.116 -0.212,0.259 -0.312,0.416 -0.872,1.309 -0.674,2.761 -0.674,2.761 0,0 0.113,1.101 1.293,0.8 1.176,-0.3 2.382,-1.206 3.291,-1.927 0.906,-0.719 0.35,0.243 0.35,0.243 -0.799,1.561 -2.318,3.12 -2.318,3.12 0,0 -0.529,0.461 -1.693,2.102 -0.303,0.426 -0.555,0.807 -0.766,1.14 0,0.001 -0.002,0.001 -0.002,0.001 0,0 -0.005,0.005 -0.008,0.009 -1.191,0.639 -2.904,1.49 -3.984,1.931 0.053,-0.019 0.112,-0.045 0.168,-0.064 -0.057,0.022 -0.115,0.05 -0.168,0.07 -0.57,0.235 -1.02,0.39 -1.347,0.48 0.011,-0.004 0.015,-0.006 0.026,-0.01 -0.348,0.099 -0.555,0.123 -0.617,0.092 -0.003,-0.002 -0.012,-0.002 -0.014,-0.004 -0.012,-0.011 -0.006,-0.025 0,-0.041 0.002,-0.006 -0.002,-0.009 0.002,-0.015 0.123,-0.179 0.441,-0.438 0.441,-0.438 0,0 0.383,-0.383 0.383,-0.771 0,0 0.029,-0.141 -0.147,-0.236 -0.177,-0.099 -0.56,-0.152 -1.39,0.021 -0.407,0.084 -0.801,0.2 -1.17,0.323 -0.008,0.003 -0.019,0.006 -0.026,0.009 -0.496,0.167 -0.944,0.349 -1.281,0.498 0.007,0.001 0.009,0.001 0.011,0 0,0 0.033,-0.015 0.096,-0.039 -0.473,0.209 -0.778,0.372 -0.778,0.372 0,0 -0.836,0.387 -1.418,0.841 l 0.019,-0.019 c -0.021,0.017 -0.037,0.033 -0.059,0.051 -0.07,0.057 -0.139,0.114 -0.197,0.174 -0.013,0.012 -0.025,0.022 -0.037,0.034 -0.074,0.076 -0.134,0.151 -0.181,0.229 -0.007,0.011 -0.015,0.021 -0.021,0.032 -0.043,0.077 -0.067,0.152 -0.07,0.227 0,0.006 10e-4,0.01 10e-4,0.015 0.001,0.079 0.022,0.154 0.082,0.225 0,0 0.11,0.18 0.606,0.339 0.059,0.018 0.084,0.04 0.096,0.063 0.005,0.007 0.004,0.017 0.004,0.023 0,0.016 -0.008,0.03 -0.018,0.047 -0.013,0.016 -0.021,0.03 -0.041,0.046 -0.009,0.007 -0.021,0.015 -0.029,0.021 -0.027,0.021 -0.057,0.04 -0.094,0.062 l 0.017,-0.005 c -0.284,0.16 -0.813,0.323 -0.813,0.323 -1.308,0.428 -2.312,0.622 -3.58,0.886 -1.315,0.27 -2.453,0.518 -3.22,0.687 l -0.001,-0.003 0.008,-0.002 c -0.082,-0.312 -0.203,-0.618 -0.336,-0.909 -0.018,-0.037 -0.033,-0.072 -0.052,-0.109 -0.063,-0.132 -0.127,-0.26 -0.192,-0.382 -0.014,-0.023 -0.025,-0.05 -0.037,-0.071 -0.076,-0.137 -0.149,-0.263 -0.22,-0.38 -0.032,-0.055 -0.06,-0.098 -0.089,-0.146 -0.033,-0.053 -0.062,-0.103 -0.093,-0.148 -0.085,-0.135 -0.161,-0.251 -0.208,-0.326 -0.301,-0.481 -0.801,-0.757 -2.291,-0.508 -1.489,0.248 -3.24,0.991 -3.24,0.991 0,0 -1.811,0.953 -3.158,0.774 -0.339,-0.045 -0.608,-0.164 -0.824,-0.324 -0.646,-0.479 -0.799,-1.326 -0.788,-1.646 0.014,-0.428 0.29,-0.8 0.994,-1.075 0.704,-0.276 2.36,-0.648 4.772,-0.773 2.412,-0.125 3.311,-1.694 3.311,-1.694 0.275,-0.4 0.744,-1.232 -0.049,-1.942 -0.115,-0.103 -0.255,-0.202 -0.425,-0.298 -0.842,-0.472 -1.17,-0.574 -1.454,-0.704 -0.105,-0.049 -0.206,-0.104 -0.324,-0.179 -0.009,-0.007 -0.018,-0.012 -0.026,-0.019 -0.021,-0.013 -0.044,-0.029 -0.063,-0.044 -0.05,-0.035 -0.099,-0.067 -0.156,-0.112 -0.162,-0.124 -0.328,-0.256 -0.488,-0.396 -0.484,-0.419 -0.932,-0.918 -1.139,-1.549 -0.023,-0.081 -0.063,-0.189 -0.1,-0.28 l -0.486,-0.318 -0.32,-0.213 -0.002,-0.001 v 0.001 0 l -0.004,-0.002 0.002,-0.002 h -0.002 l 0.002,-0.002 v 10e-4 0.001 0.001 l 0.002,0.002 c 0,0 0,-0.001 0,-0.002 l 0.005,-0.006 v 0 l 0.058,-0.054 -0.058,0.054 0.01,0.007 c -0.003,0 -0.006,0.001 -0.009,0.001 l 0.806,0.532 c 0.701,-0.058 1.615,-0.123 2.431,-0.162 1.617,-0.079 4.153,-0.454 5.627,-0.774 1.474,-0.328 3.703,-1.016 5.352,-1.868 1.65,-0.854 1.73,-1.455 1.73,-1.455 0,0 0.125,-0.177 0.047,-0.434 -0.045,-0.154 -0.162,-0.337 -0.424,-0.525 -0.688,-0.501 -0.992,-0.365 -1.602,-0.983 -0.075,-0.074 -0.122,-0.155 -0.148,-0.238 -0.187,-0.592 0.683,-1.301 0.683,-1.301 0,0 0.588,-0.827 3.849,-2.084 3.262,-1.258 3.811,-0.836 3.979,-0.696 0.041,0.032 0.074,0.087 0.098,0.15 0.07,0.2 0.068,0.507 0.02,0.733 -0.066,0.305 -0.474,1.394 -0.691,1.967 -0.11,0.289 -0.186,0.632 -0.116,0.924 0.063,0.284 0.261,0.522 0.697,0.616 0.886,0.185 2.12,-0.009 3.28,-0.425 2.77,-0.988 3.598,-2.196 8.17,-5.518 0.012,-0.01 0.021,-0.015 0.029,-0.021 l 0.016,-0.619 c 0.002,-0.001 0.003,-0.002 0.004,-0.003 v 10e-4 c -0.006,-0.004 -0.003,0.003 -0.001,0.008 z M 39.581,78.581 c 0.731,0.824 1.498,1.178 1.498,1.178 0,0 0.451,0.198 0.443,0.322 -0.007,0.156 -0.014,0.295 -0.352,0.489 0,0 -1.333,0.779 -3.932,0.822 -2.598,0.043 -3.743,0.021 -4.506,-0.666 -0.63,-0.565 0.158,-1.765 0.158,-1.765 0,0 0.315,-0.587 0,-1.392 -0.316,-0.805 -2.123,-0.817 -2.123,-0.817 l -2.503,-0.128 c -2.963,-0.078 -6.875,-0.41 -8.617,-0.626 0,0 -0.011,-0.002 -0.03,-0.005 v 0.002 l -0.051,-0.076 c 0,0 -1.794,-3.23 -1.604,-4.418 0,0 0.05,-0.604 0.813,-0.987 0.109,-0.055 0.233,-0.104 0.373,-0.146 0.782,-0.24 0.679,0.519 2.979,0.933 0,0 1.153,0.306 1.931,-0.188 0.24,-0.153 0.447,-0.376 0.57,-0.718 0.516,-1.441 -0.542,-3.249 -0.542,-3.249 0,0 -1.389,-2.542 -3.105,-2.638 H 20.98 v 0 c -0.012,-10e-4 -0.019,0.002 -0.028,0.001 -0.869,-0.036 -0.65,0.562 -2.004,0.883 0,0 -1.833,0.179 -2.412,-0.921 -0.701,-1.33 -0.973,-2.842 -0.973,-3.85 0,-0.035 10e-4,-0.06 10e-4,-0.091 0.017,-0.632 0.037,-0.852 0.07,-1.025 0.015,-0.062 0.031,-0.132 0.051,-0.226 0.022,-0.099 0.063,-0.228 0.108,-0.394 0.047,-0.173 0.097,-0.385 0.129,-0.653 l -0.002,-0.01 c 0.777,-0.086 2.024,-0.22 3.465,-0.376 2.42,-0.26 4.047,-0.521 5.551,-0.295 1.505,0.226 1.989,1.399 1.989,1.399 0,0 0.026,0.075 0.009,0.178 -0.02,0.101 -0.079,0.226 -0.246,0.333 -0.335,0.217 -0.719,0.525 -0.907,0.854 -10e-4,0.003 -0.002,0.005 -0.004,0.007 0,0 0,10e-4 -0.001,0.002 -0.021,0.038 -0.044,0.083 -0.065,0.131 -10e-4,0.001 -10e-4,0.001 -10e-4,0.001 -0.16,0.366 -0.264,0.999 0.219,1.815 0.548,0.923 2.051,1.523 3.33,1.371 1.277,-0.148 3.192,-0.641 4.326,-0.938 0.928,-0.242 1.771,-0.646 2.194,-1.241 0.142,-0.199 0.238,-0.419 0.273,-0.662 0.142,-0.965 -1.47,-2.198 -1.47,-2.198 0,0 -0.774,-0.585 -0.869,-0.718 -0.024,-0.034 -0.029,-0.062 -0.026,-0.086 0.022,-0.062 0.115,-0.093 0.115,-0.093 0,0 0.909,-0.22 1.299,-0.396 0.387,-0.182 1.457,-0.618 3.21,-1.167 1.753,-0.549 5.367,-1.193 5.367,-1.193 0,0 1.995,-0.317 4.485,-0.521 l 0.009,-0.01 c 0.003,-10e-4 0.005,-10e-4 0.007,-10e-4 l 0.308,-0.354 0.094,-0.106 -0.407,0.471 c -0.007,0.235 -0.015,0.478 -0.024,0.729 -0.138,3.711 0.689,5.613 0.689,5.613 0.47,1.02 0.979,1.752 1.671,2.219 0.688,0.469 1.627,0.149 1.932,0 0.302,-0.151 1.143,-0.539 1.859,-0.992 0.717,-0.457 0.693,-0.65 1.56,-1.45 0.868,-0.798 1.987,-0.577 1.987,-0.577 0,0 1.061,0.025 1.666,1.256 0.608,1.229 0.486,2.978 0.332,3.612 -0.151,0.633 -0.427,1.049 -1.019,0.938 -0.595,-0.109 -1.574,-0.208 -1.933,-0.222 -0.359,-0.014 -1.371,-0.048 -2.291,0.193 -0.898,0.233 -2.111,0.881 -3.27,2.761 -0.898,1.454 -0.458,2.883 -0.25,3.448 0.162,0.441 0.607,1.058 0.998,1.813 l 0.725,0.241 -0.002,0.002 -0.719,-0.239 c -1.229,0.147 -3.308,0.443 -5.357,0.938 -2.51,0.612 -4.904,1.099 -6.608,2.198 0.002,0 -1.272,0.849 -0.539,1.671 z M 19.616,76.015 19.611,76.15 c 0,-0.001 -0.001,-0.001 -0.001,-0.001 v 0.001 0 -0.002 0 z m -3.829,-18.424 -0.003,-0.002 0.003,-0.002 c 0,0 0,0.002 0,0.004 z M 45.891,37.285 c -0.187,-1.338 -0.238,-1.653 -1.42,-5.71 1.551,-0.213 2.81,-0.411 4.239,-0.689 0.959,-0.188 1.991,-0.409 3.249,-0.699 0,0 2.913,-0.519 3.518,-1.583 0.353,-0.62 0.983,-1.471 -0.039,-2.323 -0.002,-0.002 -0.004,-0.004 -0.006,-0.006 v -10e-4 c 0,0 -0.117,-0.155 -0.756,-0.298 -0.271,-0.061 -0.511,-0.116 -0.742,-0.186 -0.313,-0.095 -0.61,-0.218 -0.92,-0.44 -0.541,-0.386 -0.527,-0.832 -0.527,-0.832 0,0 -0.047,-0.426 0.824,-0.916 0,0 0.457,-0.335 1.367,-0.719 0.305,-0.128 0.658,-0.261 1.063,-0.39 1.619,-0.51 3.491,-0.283 3.491,-0.283 0,0 0.785,0.085 0.656,0.615 -0.135,0.531 -0.578,1.419 -0.597,1.875 -0.012,0.273 -0.002,0.574 0.198,0.852 0.064,0.09 0.154,0.176 0.268,0.259 0.116,0.086 0.254,0.169 0.432,0.244 0.559,0.23 1.268,0.272 1.721,0.271 0.271,0 0.452,-0.017 0.452,-0.017 0,0 1.323,-0.065 3.493,-0.766 1.358,-0.439 2.72,-0.912 3.545,-1.204 0.486,-0.171 0.787,-0.279 0.828,-0.294 0.009,-0.004 0.01,-0.004 0.021,-0.008 l 0.002,0.008 c 1.902,1.863 2.247,4.134 2.247,4.134 0,0 0.257,0.895 -0.27,0.963 -0.461,0.059 -1.535,0.067 -1.535,0.067 0,0 -0.406,0.042 -1.07,0.177 -0.66,0.135 -1.082,0.84 -1.176,1.328 -0.094,0.488 -0.383,1.828 0.748,3.934 1.123,2.102 2.547,2.006 2.547,2.006 1.234,-0.107 1.613,-0.325 2.334,-0.813 0.697,-0.475 1.018,-1.531 1.057,-1.734 0.043,-0.204 0.137,-0.406 0.297,-0.406 0.168,0 0.112,0 0.492,-0.054 0.383,-0.054 0.667,0.217 0.979,0.854 0.203,0.41 1.287,2.196 1.601,3.256 0.313,1.055 0.585,2.112 0.61,3.062 0.012,0.374 0.064,0.805 0.123,1.184 l 0.302,0.435 c 0,10e-4 0,0.002 0,0.003 l -0.001,0.005 -0.311,-0.451 c -1.588,0.791 -5.187,2.541 -7.533,3.363 0,0 -1.795,0.729 -2.527,0.748 0,0 -0.163,0.006 -0.031,-0.17 0.127,-0.178 0.264,-0.309 0.484,-0.707 0.22,-0.4 0.617,-1.299 0.617,-2.227 0,-0.928 -1.07,-1.835 -2.564,-1.674 -1.492,0.16 -2.921,0.574 -4.642,1.237 -1.72,0.662 -3.199,2.066 -3.397,3.23 -0.199,1.164 1.059,1.838 1.059,1.838 0,0 1.42,0.719 1.602,1.107 0.182,0.388 0.048,0.75 0.048,0.75 0,0 -0.122,0.388 -0.75,0.748 -0.62,0.359 -2.315,1.23 -2.315,1.23 0,0 -2.112,1.165 -5.324,1.447 0,0 -2.928,0.249 -4.61,0.334 -0.019,0.002 -0.039,0.002 -0.059,0.003 0.073,-2.155 -0.188,-3.833 -0.635,-5.082 -0.149,-0.416 -0.318,-0.785 -0.504,-1.107 -0.77,-1.353 -2.026,-2.07 -2.646,-2.373 -0.619,-0.303 -2.055,-0.441 -3.034,-0.082 -0.979,0.359 -1.185,0.647 -1.543,1.269 -0.361,0.622 -0.8,0.581 -0.8,0.581 0,0 -1.31,0.027 -1.777,-1.936 -0.01,-0.037 -0.022,-0.063 -0.031,-0.103 -0.063,-0.302 -0.101,-0.568 -0.135,-0.829 -0.006,-0.056 -0.022,-0.123 -0.027,-0.177 -0.02,-0.173 -0.02,-0.314 -0.025,-0.47 -0.005,-0.119 -0.02,-0.252 -0.02,-0.361 0.01,-1.496 0.551,-2.026 0.551,-2.026 0,0 0.305,-0.456 1.311,-0.593 1.008,-0.138 1.656,0.11 2.428,0.302 0.771,0.193 1.351,0.111 2.316,-0.357 0.555,-0.271 0.921,-0.646 1.101,-1.174 0.127,-0.39 0.162,-0.863 0.078,-1.449 z M 62.066,8.778 c 0.679,-0.175 1.986,-0.607 2.265,-0.715 0.271,-0.105 1.692,-0.576 2.714,-0.752 1.033,-0.182 1.965,-0.146 2.301,0.036 0.055,0.048 0.279,0.265 0.371,0.465 0.127,0.278 0.484,0.96 1.104,1.275 0.519,0.258 0.897,0.41 2.051,0.308 1.636,-0.411 1.821,-1.323 1.653,-1.634 -0.215,-0.408 -0.856,-0.826 -0.856,-0.826 0,0 -0.86,-0.55 -1.046,-0.81 -0.02,-0.028 -0.02,-0.047 -0.029,-0.069 0.461,-0.062 0.981,-0.13 1.592,-0.293 0.295,-0.079 0.525,-0.159 0.697,-0.241 l 0.26,0.08 c 0.51,0.407 3.429,2.744 4.422,3.399 0.205,0.134 0.477,0.093 0.633,-0.096 l 0.02,-0.023 c 0.123,0.099 0.258,0.208 0.299,0.254 0,0 0.621,-0.003 0.931,0.311 0.407,0.331 1.536,1.327 1.829,1.884 l 0.145,0.438 c -0.08,0.157 -0.066,0.346 0.035,0.492 0.037,0.052 0.909,1.289 2.014,2.499 0.112,0.153 1.032,1.394 1.543,1.931 -0.269,0.109 -0.648,0.248 -1.158,0.384 -1.065,0.287 -2.094,0.767 -2.094,0.767 0,0 -0.854,0.277 -0.529,0.971 0.031,0.064 0.066,0.11 0.1,0.169 0.018,0.048 0.043,0.099 0.079,0.15 0,0 0.017,0.017 0.021,0.022 0.291,0.455 0.604,0.688 0.604,0.688 0,0 0.052,0.051 0.125,0.132 0.039,0.043 0.083,0.095 0.132,0.153 0.02,0.024 0.038,0.047 0.059,0.072 0.071,0.092 0.145,0.197 0.207,0.305 0.099,0.166 0.174,0.341 0.183,0.5 0.021,0.503 -0.19,0.73 -0.731,1.029 -0.539,0.3 -1.029,0.358 -1.029,0.358 0,0 -1.279,0.23 -1.914,-0.37 -0.635,-0.6 -0.754,-1.592 -0.754,-1.592 0,0 -0.049,-0.839 -1.099,-1.197 -1.056,-0.359 -2.349,0.406 -2.349,0.406 0,0 -1.02,0.539 -2.107,1.245 -1.09,0.706 -3.15,1.568 -4.441,2.023 l -0.146,0.669 v 0.002 c 0.001,0 0.001,0 0.001,0 l 0.002,10e-4 -0.003,-10e-4 v 0 h -0.001 -10e-4 v -0.002 h 0.002 -0.001 v -10e-4 l 0.001,10e-4 0.069,-0.325 0.073,-0.341 c 0,-0.002 0,-0.002 0,-0.002 v -0.001 c -0.09,-0.085 -0.25,-0.254 -0.449,-0.474 -0.491,-0.544 -1.239,-1.415 -1.922,-2.232 -0.666,-0.798 -1.266,-1.54 -1.486,-1.856 -0.54,-0.773 -0.622,-0.95 -0.718,-1.208 -0.023,-0.064 -0.025,-0.148 -0.013,-0.242 0.043,-0.285 0.232,-0.664 0.406,-0.868 0.229,-0.27 0.501,-0.323 1.057,-0.202 0.558,0.122 0.922,0.367 1.805,0.081 0.884,-0.282 0.926,-0.948 0.99,-1.627 0.053,-0.509 -0.393,-1.443 -0.895,-2.171 -0.167,-0.244 -0.34,-0.464 -0.502,-0.637 -0.654,-0.691 -1.574,-0.802 -2.212,-0.76 -0.636,0.041 -1.003,0.502 -1.373,0.706 -0.364,0.204 -1.056,0.407 -1.366,0.272 C 63.481,11.62 63.283,11.551 63.059,11.384 62.836,11.216 62.586,10.949 62.324,10.482 61.975,9.87 61.678,9.309 61.487,8.939 61.662,8.888 61.854,8.833 62.066,8.778 Z M 43.35,22.562 c 0.152,-0.073 0.413,-0.179 0.775,-0.231 l 0.732,-0.042 c 0.15,0.009 0.313,0.021 0.484,0.033 l 0.171,0.016 c 0.331,0.028 0.788,0.064 1.327,-0.163 0.004,-0.001 0.007,-0.002 0.01,-0.004 0.015,-0.006 0.029,-0.013 0.045,-0.019 0.103,-0.039 0.199,-0.08 0.285,-0.128 0.406,-0.227 1.517,-0.833 1.439,-2.07 -0.074,-1.237 -1.061,-2.703 -1.867,-3.207 -0.203,-0.127 -0.421,-0.209 -0.644,-0.254 -0.667,-0.138 -1.375,0.057 -1.81,0.379 -0.579,0.431 -0.809,0.984 -1.162,1.162 -0.349,0.172 -0.844,0.564 -1.368,0.454 -0.006,-0.002 -0.012,0 -0.017,-0.001 -0.53,-0.127 -0.557,-1.313 -0.783,-2.651 -0.091,-0.54 -0.168,-0.99 -0.23,-1.348 -0.025,-0.152 -0.048,-0.283 -0.068,-0.4 0.621,-0.095 1.656,-0.286 2.984,-0.676 2.216,-0.649 2.978,-1.169 3.058,-1.225 0.101,-0.073 0.148,-0.187 0.169,-0.305 0.23,-0.146 0.439,-0.294 0.604,-0.451 0,0 0.599,-0.28 0.021,-0.842 -0.002,-0.001 -0.002,-0.001 -0.002,-0.001 v 0 c -0.581,-0.56 -0.859,-0.729 -0.859,-0.729 0,0 -0.097,-0.053 -0.145,-0.171 -0.013,-0.033 -0.02,-0.074 -0.021,-0.118 0.051,-0.094 0.119,-0.197 0.225,-0.316 0.331,-0.37 0.813,-0.627 1.433,-0.763 0.319,-0.07 1.113,-0.153 1.879,-0.119 0.597,0.028 0.945,0.078 1.181,0.164 -0.033,0.351 -0.084,0.83 -0.073,0.978 0.01,0.148 0.025,0.48 0.365,0.791 0.068,0.192 0.191,0.375 0.41,0.466 0.146,0.088 0.746,0.36 2.434,0.188 0.03,-0.006 0.729,-0.129 1.82,-0.453 2.611,-0.777 4.072,-1.208 4.343,-1.279 0.022,-0.006 0.054,-0.016 0.075,-0.021 0.133,0.266 0.354,0.68 0.729,1.318 0.865,1.488 2.371,2.062 3.021,1.993 0.57,-0.059 1.548,-0.325 1.926,-0.744 0.379,-0.421 0.76,-0.368 0.76,-0.368 0.824,-0.053 1.029,0.64 1.707,1.615 0.68,0.976 0.26,1.735 0.26,1.735 -0.449,0.596 -0.953,0.475 -1.414,0.38 -0.346,-0.072 -0.383,-0.113 -0.783,-0.189 -1.248,-0.165 -1.668,0.757 -1.668,0.757 -0.896,1.384 0.164,2.387 0.164,2.387 0,0 2.363,3.17 4.164,5.123 -1.359,0.468 -3.125,1.059 -3.125,1.059 0,0 -2.403,0.887 -3.985,1.104 -1.578,0.215 -1.931,-0.014 -2.144,-0.229 -0.218,-0.214 0.037,-0.969 0.037,-0.969 0,0 0.646,-1.316 0.334,-2 -0.311,-0.685 -2.347,-0.862 -2.379,-0.862 -0.039,0 -2.22,-0.253 -4.262,0.893 -1.814,1.017 -2.053,1.572 -2.053,1.572 0,0 -0.577,0.897 0.109,1.787 0.771,1.006 1.797,1.097 1.797,1.097 0,0 0.979,0.075 1.205,0.363 0.229,0.286 0.072,0.601 0.072,0.601 0,0 -0.32,0.884 -2.133,1.255 0,0 -3.042,0.893 -8.717,1.699 C 43.06,26.495 42.988,23.919 42.988,23.919 42.904,23.127 43,22.792 43.35,22.562 Z M 24.57,34.986 c 0,0 0.453,0.058 0.387,0.221 -0.062,0.13 -0.402,0.396 -0.402,0.396 0,0 -0.131,0.078 -0.625,0.64 -0.496,0.561 -0.642,1.105 -0.665,1.589 -0.003,0.061 0.003,0.137 0.019,0.224 0.105,0.601 0.7,1.737 2.293,2.073 1.821,0.381 3.904,-0.326 3.904,-0.326 0,0 1.365,-0.301 2.666,-1.603 0.591,-0.592 0.667,-1.235 0.565,-1.772 -0.13,-0.691 -0.554,-1.207 -0.554,-1.207 0,0 -0.212,-0.292 -0.62,-0.423 0,0 -0.097,-0.027 -0.105,-0.087 -0.002,-0.02 0.005,-0.044 0.031,-0.072 0.063,-0.07 0.184,-0.287 0.486,-0.501 0.185,-0.107 0.457,-0.233 0.83,-0.366 0.963,-0.248 3.813,-1.147 10.587,-2.043 l 0.003,-0.006 c 0.001,0.013 0.491,1.967 0.863,3.232 0.372,1.27 0.538,2.523 0.595,2.785 0.055,0.262 0.041,0.729 -0.304,1.006 -0.345,0.277 -1.187,0.512 -1.364,0.539 -0.18,0.027 -0.512,-0.041 -0.953,-0.193 -0.443,-0.151 -0.883,-0.179 -0.883,-0.179 0,0 -1.063,-0.18 -2.193,0.166 -1.132,0.343 -1.987,1.501 -2.057,2.95 -0.066,1.449 -0.054,2.181 0.513,3.463 0.564,1.282 1.586,2.014 2.357,2.027 0.774,0.014 1.406,-0.386 1.85,-1.006 0.439,-0.622 0.564,-0.719 0.564,-0.719 0.523,-0.29 1.86,-0.415 2.537,-0.165 0.678,0.247 1.921,1.026 2.606,2.564 0.555,1.242 0.727,2.633 0.698,5.134 l 0.556,0.427 -0.004,0.005 -0.563,-0.43 c -1.57,0.13 -3.389,0.344 -3.389,0.344 0,0 -4.106,0.583 -7.868,1.744 -3.193,0.982 -3.801,1.524 -3.801,1.524 0,0 -0.681,0.57 -0.112,1.392 0,0 0.325,0.517 0.985,1.034 0.656,0.518 1.185,1.012 1.109,1.261 -0.076,0.254 -0.277,0.366 -0.277,0.366 0,0 -0.92,0.817 -4.686,1.452 0,0 -2.423,0.468 -3.168,-0.264 -0.745,-0.732 -0.416,-1.225 -0.416,-1.225 0,0 0.05,-0.165 0.593,-0.504 0,0 0.91,-0.571 0.62,-1.653 -0.291,-1.086 -2.038,-2.437 -3.926,-2.425 0,0 -2.204,0.007 -7.846,0.729 0,0 -0.011,10e-4 -0.018,0.003 0.002,-0.247 -0.004,-0.511 -0.021,-0.794 -0.088,-1.59 -0.202,-4.04 -0.417,-5.466 -0.214,-1.428 -0.606,-3.637 -1.907,-3.7 0,0 -0.642,-0.051 -1.564,0.847 -0.846,0.819 -1.611,-0.678 -1.653,-1.592 -0.05,-1.072 0.126,-2.158 0.392,-2.676 0.066,-0.129 0.162,-0.227 0.269,-0.302 0.324,-0.223 0.759,-0.235 0.863,-0.227 0.139,0.013 0.531,0.164 0.998,0.454 0.353,0.22 0.803,0.273 1.167,0.124 0.12,-0.049 0.232,-0.119 0.328,-0.214 0.377,-0.379 0.906,-0.82 1.122,-2.487 0.215,-1.666 0.215,-3.396 0.013,-5.465 L 15.574,35.6 c 0.366,-0.065 0.851,-0.15 1.398,-0.234 0.609,-0.093 1.299,-0.186 2.023,-0.257 2.23,-0.216 4.585,-0.247 5.575,-0.123 z M 8.561,19.517 c 0.076,-0.056 0.197,-0.134 0.269,-0.16 0.114,-0.034 0.212,-0.109 0.273,-0.211 0.011,-0.019 1.035,-1.731 1.482,-2.384 0.146,-0.091 0.294,-0.178 0.375,-0.227 0.04,0.016 0.081,0.027 0.125,0.031 0.132,0.018 0.269,-0.025 0.371,-0.113 0.053,-0.046 0.546,-0.492 1.69,-2.036 0.086,-0.103 0.121,-0.237 0.104,-0.368 -0.011,-0.088 -0.046,-0.17 -0.099,-0.237 0.026,-0.121 0.074,-0.286 0.112,-0.369 0.008,-0.008 0.017,-0.017 0.023,-0.025 0.016,-0.019 1.639,-1.928 2.938,-3.026 0.002,-10e-4 0.165,-0.117 0.417,-0.146 0.045,-0.006 0.088,-0.018 0.129,-0.034 0.061,-0.025 1.501,-0.634 3.256,-2.172 0.072,-0.063 0.128,-0.165 0.152,-0.258 0,-0.001 0.06,-0.218 0.372,-0.636 0.254,-0.337 0.824,-0.716 1.374,-0.941 -0.181,0.162 -0.411,0.369 -0.702,0.681 -0.294,0.314 -0.393,0.507 -0.369,0.604 0.021,0.098 0.167,0.101 0.359,0.035 0.098,-0.033 0.218,-0.08 0.366,-0.144 0.006,-0.002 0.01,-0.004 0.017,-0.006 0,-0.001 0,-0.002 0,-0.002 0.372,-0.159 0.915,-0.419 1.684,-0.815 l 0.031,0.046 c 0.139,0.207 0.413,0.273 0.63,0.15 0.005,-10e-4 0.339,-0.182 0.853,-0.385 -0.294,0.631 -0.802,1.626 -1.38,2.343 0,0 -0.358,0.528 -0.636,0.398 -0.276,-0.128 -0.602,-0.138 -0.871,-0.082 -0.27,0.059 -1.106,0.335 -1.865,1.353 -0.756,1.019 -0.845,1.784 -0.438,2.012 0.406,0.228 1,-0.073 1.358,-0.39 0.266,-0.236 0.473,-0.376 0.608,-0.428 0.045,0.092 0.113,0.164 0.199,0.211 -0.002,0.063 -0.009,0.126 -0.018,0.159 -0.025,0.09 -0.147,1.306 -1.556,3.746 -0.353,0.612 -0.809,1.521 -1.023,1.958 l -10e-4,0.002 c -0.001,0 -0.006,-0.004 -0.006,-0.004 -2.285,0.424 -3.989,0.952 -4.569,1.174 C 14.011,19.042 14,18.9 14,18.9 c -0.082,-0.098 -0.026,-0.277 0.066,-0.456 0.057,-0.111 0.125,-0.219 0.189,-0.31 0.087,-0.123 0.161,-0.213 0.161,-0.213 0,0 0.626,-0.855 0.874,-1.642 0.247,-0.785 -0.854,-0.677 -0.854,-0.677 -0.726,0.115 -1.248,0.459 -1.849,1.182 -0.464,0.562 -0.749,1.331 -0.854,1.737 -0.068,0.256 -0.185,0.493 -0.185,0.493 0,0 -0.087,0.157 -0.431,0.309 -0.398,0.174 -1.176,0.379 -1.176,0.379 0,0 -0.517,0.043 -0.891,-0.144 C 8.924,19.496 8.679,19.516 8.482,19.547 8.513,19.54 8.54,19.533 8.561,19.517 Z m -0.7,0.562 C 7.862,20.077 7.864,20.075 7.864,20.073 L 7.873,20.065 C 7.871,20.067 7.87,20.068 7.869,20.069 H 7.871 L 7.709,20.31 c 0.058,-0.088 0.111,-0.168 0.16,-0.241 -0.004,0.004 -0.005,0.006 -0.008,0.01 z m -3.28,6.33 c -0.006,0.021 -0.007,0.027 -0.012,0.046 -0.056,0.203 -0.08,0.32 -0.08,0.32 -0.006,0.093 -0.002,0.158 0.009,0.205 0.016,0.059 0.043,0.092 0.1,0.089 C 4.636,27.067 4.719,26.94 4.745,27.004 4.76,27.045 4.756,27.156 4.708,27.407 4.622,27.853 4.207,29.042 4.044,29.524 3.882,30.008 3.7,30.337 3.571,30.315 3.528,30.307 3.504,30.278 3.483,30.246 3.446,30.181 3.442,30.093 3.442,30.093 c 0,0 -0.006,-0.075 -0.032,-0.127 -0.022,-0.047 -0.063,-0.071 -0.129,-0.012 0.387,-1.199 0.821,-2.38 1.3,-3.545 z M 2.967,30.968 2.97,30.96 c 0,0 0.044,-0.118 0.082,-0.175 0.03,-0.045 0.056,-0.048 0.049,0.096 -0.013,0.318 0.188,0.346 0.188,0.346 0.128,-0.019 0.266,-0.165 0.407,-0.4 l 10e-4,0.002 C 3.701,30.823 3.705,30.814 3.709,30.808 3.766,30.712 3.823,30.601 3.884,30.475 3.899,30.443 3.914,30.405 3.93,30.369 3.975,30.27 4.022,30.164 4.068,30.05 4.088,30 4.108,29.948 4.13,29.896 4.173,29.787 4.216,29.67 4.259,29.551 4.28,29.492 4.302,29.435 4.322,29.375 4.358,29.271 4.394,29.163 4.431,29.054 4.455,28.983 4.479,28.915 4.502,28.841 4.522,28.782 4.537,28.728 4.555,28.67 4.596,28.539 4.637,28.41 4.674,28.283 4.7,28.188 4.727,28.098 4.751,28.008 4.777,27.913 4.802,27.823 4.826,27.733 4.847,27.649 4.869,27.566 4.889,27.485 4.924,27.343 4.956,27.209 4.984,27.086 5,27.02 5.01,26.964 5.023,26.903 5.041,26.826 5.055,26.757 5.068,26.691 5.072,26.67 5.08,26.637 5.084,26.617 L 5.083,26.618 C 5.12,26.424 5.142,26.29 5.142,26.258 5.142,26.154 5.088,26.073 4.996,26.126 4.902,26.18 4.876,26.14 4.876,26.14 4.874,26.118 4.879,26.083 4.886,26.046 4.888,26.04 4.888,26.035 4.89,26.028 4.952,25.723 5.222,25.06 5.222,25.06 5.365,24.697 5.515,24.343 5.669,24 c 0.015,-0.032 0.029,-0.063 0.043,-0.095 0.075,-0.162 0.149,-0.322 0.226,-0.479 0.004,-0.01 0.008,-0.019 0.014,-0.028 0.593,-1.224 1.211,-2.244 1.647,-2.919 0.08,-0.012 0.084,-0.007 0.23,-0.053 0,0 0.386,-0.063 1.065,0.115 0.876,0.232 1.978,-0.475 1.978,-0.475 0,0 0.016,-0.011 0.042,-0.027 0.005,-0.002 0.009,-0.006 0.014,-0.01 0.026,-0.017 0.06,-0.039 0.102,-0.07 0.01,-0.007 0.021,-0.016 0.031,-0.023 0.041,-0.029 0.084,-0.063 0.135,-0.104 0.017,-0.013 0.035,-0.028 0.053,-0.044 0.047,-0.038 0.094,-0.079 0.144,-0.126 0.014,-0.011 0.024,-0.021 0.038,-0.034 -0.002,0.002 -0.005,0.004 -0.007,0.004 0.236,-0.223 0.496,-0.521 0.668,-0.888 l 0.346,-0.961 c 0,0 0.279,-0.931 1.059,-1.227 0,0 0.303,-0.163 0.796,-0.17 0.307,-0.002 0.376,0.131 0.386,0.23 0.005,0.06 -0.011,0.107 -0.011,0.107 0,0 -0.054,0.223 -0.562,0.873 -0.507,0.648 -0.642,1.145 -0.642,1.145 0,0 -0.172,0.389 -0.052,0.679 0.041,0.097 0.113,0.183 0.235,0.239 0,0 0.23,0.135 0.899,-0.088 0.67,-0.223 2.891,-0.807 4.248,-1.015 l 0.01,-0.004 -0.003,0.006 c -0.254,0.726 -0.579,1.862 -0.45,2.499 0.194,0.968 1.108,0.968 1.108,0.968 0,0 0.204,0.007 0.507,-0.057 0.019,0.009 0.03,0.029 0.051,0.036 0.166,0.055 0.485,0.063 1.043,-0.222 0.045,-0.022 0.08,-0.028 0.12,-0.041 0.328,0.305 0.419,1.204 0.419,1.391 0,0.253 -0.006,1.652 -0.977,2.337 0,0 -0.391,0.301 -0.942,0.301 -0.555,0 -0.913,-0.162 -0.913,-0.162 0,0 -0.941,-0.26 -1.522,0.079 -0.578,0.344 -1.269,1.051 -1.815,2.077 -0.544,1.026 -1.001,2.858 -0.976,4.21 0.02,1.063 0.172,2.069 0.279,2.756 l 0.633,0.413 c -0.002,0 -0.003,0 -0.005,0 v 10e-4 H 15.36 v -10e-4 l -0.644,-0.415 c 0,0 -2.192,0.578 -4.668,0.563 C 8.307,35.283 8.356,34.37 8.576,33.77 c 0.03,-0.084 0.064,-0.163 0.098,-0.232 0.009,-0.019 0.019,-0.037 0.027,-0.054 0.03,-0.06 0.061,-0.116 0.084,-0.152 0.027,-0.047 0.047,-0.076 0.047,-0.076 0,0 0.61,-1.071 0.719,-1.688 0,0 0.215,-1.671 -1.359,-1.562 -1.575,0.106 -1.885,1.479 -1.885,1.479 0,0 -0.106,0.767 -0.084,1.333 0.02,0.568 -0.002,1.768 -0.711,2.45 -0.705,0.683 -1.464,0.475 -1.464,0.475 0,0 -1.274,-0.558 -1.527,-0.688 -0.2,-0.104 -0.382,-0.114 -0.557,-0.086 0.278,-1.352 0.612,-2.686 1.003,-4.001 z M 1.502,50.479 1.249,50.12 C 1.057,48.357 0.957,46.563 0.957,44.782 c 0,-2.772 0.236,-5.544 0.699,-8.241 l 0.216,-0.483 c 0.021,-0.045 0.03,-0.093 0.036,-0.141 0.205,0.041 0.389,0.133 0.389,0.133 0,0 1.088,0.585 1.571,0.686 0.486,0.102 0.838,-0.063 1.154,-0.279 0.065,-0.046 0.135,-0.113 0.203,-0.171 0.059,-0.049 0.114,-0.088 0.172,-0.145 0.045,-0.044 0.087,-0.097 0.13,-0.144 0.077,-0.081 0.154,-0.159 0.228,-0.25 -0.007,0.007 -0.015,0.013 -0.022,0.02 0.205,-0.254 0.378,-0.534 0.513,-0.82 -0.008,0.025 -0.016,0.05 -0.03,0.086 0.057,-0.115 0.107,-0.229 0.148,-0.338 0.025,-0.073 0.049,-0.162 0.069,-0.261 0.008,-0.032 0.014,-0.069 0.02,-0.105 0.012,-0.053 0.021,-0.104 0.031,-0.161 -0.003,0.011 -0.005,0.019 -0.007,0.028 0.047,-0.288 0.081,-0.615 0.104,-0.917 0,0.006 0,0.012 0,0.018 0.038,-0.479 0.049,-0.875 0.049,-0.891 l 0.004,0.012 v -0.006 l 10e-4,0.004 c 0,0 0,-0.404 -0.011,-0.497 C 6.621,31.91 6.621,31.895 6.619,31.881 6.603,31.746 6.573,31.374 6.818,31.173 c 0.266,-0.225 0.439,-0.332 1.095,-0.349 0.651,-0.017 0.849,0.363 0.849,0.363 0,0 0.221,0.311 0.222,0.512 0,0.199 -0.064,0.324 -0.064,0.324 0,0 -0.354,0.6 -0.479,0.894 -0.125,0.292 -0.609,1.269 -0.468,2.083 0,0.002 0,0.002 0,0.002 v 0.003 c 0.142,0.815 1.416,1.197 1.416,1.197 0,0 1.016,0.239 2.465,0.025 l 2.986,-0.481 0.52,-0.597 0.004,0.007 -0.513,0.588 c 0.075,1.088 0.161,3.219 0.147,3.934 -0.017,0.873 -0.146,2.718 -1.066,3.151 0,0 -0.311,0.163 -0.831,-0.228 -0.521,-0.392 -1.083,-0.408 -1.312,-0.417 -0.227,-0.007 -1.23,0.155 -1.62,1.255 -0.391,1.097 -0.358,2.574 -0.276,3.443 0.082,0.871 0.838,2.354 1.791,2.354 0,0 0.464,0.033 1.01,-0.528 0.544,-0.562 0.863,-0.611 1.106,-0.604 0.245,0.009 0.718,0.261 1.026,2.729 0.294,2.338 0.419,4.253 0.396,6.383 l 0.564,0.367 c 0,0.001 0,0.002 0,0.003 -0.004,0 -0.006,0 -0.009,0 l -0.569,-0.371 c -0.311,0.038 -0.684,0.073 -1.067,0.104 -0.968,0.065 -2.37,-0.057 -4.115,-0.571 C 8.342,56.247 7.278,55.351 7.063,54.772 7.058,54.749 7.042,54.723 7.039,54.7 7.014,54.607 7.002,54.51 6.999,54.407 6.996,54.378 6.998,54.355 6.996,54.329 7,54.029 7.067,53.753 7.067,53.753 c 0,0 0.328,-1.26 0.122,-2.298 C 7.166,51.339 7.14,51.226 7.112,51.117 7.105,51.077 7.099,51.042 7.095,51.015 7.086,50.991 7.079,50.96 7.073,50.934 7.064,50.913 7.052,50.894 7.044,50.874 6.816,50.107 6.437,49.482 5.628,48.995 c -1.002,-0.604 -1.572,-0.5 -1.572,-0.5 0,0 -0.899,-0.137 -0.866,1.386 0.036,1.521 0.226,2.159 0.226,2.159 0,0 0.173,0.537 -0.104,0.606 C 3.037,52.715 2.603,52.3 2.603,52.3 2.603,52.3 2.408,52.122 2.14,51.862 2.106,51.826 2.073,51.792 2.038,51.754 1.857,51.573 1.658,51.365 1.465,51.152 l 0.088,-0.219 c 0.06,-0.149 0.042,-0.32 -0.051,-0.454 z m 1.742,8.998 c 0.002,-0.005 10e-4,-0.014 0.004,-0.014 0.078,-0.014 0.556,0.848 0.828,1.668 0.317,0.947 0.531,1.737 0.531,1.737 0,0 0.174,0.536 0.161,0.727 C 4.196,62.245 3.689,60.872 3.244,59.477 Z M 7.956,69.845 7.877,69.559 C 7.848,69.455 7.785,69.368 7.699,69.303 L 7.582,69.215 C 6.687,67.694 5.892,66.129 5.175,64.535 5.178,64.526 5.178,64.507 5.18,64.496 5.188,64.468 5.195,64.434 5.196,64.389 5.197,64.359 5.193,64.32 5.191,64.282 5.187,64.223 5.179,64.16 5.169,64.083 5.165,64.06 5.167,64.048 5.162,64.021 5.16,64.019 5.159,64.019 5.157,64.017 5.08,63.557 4.87,62.793 4.411,61.552 3.911,60.198 3.59,59.474 3.387,59.079 c 0,-0.002 10e-4,-0.003 0.002,-0.005 -0.02,-0.038 -0.037,-0.07 -0.055,-0.102 0,0 -10e-4,0.003 -10e-4,0.005 C 3.163,58.663 3.091,58.613 3.069,58.586 3.045,58.555 2.982,58.496 2.941,58.518 2.315,56.404 1.844,54.241 1.513,52.039 c 0.076,0.089 0.159,0.185 0.253,0.289 l 0.002,0.002 c 0.167,0.187 0.364,0.399 0.598,0.641 l 0.002,0.002 v 0 c 0,10e-4 0.001,10e-4 0.001,10e-4 1.038,1.073 1.366,0.398 1.366,0.398 0,0 0.017,-0.048 0.035,-0.139 0.002,-0.009 0.004,-0.021 0.006,-0.03 0.007,-0.039 0.015,-0.082 0.022,-0.135 0.003,-0.02 0.004,-0.04 0.007,-0.061 0.006,-0.053 0.012,-0.106 0.016,-0.171 0,-0.011 0.002,-0.018 0.002,-0.027 0,0.002 -0.002,0.004 -0.002,0.006 0.006,-0.128 0.006,-0.279 -0.003,-0.452 0,0.004 0,0.009 10e-4,0.014 0,-0.005 -10e-4,-0.012 -10e-4,-0.017 C 3.812,52.272 3.8,52.179 3.79,52.081 3.784,52.029 3.779,51.979 3.771,51.924 3.755,51.821 3.732,51.708 3.707,51.595 3.697,51.552 3.692,51.515 3.683,51.47 3.682,51.465 3.68,51.461 3.679,51.456 3.5,50.7 3.451,50.137 3.573,49.822 c 0.032,-0.087 0.083,-0.146 0.139,-0.196 0.02,-0.015 0.039,-0.027 0.061,-0.039 0.046,-0.025 0.103,-0.038 0.162,-0.045 0.021,-0.002 0.038,-0.009 0.061,-0.009 0.553,0.019 2.161,0.346 2.662,1.677 0,0 0.207,0.622 0.018,1.416 -0.191,0.799 -0.155,1.504 -0.018,2.197 0.139,0.693 0.727,1.347 1.402,1.887 0.675,0.538 2.629,1.47 4.531,1.59 1.902,0.121 2.489,0.021 2.489,0.021 l 0.708,-0.729 c 0,0.005 0,0.01 0,0.015 l -0.71,0.721 c -0.042,0.189 -0.086,0.397 -0.137,0.599 -0.162,0.653 -0.18,1.307 -0.022,2.46 0.153,1.158 0.775,3.562 1.679,4.188 1.198,0.834 1.981,0.818 2.792,0.757 0.806,-0.064 1.362,-0.683 1.362,-0.683 0,0 0.316,-0.326 0.655,-0.227 0.342,0.1 1.289,0.632 1.97,1.995 0.683,1.364 0.834,2.864 -0.302,3.132 -1.136,0.261 -3.094,-0.81 -3.094,-0.81 0,0 -1.11,-0.619 -2.018,0.062 -0.911,0.684 -0.936,1.729 -0.48,3.016 0.249,0.706 0.748,1.854 1.447,3.052 l 0.676,0.283 C 19.604,76.15 19.602,76.15 19.6,76.149 l -0.678,-0.282 c -1.091,-0.213 -3.104,-0.641 -3.901,-1.038 -0.313,-0.157 -0.56,-0.235 -0.736,-0.334 -0.086,-0.049 -0.157,-0.104 -0.206,-0.172 -0.082,-0.118 -0.111,-0.28 -0.078,-0.551 0.098,-0.734 -0.72,-1.757 -0.72,-1.757 0,0 -1.138,-1.231 -2.161,-1.997 -1.023,-0.77 -1.459,-0.54 -1.459,-0.54 0,0 -0.462,0.247 -0.047,1.241 0.418,0.994 0.824,1.342 0.824,1.342 0,0 0.199,0.212 0.085,0.269 C 10.411,72.389 10.059,72.121 9.768,71.872 9.634,71.761 9.092,71.26 8.545,70.748 8.35,70.441 8.144,70.153 7.956,69.845 Z m 24.693,20.329 c 1.268,0.168 2.885,0.352 3.436,0.405 l 0.01,-0.005 c -0.005,0.086 -0.04,0.177 -0.091,0.295 -0.095,0.218 0.108,0.38 0.297,0.479 -1.237,-0.34 -2.452,-0.738 -3.652,-1.174 z m 4.023,0.14 -0.007,-0.005 0.147,0.009 c -0.117,-0.105 -0.266,-0.203 -0.431,-0.301 -0.018,-0.01 -0.028,-0.021 -0.046,-0.03 0.013,0.007 0.026,0.02 0.039,0.026 -0.052,-0.03 -0.099,-0.062 -0.156,-0.092 -0.669,-0.355 -3.571,-2.273 -4.469,-2.881 -0.6,-0.405 -1.497,-0.99 -2.236,-1.273 -0.054,-0.022 -0.104,-0.04 -0.149,-0.054 -0.303,-0.102 -0.573,-0.147 -0.771,-0.087 -0.53,0.164 -0.455,0.377 -0.77,0.531 -0.236,0.11 -0.485,0.084 -0.917,-0.107 -0.009,-0.004 -0.018,-0.008 -0.025,-0.012 -0.145,-0.064 -0.307,-0.146 -0.497,-0.248 -0.059,-0.03 -0.112,-0.061 -0.169,-0.09 -0.092,-0.048 -0.183,-0.098 -0.271,-0.146 -0.475,-0.26 -0.964,-0.576 -1.746,-1.263 -0.069,-0.062 -0.135,-0.118 -0.21,-0.187 -0.155,-0.14 -0.317,-0.289 -0.495,-0.459 -1.193,-1.134 1.526,-0.111 1.526,-0.111 0,0 0.592,0.25 0.328,-0.369 -0.031,-0.071 -0.079,-0.158 -0.137,-0.255 -0.03,-0.053 -0.071,-0.112 -0.109,-0.169 -0.032,-0.051 -0.063,-0.098 -0.099,-0.149 -0.052,-0.075 -0.11,-0.155 -0.171,-0.235 -0.032,-0.045 -0.064,-0.09 -0.1,-0.136 -0.067,-0.089 -0.139,-0.18 -0.211,-0.273 -0.04,-0.05 -0.079,-0.099 -0.118,-0.148 -0.074,-0.093 -0.15,-0.186 -0.229,-0.281 -0.055,-0.063 -0.108,-0.129 -0.164,-0.193 -0.07,-0.084 -0.14,-0.167 -0.213,-0.252 -0.087,-0.102 -0.177,-0.202 -0.268,-0.306 -0.046,-0.052 -0.09,-0.103 -0.136,-0.153 -0.108,-0.12 -0.217,-0.239 -0.327,-0.359 0.006,0.006 0.008,0.009 0.017,0.02 -0.199,-0.218 -0.401,-0.433 -0.602,-0.64 -0.383,-0.395 -0.694,-0.739 -0.984,-1.078 0.009,0.009 0.016,0.019 0.024,0.026 -0.5,-0.58 -0.915,-1.138 -1.366,-1.791 l -0.53,-0.619 c 0.003,0.007 0.008,0.013 0.012,0.019 l -0.021,-0.022 -0.181,0.517 c 0.471,0.717 1.01,1.415 1.606,2.016 0,0 2.36,2.611 3.674,4.267 0,0 0.076,0.15 -0.15,0.015 -0.229,-0.14 -1.213,-0.594 -1.743,-0.541 -0.53,0.052 -0.431,0.378 -0.431,0.378 0,0 0.228,1.2 3.839,3.222 0,0 1.3,0.732 2.121,0.732 0,0 0.265,0.037 0.592,-0.331 0.331,-0.363 0.432,-0.325 0.658,-0.251 0.229,0.073 0.53,0.237 1.668,1.059 1.137,0.82 3.347,2.084 4.14,2.614 0.258,0.172 0.421,0.297 0.528,0.401 -1.623,-0.13 -3.404,-0.342 -4.341,-0.476 -0.419,-0.164 -0.834,-0.337 -1.247,-0.512 -0.198,-0.121 -0.431,-0.263 -0.66,-0.399 -0.495,-0.3 -1.984,-0.868 -1.984,-0.868 0,0 -0.154,-0.06 -0.365,-0.138 -1.777,-0.902 -3.494,-1.915 -5.146,-3.035 0.288,0.097 0.59,0.145 0.814,0.012 -0.054,-0.543 -0.673,-0.981 -1.026,-1.249 -0.129,-0.099 -0.22,-0.271 -0.341,-0.379 -0.454,-0.4 -0.984,-0.79 -1.478,-1.138 -0.407,-0.284 -0.965,-0.455 -1.328,-0.793 -0.01,-0.082 0.117,-0.284 0.039,-0.493 -0.319,-0.858 -1.521,-1.851 -2.271,-2.31 -0.348,-0.217 -0.931,-0.313 -1.249,-0.531 -0.235,-0.017 -0.359,-0.023 -0.417,0.147 -0.094,0.209 0.2,0.499 0.301,0.646 0.261,0.364 0.558,0.79 0.911,1.057 0.264,0.2 0.564,0.375 0.793,0.607 h 0.114 c -0.146,-0.407 -0.582,-0.629 -0.907,-0.87 -0.299,-0.22 -0.431,-0.604 -0.683,-0.87 0.021,-0.119 0.033,-0.11 0.076,-0.19 1.048,0.01 1.726,0.97 2.196,1.592 0.21,0.277 0.547,0.44 0.569,0.91 -0.112,0 -0.208,0 -0.265,-0.039 h -0.114 c 0.181,0.499 0.789,0.458 1.213,0.722 0.851,0.525 1.535,1.349 2.271,2.004 0.25,0.225 0.688,0.447 0.757,0.836 -0.514,-0.026 -0.877,-0.312 -1.207,-0.53 -0.039,-0.025 -0.09,-0.062 -0.131,-0.09 -0.485,-0.354 -0.958,-0.727 -1.43,-1.1 -0.145,-0.139 -0.275,-0.274 -0.371,-0.402 -0.077,-0.099 -0.102,-0.251 -0.191,-0.339 -0.104,-0.106 -0.25,-0.14 -0.34,-0.264 h -0.151 c -0.006,0.068 0.017,0.131 0.035,0.192 -3.355,-2.802 -6.355,-6.084 -8.906,-9.798 0.05,0.041 0.095,0.081 0.148,0.123 1.115,0.873 1.396,0.828 1.468,0.751 0.027,-0.024 0.029,-0.056 0.029,-0.056 0,0 0.058,-0.382 -0.285,-0.806 -0.095,-0.114 -0.204,-0.271 -0.312,-0.438 -0.045,-0.07 -0.09,-0.14 -0.133,-0.214 -0.131,-0.225 -0.244,-0.455 -0.299,-0.648 -0.004,-0.013 -0.004,-0.023 -0.008,-0.036 -0.013,-0.054 -0.023,-0.104 -0.026,-0.149 -0.002,-0.049 0.004,-0.09 0.016,-0.128 0.002,-0.006 10e-4,-0.019 0.003,-0.024 0.139,-0.32 0.296,-0.292 0.296,-0.292 0,0 0.128,-0.052 0.57,0.284 0.442,0.334 1.435,1.032 1.926,1.632 0.483,0.591 0.461,1.112 0.459,1.125 0,0.002 -0.005,0.034 -0.006,0.093 -0.004,0.177 0.036,0.592 0.438,1.031 0.532,0.578 1.659,1.641 5.608,2.248 0.021,0.005 0.039,0.005 0.059,0.009 l 0.183,-0.521 0.004,0.006 0.002,-0.004 0.008,0.009 c 0,0 -0.002,-0.003 -0.003,-0.004 l 0.534,0.623 c 0.006,0 0.01,0.001 0.016,0.002 3.438,0.496 5.307,0.539 5.307,0.539 0,0 4.508,0.157 5.727,0.157 1.036,0 1.025,0.458 0.999,0.595 -0.004,0.021 -0.008,0.033 -0.008,0.033 0,0 -0.068,0.345 -0.215,0.619 -0.093,0.172 -0.266,0.642 -0.293,1.104 -0.018,0.278 0.018,0.553 0.154,0.761 0,0 0.56,1.365 4.194,1.462 0,0 3.182,0.257 5.402,-0.657 0.697,-0.287 0.976,-0.609 1.032,-0.916 0.133,-0.671 -0.816,-1.271 -0.816,-1.271 0,0 -0.76,-0.461 -1.082,-0.708 -0.146,-0.112 -0.19,-0.226 -0.19,-0.332 0.002,-0.104 0.044,-0.199 0.073,-0.276 0.058,-0.155 0.284,-0.341 0.54,-0.472 0.253,-0.128 1.188,-0.625 5.135,-1.647 3.948,-1.021 6.306,-1.132 6.306,-1.132 0,0 0.021,-0.003 0.037,-0.005 0.379,0.918 0.67,1.426 1.248,2.055 0.619,0.674 1.601,1.197 2.758,1.641 1.16,0.442 0.634,1.228 0.634,1.228 -0.661,1.435 -2.634,1.49 -3.212,1.56 -0.578,0.067 -1.791,0.18 -2.926,0.428 -1.132,0.249 -2.193,0.4 -2.83,1.131 -0.632,0.731 -0.384,1.49 -0.011,2.291 0.37,0.799 1.364,1.227 2.73,1.175 1.364,-0.057 2.249,-0.456 3.075,-0.815 0.826,-0.358 2.262,-0.773 2.69,-0.896 0.427,-0.123 1.007,-0.372 1.435,0.249 0.461,0.672 0.951,1.624 1.177,2.347 l 0.524,-0.116 c 0,0.002 0,0.004 0,0.006 -0.094,0.021 -0.176,0.039 -0.244,0.054 -0.157,0.033 -0.241,0.058 -0.241,0.058 0,0 -1.161,0.278 -3.091,1.025 -1.93,0.749 -5.717,1.368 -5.717,1.368 0,0 -1.232,0.145 -2.025,0.341 0.092,-0.03 0.169,-0.047 0.169,-0.047 0,0 0.916,-0.186 1.836,-0.307 0,0 -2.435,0.28 -2.659,0.598 -0.078,0.126 -0.067,0.227 -0.024,0.303 0.06,0.127 0.216,0.19 0.216,0.19 0,0 0.346,0.214 1.598,0.271 0,0 0.433,0 0.452,0.035 0.001,0.001 0.001,0.004 0.001,0.004 0.005,0.009 0.009,0.019 0.007,0.026 0,0.003 -0.003,0.007 -0.004,0.01 -0.008,0.015 -0.025,0.03 -0.066,0.05 -0.037,0.017 -0.085,0.034 -0.163,0.06 -0.273,0.085 -0.817,0.301 -2.658,0.534 -1.218,0.154 -1.613,0.079 -1.745,0.008 0,0 0,0 0.001,0 -0.075,-0.038 -0.07,-0.076 -0.07,-0.076 0,0 -10e-4,-0.02 0.005,-0.05 0.009,-0.034 0.027,-0.086 0.068,-0.152 0.021,-0.031 0.032,-0.07 0.032,-0.112 0.003,-0.126 -0.092,-0.283 -0.312,-0.404 0.002,-0.002 -0.072,-0.048 -0.259,-0.103 0,0 0.016,0.006 0.033,0.018 -0.242,-0.073 -0.708,-0.167 -1.526,-0.161 -1.347,0.009 -4.031,0.017 -6.541,-0.133 -0.053,-0.021 -0.112,-0.025 -0.166,-0.029 z m 5.933,2.331 c -0.834,-0.113 -1.662,-0.245 -2.485,-0.4 0.497,-0.026 0.838,-0.048 1.262,0.04 0.604,0.127 1.226,0.277 1.287,0.33 0.022,0.017 -0.016,0.026 -0.064,0.03 z m 9.825,0.347 c 0.655,-0.087 1.442,-0.138 1.881,-0.185 0.186,-0.021 0.308,-0.023 0.394,-0.021 -0.755,0.088 -1.514,0.154 -2.275,0.206 z m 3.439,-0.347 c -0.053,-0.034 -0.186,-0.064 -0.49,-0.078 -0.273,-0.012 -0.554,-0.01 -0.836,0 -0.398,0.002 -0.92,0.021 -1.395,0.089 -0.33,0.046 -0.66,0.102 -0.95,0.151 -0.093,0.014 -0.185,0.023 -0.276,0.037 -0.617,0.089 -0.896,0.168 -1.021,0.226 -0.537,0.019 -1.074,0.038 -1.615,0.038 -1.931,0 -3.837,-0.127 -5.72,-0.346 0.058,-0.059 -0.076,-0.136 -0.167,-0.179 -0.046,-0.022 -0.084,-0.038 -0.084,-0.038 0,0 -0.084,-0.039 -0.255,-0.098 -0.001,10e-4 -0.003,10e-4 -0.004,0.002 -0.018,-0.006 -0.033,-0.013 -0.053,-0.019 0.008,0.002 0.021,0.004 0.029,0.006 -0.096,-0.03 -0.225,-0.067 -0.37,-0.106 -0.004,-0.001 -0.009,-0.002 -0.014,-0.004 -0.111,-0.028 -0.233,-0.06 -0.372,-0.088 -0.003,-0.002 -0.005,-0.002 -0.007,-0.002 -0.288,-0.063 -0.631,-0.126 -1.046,-0.178 0.014,0.003 0.027,0.005 0.042,0.008 -0.218,-0.026 -0.45,-0.053 -0.703,-0.071 0,0 -0.77,-0.054 -1.439,0.013 -0.028,0.003 -0.058,0.001 -0.086,0.003 0.004,-10e-4 0.011,-0.002 0.015,-0.003 -0.009,0.001 -0.019,0 -0.027,0 -0.496,-0.105 -0.991,-0.217 -1.483,-0.338 -0.274,-0.111 -0.676,-0.318 -0.514,-0.532 0.119,-0.158 0.131,-0.321 0.062,-0.479 1.057,0.064 2.445,0.14 2.445,0.14 0,0 2.849,0.106 4.408,-0.02 0.701,-0.061 0.484,0.305 0.484,0.305 0,0 -0.204,0.339 0.198,0.506 0,0 0.737,0.42 3.199,0.15 2.463,-0.273 3.005,-0.825 3.005,-0.825 0,0 0.285,-0.263 -0.337,-0.38 -0.036,-0.008 -0.065,-0.014 -0.099,-0.02 -0.014,-0.005 -0.033,-0.013 -0.039,-0.015 -0.006,0 -0.012,0 -0.019,-0.003 -0.008,-0.002 -0.015,-0.002 -0.021,-0.004 -0.006,0 -0.008,-0.002 -0.012,-0.002 -0.006,-0.001 -0.014,-0.001 -0.021,-0.003 -0.003,0 -0.009,0 -0.015,-0.002 -0.004,0 -0.01,-0.002 -0.016,-0.002 -0.004,0 -0.012,-0.003 -0.018,-0.005 -0.004,0 -0.012,0 -0.016,0 -0.007,-0.003 -0.013,-0.003 -0.017,-0.005 -0.004,0 -0.013,0 -0.015,-0.002 -0.006,0 -0.012,0 -0.018,0 -0.002,-0.004 -0.009,-0.004 -0.011,-0.004 -0.011,-0.001 -0.015,-0.003 -0.021,-0.003 -0.004,0 -0.006,0 -0.008,0 -0.01,-0.001 -0.021,-0.001 -0.027,-0.002 0,0 -0.002,0 -0.004,-0.002 -0.006,0 -0.014,0 -0.021,0 -0.004,-0.002 -0.006,-0.002 -0.011,-0.002 -0.006,0 -0.012,0 -0.02,0 -0.005,0 -0.007,0 -0.009,0 -0.007,-0.002 -0.012,-0.002 -0.019,-0.002 -0.002,0 -0.006,0 -0.008,0 -0.008,0 -0.015,-0.003 -0.019,-0.003 -0.004,0 -0.008,-0.002 -0.011,-0.002 -0.007,0 -0.015,0 -0.02,0 -0.005,0 -0.005,0 -0.007,0 -0.037,-0.004 -0.076,-0.004 -0.122,-0.009 -0.002,0 -0.004,0 -0.004,0 -0.009,0 -0.015,-0.002 -0.021,-0.002 -0.002,0 -0.008,0 -0.012,0 -0.006,0 -0.012,0 -0.021,0 -0.004,-0.003 -0.009,-0.003 -0.013,-0.003 -0.006,0 -0.013,-0.002 -0.019,-0.002 -0.005,0 -0.012,0 -0.016,-0.002 -0.005,0 -0.011,0 -0.019,0 -0.009,0 -0.019,-0.002 -0.026,-0.004 -0.006,0 -0.012,0 -0.019,0 -0.008,0 -0.017,-0.002 -0.027,-0.002 -0.004,0 -0.01,-0.002 -0.015,-0.002 -0.009,0 -0.018,0 -0.023,-0.001 -0.005,-10e-4 -0.012,-10e-4 -0.02,-10e-4 -0.007,-0.002 -0.018,-0.002 -0.025,-0.004 -0.005,0 -0.012,0 -0.019,0 -0.008,-0.002 -0.018,-0.003 -0.025,-0.003 -0.006,-0.001 -0.016,-0.001 -0.021,-0.003 -0.009,0 -0.019,-0.003 -0.026,-0.003 -0.007,-0.002 -0.013,-0.002 -0.021,-0.002 -0.011,0 -0.022,-0.002 -0.033,-0.004 -0.006,0 -0.014,0 -0.019,0 -0.019,-0.004 -0.036,-0.006 -0.055,-0.006 -0.136,-0.02 -0.26,-0.031 -0.362,-0.054 l -0.151,-0.02 c -0.232,-0.065 -0.273,-0.147 10e-4,-0.22 0.421,-0.109 1.123,-0.169 1.123,-0.169 0,0 2.152,-0.3 3.892,-0.748 0,0 1.856,-0.438 3.696,-1.087 0.725,-0.253 1.335,-0.438 1.807,-0.571 l 0.418,-0.613 c 0,0.001 0,0.003 0,0.003 l -0.41,0.606 c 0.092,0.626 -0.101,0.837 -0.244,1.069 -0.148,0.249 -0.563,0.567 -0.357,1.135 0.208,0.564 1.614,0.385 2.428,0.139 0.814,-0.249 1.5,-0.47 2.041,-0.664 0.538,-0.188 0.688,0.082 0.688,0.082 0,0 0.235,0.168 -0.55,0.581 -0.174,0.091 -0.381,0.169 -0.603,0.24 -0.03,0.009 -0.054,0.019 -0.087,0.027 -0.174,0.055 -0.357,0.1 -0.543,0.142 -0.048,0.011 -0.098,0.021 -0.146,0.031 -0.153,0.033 -0.307,0.063 -0.457,0.09 -0.062,0.012 -0.123,0.021 -0.187,0.031 -0.124,0.021 -0.244,0.038 -0.356,0.055 -0.067,0.011 -0.135,0.02 -0.196,0.027 -0.125,0.017 -0.252,0.033 -0.351,0.044 -0.084,0.012 -0.154,0.018 -0.217,0.022 -0.037,0.003 -0.07,0.005 -0.104,0.007 -0.021,0.002 -0.045,0.004 -0.063,0.005 -0.041,0.003 -0.079,0.004 -0.114,0.007 -0.025,0.002 -0.053,0.005 -0.078,0.009 -0.012,0.002 -0.024,0.003 -0.037,0.005 -0.033,0.003 -0.069,0.011 -0.106,0.019 -0.007,10e-4 -0.013,0.002 -0.019,0.004 -0.153,0.032 -0.366,0.098 -0.779,0.24 -1.035,0.36 -0.066,0.677 -0.066,0.677 0.521,0.136 1.004,0.21 1.449,0.254 -1.439,0.352 -2.921,0.632 -4.42,0.841 z m 19.754,-7.483 c -0.02,0.021 -0.042,0.042 -0.062,0.062 -4.336,2.836 -9.137,4.994 -14.244,6.328 -0.457,-0.036 -0.779,-0.1 -0.945,-0.122 -0.412,-0.056 -0.745,-0.138 -0.842,-0.346 -0.014,-0.025 -0.014,-0.047 -0.01,-0.065 0.043,-0.136 0.466,-0.125 0.466,-0.125 h 0.002 c 0,0 0.089,-0.011 0.229,-0.029 0.416,-0.057 1.354,-0.201 2.334,-0.473 0.18,-0.049 0.359,-0.102 0.537,-0.159 1.49,-0.483 1.85,-0.938 1.791,-1.282 -0.009,-0.052 -0.035,-0.093 -0.074,-0.126 -0.012,-0.013 -0.027,-0.021 -0.043,-0.031 -0.031,-0.021 -0.07,-0.037 -0.113,-0.052 -0.021,-0.006 -0.043,-0.014 -0.065,-0.02 -0.062,-0.012 -0.128,-0.019 -0.203,-0.021 -0.014,-10e-4 -0.024,-0.003 -0.038,-0.003 -0.087,0 -0.184,0.008 -0.285,0.021 -0.017,0.001 -0.027,0 -0.045,0.002 0.01,-0.001 0.017,10e-4 0.023,0 -0.255,0.032 -0.551,0.101 -0.864,0.201 -0.896,0.293 -2.233,0.718 -2.548,0.786 -0.078,0.017 -0.156,0.028 -0.232,0.034 0.008,-0.002 0.012,-0.002 0.02,-0.004 -0.115,0.009 -0.225,0.002 -0.318,-0.021 -0.013,-0.003 -0.025,-0.007 -0.039,-0.012 -0.088,-0.026 -0.162,-0.068 -0.203,-0.136 0,-0.001 -0.002,-0.001 -0.002,-0.001 -0.109,-0.196 -0.207,-0.509 0.14,-0.867 0.345,-0.36 0.385,-0.664 0.385,-0.664 0.034,-0.157 0.04,-0.322 0.036,-0.488 0,-0.042 -0.004,-0.083 -0.008,-0.125 -0.004,-0.051 -0.002,-0.1 -0.008,-0.151 0.06,-0.013 0.096,-0.019 0.096,-0.019 0,0 2.208,-0.516 3.133,-0.673 0.926,-0.16 3.02,-0.61 3.914,-1.039 0.889,-0.431 1.335,-0.771 1.439,-1.03 0.103,-0.26 -0.377,-0.411 -0.377,-0.411 0,0 -0.562,-0.133 -0.485,-0.325 0.071,-0.196 0.28,-0.366 1.161,-0.761 0.879,-0.393 1.98,-0.82 3.089,-1.095 1.104,-0.27 0.7,0.186 0.7,0.186 0,0 -0.662,0.676 -0.75,0.938 -0.082,0.261 0.029,0.271 0.115,0.319 0.084,0.047 0.617,0.024 0.979,-0.065 0.365,-0.094 3.314,-1.216 5.111,-2.246 0.047,-0.024 0.09,-0.052 0.133,-0.076 l 0.375,-0.623 0.002,0.001 c -0.002,0.002 -0.002,0.001 -0.002,0.003 -0.021,0.032 -0.03,0.057 -0.049,0.088 -0.537,0.867 -0.762,1.367 -0.762,1.367 0,0 -0.273,0.526 -0.299,0.826 -0.023,0.301 -0.242,0.26 -0.242,0.26 0,0 -0.459,-0.023 -1.119,0.258 -0.02,0.008 -0.033,0.012 -0.056,0.019 0,0 -0.026,0.015 -0.073,0.038 -0.215,0.102 -0.447,0.242 -0.691,0.42 -0.045,0.031 -0.086,0.056 -0.133,0.089 -0.026,0.021 -0.057,0.04 -0.08,0.061 -0.705,0.579 -1.192,1.07 -1.469,1.375 -0.013,0.017 -0.023,0.032 -0.035,0.049 -0.146,0.163 -0.223,0.259 -0.223,0.259 0,0 -0.406,0.54 -0.015,0.54 0.391,0 1.313,-0.475 1.666,-0.786 0.353,-0.318 0.175,-0.058 0.175,-0.058 z m 8.463,-7.157 c -0.617,0.683 -0.927,0.965 -0.927,0.965 0,0 -0.106,0.109 -0.222,0.245 l -0.012,0.013 c 0,0.005 -0.005,0.013 -0.011,0.015 h 0.001 c -0.077,0.094 -0.148,0.193 -0.193,0.283 -2.018,1.938 -4.194,3.704 -6.517,5.273 0.047,-0.077 0.069,-0.14 0.038,-0.164 h -0.002 c -0.001,-0.001 0,-0.003 0,-0.003 -0.123,-0.097 -0.598,0.245 -0.598,0.245 0,0 -0.069,0.06 -0.178,0.136 l 0.004,-0.002 c -0.133,0.096 -0.317,0.22 -0.508,0.316 -0.054,0.024 -0.105,0.051 -0.156,0.069 -0.033,0.014 -0.063,0.024 -0.095,0.033 -0.069,0.021 -0.138,0.035 -0.192,0.031 -0.379,-0.031 0.459,-0.829 0.459,-0.829 0,0 0.486,-0.548 1.078,-0.885 0.198,-0.112 0.408,-0.201 0.614,-0.238 0.825,-0.148 0.979,-0.354 1.382,-0.664 0.137,-0.104 0.234,-0.215 0.334,-0.367 0.203,-0.304 0.418,-0.784 0.971,-1.792 0.031,-0.057 0.064,-0.111 0.096,-0.17 h 0.001 c 1.058,-0.591 1.433,-0.773 1.685,-0.922 1.131,-0.673 2.48,-1.496 2.836,-1.774 10e-4,0 0.729,-0.496 0.112,0.186 z m 6.838,-8.815 c 0.29,-0.632 0.529,-1.305 0.82,-1.959 0.288,-0.653 0.703,-1.296 0.682,-2.233 -0.046,-0.043 -0.08,-0.099 -0.111,-0.151 h -0.23 c -0.229,0.195 -0.546,0.284 -0.795,0.455 -0.384,0.271 -0.727,0.632 -1.098,0.91 -0.168,0.128 -0.416,0.242 -0.53,0.417 -0.19,0.286 -0.153,0.772 -0.38,1.021 v 0.15 c 0.301,-0.109 0.443,-0.463 0.683,-0.643 0.294,-0.222 0.538,-0.516 0.832,-0.723 0.185,-0.129 0.396,-0.197 0.568,-0.341 0.12,0.022 0.11,0.036 0.19,0.078 -0.02,0.962 -0.525,1.641 -0.834,2.349 -0.088,0.206 -0.115,0.527 -0.265,0.681 -0.071,0.071 -0.219,0.09 -0.3,0.149 -0.254,0.279 -0.506,0.557 -0.76,0.836 -0.24,0.329 -0.351,0.77 -0.606,1.098 -0.002,0.108 -0.002,0.206 0.036,0.265 0.039,0.029 0.105,0.056 0.152,0.076 0.416,-0.396 0.817,-0.739 1.179,-1.173 -1.642,2.584 -3.521,4.998 -5.604,7.223 0.043,-0.055 0.086,-0.108 0.125,-0.16 0.021,-0.025 0.033,-0.046 0.049,-0.068 0.291,-0.404 0.088,-0.385 0.088,-0.385 0,0 -0.063,-0.009 -0.248,0.063 -0.026,0.011 -0.055,0.021 -0.09,0.038 -0.017,0.007 -0.024,0.01 -0.043,0.018 v 0.002 c -0.138,0.065 -0.319,0.164 -0.568,0.321 -0.766,0.486 -1.309,0.822 -1.309,0.822 0,0 -1.647,0.942 -2.693,1.554 -0.01,0.005 -0.021,0.012 -0.03,0.018 0.002,-0.003 0.003,-0.005 0.005,-0.007 0.008,-0.006 0.021,-0.012 0.028,-0.017 -0.009,0.005 -0.021,0.011 -0.028,0.016 0.754,-1.175 1.643,-2.2 2.317,-2.955 0.825,-0.919 1.817,-2.415 1.817,-2.415 0,0 0.613,-1.055 0.637,-1.541 0.003,-0.068 -0.006,-0.129 -0.028,-0.171 -0.012,-0.02 -0.043,-0.016 -0.062,-0.027 -0.021,-0.013 -0.039,-0.03 -0.07,-0.031 -0.23,-0.036 -0.723,0.213 -1.482,0.779 -0.686,0.513 -1.242,0.862 -1.703,1.107 -0.021,0.009 -0.039,0.015 -0.06,0.022 0.021,-0.01 0.04,-0.02 0.06,-0.028 -0.262,0.119 -0.528,0.211 -0.764,0.235 -0.615,0.066 -0.832,-0.302 -0.893,-0.696 -0.033,-0.236 -0.012,-0.482 0.013,-0.649 0.067,-0.449 0.299,-1.479 1.017,-1.887 0.719,-0.409 1.723,-0.394 2.426,-0.492 0.707,-0.095 1.031,-0.297 1.031,-0.297 0,0 1.151,-0.731 1.911,-1.965 0.761,-1.236 1.439,-3.229 1.519,-5.207 0,-0.022 -0.002,-0.041 -0.002,-0.063 0.007,-0.194 0.002,-0.377 -0.008,-0.55 -0.004,-0.064 -0.012,-0.127 -0.019,-0.189 -0.013,-0.13 -0.03,-0.254 -0.051,-0.37 -0.011,-0.052 -0.019,-0.104 -0.029,-0.152 -0.032,-0.147 -0.067,-0.288 -0.11,-0.415 l 0.004,10e-4 c 1.893,-1.506 3.703,-3.419 3.703,-3.419 0,0 1.203,-1.207 1.809,-2.256 0.046,-0.08 0.082,-0.134 0.113,-0.18 0.011,-0.015 0.021,-0.025 0.028,-0.037 0.025,-0.03 0.048,-0.054 0.063,-0.063 0.002,-10e-4 0.005,-0.005 0.007,-0.006 0.017,-0.007 0.028,10e-4 0.036,0.018 0.002,0.005 0.003,0.01 0.004,0.016 0.005,0.02 0.007,0.044 0.005,0.076 0,0.006 -0.002,0.015 -0.002,0.02 -10e-4,0.002 -0.002,0.008 -0.002,0.008 0,0 -0.491,1.381 -0.318,2.066 0,0.005 0,0.011 0,0.016 -0.002,-0.005 -0.005,-0.009 -0.006,-0.014 0.001,0.014 0.005,0.026 0.006,0.041 0.007,0.14 0.026,0.275 0.056,0.404 0.01,0.04 0.021,0.076 0.033,0.113 0.041,0.136 0.096,0.261 0.18,0.354 0,0.003 0,0.006 0.002,0.008 0.018,0.018 0.039,0.018 0.058,0.028 0.425,0.292 1.44,-0.789 1.44,-0.789 0,0 0.658,-0.755 0.924,-1.973 0.244,-1.121 0.252,-1.684 0.224,-1.944 -0.016,-0.159 -0.045,-0.209 -0.045,-0.209 0,0 -0.237,-0.372 -0.089,-0.817 0.012,-0.034 0.035,-0.101 0.057,-0.157 0.241,-0.66 1.062,-2.689 1.771,-3.587 -0.714,7.077 -2.982,13.7 -6.443,19.539 z m -0.885,0.77 c -0.049,0.376 -0.335,0.713 -0.607,0.873 v 0.038 h -0.039 c 0.067,-0.455 0.412,-0.581 0.57,-0.911 z m 2.88,-13.115 c -0.041,0.153 -0.073,0.267 -0.073,0.267 0,0 -0.004,0.023 -0.01,0.047 0.004,-0.019 0.01,-0.05 0.01,-0.05 0,0 0.032,-0.112 0.073,-0.264 z m 4.601,-9.017 -0.232,0.391 c -0.076,0.129 -0.088,0.286 -0.031,0.425 l 0.104,0.256 c -0.005,0.008 -0.009,0.014 -0.013,0.021 -0.002,0.002 -0.004,0.004 -0.006,0.006 -0.014,0.021 -0.029,0.048 -0.043,0.069 -0.176,0.275 -0.391,0.623 -0.654,1.06 -1.213,1.997 -1.404,3.609 -1.404,3.609 0,0 -0.114,0.625 -0.051,0.99 0.013,0.071 0.027,0.134 0.045,0.189 0.002,0.005 0.003,0.011 0.004,0.017 0.018,0.057 0.035,0.104 0.053,0.147 0,0.002 0.001,0.005 0.002,0.007 0,10e-4 0,10e-4 0.001,0.002 0.021,0.055 0.041,0.103 0.056,0.141 0.002,0.007 0.004,0.012 0.006,0.019 0.009,0.026 0.018,0.052 0.019,0.073 0.004,0.045 -0.012,0.24 -0.065,0.508 -0.011,0.051 -0.022,0.103 -0.035,0.156 -0.012,0.046 -0.021,0.092 -0.036,0.141 -0.028,0.105 -0.063,0.217 -0.104,0.332 -0.013,0.038 -0.029,0.077 -0.045,0.115 -0.05,0.129 -0.105,0.261 -0.175,0.393 -0.009,0.018 -0.017,0.035 -0.024,0.054 -0.42,0.778 -0.781,0.986 -0.781,0.986 0,0 -0.723,0.521 -0.822,0.15 -0.1,-0.373 -0.071,-0.689 -0.034,-0.925 0.034,-0.237 0.277,-1.513 0.241,-1.983 -0.033,-0.474 -0.458,-0.094 -0.458,-0.094 0,0 -0.099,0.114 -0.285,0.35 -0.187,0.237 -1.231,1.567 -1.632,2.034 -0.946,1.108 -1.807,1.904 -4.107,3.763 -0.009,0.003 -0.016,0.011 -0.02,0.015 -0.008,-0.011 -0.014,-0.018 -0.02,-0.026 -0.088,-0.144 -0.174,-0.264 -0.254,-0.366 -0.101,-0.132 -0.191,-0.238 -0.25,-0.316 -0.271,-0.351 -0.767,-0.194 -1.371,-1.655 -0.604,-1.455 -0.744,-2.695 -0.73,-3.555 0.002,-0.122 0.006,-0.235 0.013,-0.342 0.056,-0.852 0.261,-1.178 0.652,-1.545 0.394,-0.365 2.13,-0.202 2.13,-0.202 0,0 0.852,0.176 1.615,-1.088 0.562,-0.938 0.678,-2.317 0.599,-3.388 -0.026,-0.37 -0.077,-0.705 -0.142,-0.97 -0.242,-1.03 -0.596,-1.928 -2.008,-2.075 -1.408,-0.146 -2.045,1.589 -2.045,1.589 0,0 -0.285,0.663 -0.584,1.045 -0.298,0.378 -1.109,0.272 -1.109,0.272 C 83.136,48.58 82.705,48.718 82.279,47.848 81.861,46.981 80.9,44.703 80.9,44.703 80.575,43.928 80.368,43.255 80.242,42.735 l -0.692,-0.284 -0.002,-0.003 0.692,0.28 c 0.977,-0.538 2.646,-1.513 3.839,-2.519 1.791,-1.506 3.541,-3.087 3.987,-3.482 0.445,-0.4 0.854,-0.72 1.25,-0.701 0.396,0.021 0.701,0.303 0.947,1.372 0.246,1.07 0.295,1.951 0.406,2.472 0.112,0.52 0.273,1.125 0.893,1.249 0.619,0.123 1.449,-0.416 1.76,-0.683 0.08,-0.067 0.177,-0.174 0.275,-0.314 0.004,-0.007 0.01,-0.017 0.016,-0.024 0.043,-0.062 0.085,-0.126 0.127,-0.199 0.238,-0.417 0.453,-1.027 0.431,-1.751 0,0 0.063,-1.536 -0.729,-2.993 0,0 -0.334,-0.588 -0.457,-0.749 -0.084,-0.114 -0.147,-0.229 -0.008,-0.501 0.035,-0.067 0.08,-0.149 0.137,-0.24 0.173,-0.274 0.449,-0.62 0.875,-0.859 0.429,-0.245 0.842,-0.303 1.078,-0.38 0,0 0.265,-0.063 0.601,-0.248 l -0.002,-0.006 c 0,0 0.002,-10e-4 0.003,-0.002 0.004,0.01 0.007,0.019 0.009,0.027 0.505,1.57 1.085,4.182 1.085,4.182 0,0 0.18,0.769 0.198,1.123 0.021,0.355 -0.06,0.364 -0.219,0.178 -0.157,-0.187 -0.315,-0.069 -0.315,-0.069 0,0 -0.167,0.069 -0.167,0.74 0,0.671 0.08,2.246 0.207,3.461 0.146,1.44 0.591,2.042 0.591,2.042 0,0 0.396,0.592 0.504,-0.552 0.004,-0.043 0.008,-0.065 0.012,-0.101 0.018,0.526 0.051,1.052 0.051,1.579 -0.01,0.994 -0.042,2.022 -0.105,3.048 z"
   id="path2" />
		<path
   style="opacity:1;fill:#000000;fill-opacity:1;enable-background:new"
   d="m 22.914,80.086 c 0.052,0.056 0.102,0.112 0.153,0.168 -0.007,-0.008 -0.015,-0.019 -0.015,-0.019 z"
   id="path4" />
		<path
   style="opacity:1;fill:#000000;fill-opacity:1;enable-background:new"
   d="M 15.359,35.144 H 15.36 Z"
   id="path6" />
		<polygon
   style="opacity:1;fill:#000000;fill-opacity:1;enable-background:new"
   points="52.819,74.017 52.816,74.016 52.816,74.017 "
   id="polygon8" />
		<path
   style="opacity:1;fill:#000000;fill-opacity:1;enable-background:new"
   d="m 73.831,72.157 c -1.104,-0.273 -2.034,0.272 -3.183,0.189 -0.109,-0.115 -0.191,-0.182 -0.264,-0.341 -0.8,0.023 -1.683,1.805 -0.871,2.348 0.435,0.295 1.67,0.124 2.196,0 0.294,-0.066 0.75,-0.133 0.983,0.037 0.318,0.236 0.262,1.131 0.15,1.63 -0.127,0.935 -0.254,1.868 -0.379,2.805 -0.111,0.566 -0.227,1.134 -0.342,1.703 0.581,-0.004 1.128,-0.598 1.291,-1.023 0.096,-0.247 0.045,-0.48 0.114,-0.757 0.2,-0.795 0.227,-1.743 0.417,-2.575 0.121,-0.538 0.039,-1.053 0.148,-1.552 0.084,-0.376 0.137,-1.622 0.041,-1.972 -0.054,-0.191 -0.202,-0.342 -0.301,-0.492 z"
   id="path10" />
		<path
   style="opacity:1;fill:#000000;fill-opacity:1;enable-background:new"
   d="M 20.16,8.528 V 8.452 h -0.151 c -0.178,0.13 -0.646,0.209 -0.869,0.339 0.03,0.13 0.019,0.097 0.113,0.151 -0.133,0.369 -0.572,0.645 -0.797,0.949 -0.354,0.479 -0.751,0.926 -1.099,1.401 -0.117,0.157 -0.195,0.402 -0.34,0.529 -0.227,0.198 -0.874,0.177 -1.135,0.378 h -0.075 c 0.054,-0.317 0.869,-1.332 1.099,-1.552 v -0.038 c -0.391,0.055 -0.693,0.261 -0.948,0.452 0.043,0.087 0.036,0.07 0.116,0.115 -0.14,0.229 -0.346,0.397 -0.493,0.605 -0.189,0.264 -0.292,0.576 -0.492,0.834 0.014,0.038 0.026,0.074 0.037,0.113 0.242,-0.021 1.25,-0.341 1.401,-0.453 h 0.111 c -0.152,0.46 -0.755,1.092 -1.021,1.515 -0.149,0.237 -0.241,0.547 -0.453,0.72 0.035,0.041 -0.004,10e-4 0.037,0.037 0.084,0.051 0.778,-0.133 0.91,-0.226 0.079,0.014 0.072,0.011 0.114,0.037 0.041,0.066 -0.46,0.949 -0.569,1.062 v 0.039 c 0.188,-0.022 0.48,-0.054 0.606,-0.153 0.367,-0.286 0.451,-0.897 0.719,-1.289 -0.013,-0.063 -0.024,-0.126 -0.039,-0.188 -0.212,-0.038 -0.651,0.02 -0.832,0.151 h -0.038 c 0.088,-0.454 0.831,-1.289 1.098,-1.668 0.435,-0.619 0.843,-1.214 1.287,-1.818 0.233,-0.316 0.56,-0.595 0.796,-0.908 0.263,-0.349 0.544,-0.814 0.907,-1.058 z"
   id="path12" />
		<path
   style="opacity:1;fill:#000000;fill-opacity:1;enable-background:new"
   d="m 30.65,71.929 c -0.058,0.129 -0.05,0.339 -0.111,0.492 -0.328,0.804 -0.436,0.973 0.075,1.742 0.228,0 0.257,-0.035 0.379,-0.113 0.151,-0.629 0.175,-1.825 -0.343,-2.121 z"
   id="path14" />
		<path
   style="opacity:1;fill:#000000;fill-opacity:1;enable-background:new"
   d="m 32.244,71.248 c -0.158,-0.259 -0.47,-0.327 -0.683,-0.53 -0.066,-0.021 -0.038,-0.008 -0.076,-0.037 0.488,-0.253 1.008,-0.531 1.516,-0.757 0.137,0.15 0.767,0.759 0.985,0.643 0.037,-0.012 0.074,-0.021 0.112,-0.035 -0.013,-0.216 -0.023,-0.431 -0.038,-0.646 -0.479,-0.477 -1.182,-0.871 -1.971,-1.021 v 0.037 h -0.038 c 0.089,0.262 0.381,0.511 0.608,0.644 v 0.113 c -0.448,0.064 -0.847,0.281 -1.25,0.419 -0.277,0.089 -0.611,0.077 -0.836,0.225 h -0.112 c 0.165,-0.458 0.706,-0.834 0.984,-1.213 0.551,-0.743 0.988,-1.653 1.857,-2.083 -0.023,-0.35 -1.03,-1.071 -1.402,-0.833 -0.093,0.048 -0.028,-0.02 -0.074,0.073 -0.058,0.139 0.131,0.309 0.074,0.531 -0.073,0.292 -0.794,1.666 -0.985,1.818 v 0.039 c -0.39,-0.134 -0.686,-0.501 -1.059,-0.683 0.066,-0.35 0.358,-0.617 0.529,-0.871 0.435,-0.655 0.782,-1.278 1.44,-1.706 -0.006,-0.504 -0.819,-1.029 -1.365,-1.021 0.002,0.231 0.12,0.362 0.077,0.566 -0.134,0.618 -0.417,1.241 -0.644,1.781 -0.149,0.349 -0.217,0.765 -0.456,1.02 -0.051,0.029 -0.471,-0.006 -0.568,-0.073 -0.143,-0.002 -0.285,0.006 -0.377,0.036 v 0.076 c 0.638,0.617 1.327,0.828 2.197,1.214 -0.121,0.627 -0.753,1.045 -1.062,1.517 -0.159,0 -0.287,-0.011 -0.378,-0.076 -0.088,0.017 -0.093,0.021 -0.151,0.039 0.016,0.557 0.479,1.031 0.945,1.137 0.313,-0.35 0.706,-0.52 1.175,-0.718 0.431,0.447 0.554,1.088 0.72,1.814 0.071,0.317 -0.046,0.667 0.038,0.945 0.146,0.492 0.407,0.639 0.643,0.983 h 0.268 c 0.166,-0.892 -0.242,-1.753 -0.454,-2.461 -0.063,-0.299 -0.125,-0.602 -0.189,-0.906 z"
   id="path16" />
		<path
   style="opacity:1;fill:#000000;fill-opacity:1;enable-background:new"
   d="m 41.785,87.948 c 0.287,0.104 0.521,0.385 0.796,0.53 0.729,0.382 1.935,0.695 3.031,0.456 0.538,-0.12 1.095,-0.12 1.248,-0.607 0.17,-0.267 -0.065,-0.64 -0.149,-0.79 -0.354,-0.632 -0.819,-1.044 -1.402,-1.44 -1.929,-1.318 -4.772,-2.655 -8.067,-2.573 -0.16,0.102 -0.481,0.021 -0.681,0.074 -0.275,0.072 -0.444,0.214 -0.643,0.34 -0.008,0.931 1.383,1.434 2.158,1.626 0.463,0.117 0.87,-0.101 1.138,-0.188 0.205,-0.786 -0.743,-0.899 -1.175,-1.289 h -0.078 v -0.038 c 2.906,-0.114 5.082,0.697 6.742,1.934 0.415,0.31 0.89,0.749 1.099,1.25 0.078,0.187 0.11,0.493 0,0.646 -0.152,0.421 -0.656,0.384 -1.137,0.493 -1.112,0.256 -2.638,-0.374 -3.145,-0.871 -0.104,0.181 0.047,0.459 -0.114,0.646 -0.168,0.457 -0.753,0.338 -1.288,0.453 -0.876,0.19 -2.252,-0.259 -2.764,-0.604 -0.144,-0.101 -0.246,-0.274 -0.379,-0.38 -0.008,-0.099 -0.018,-0.13 -0.039,-0.19 0.076,-0.069 0.169,-0.179 0.226,-0.263 1.091,-0.081 1.646,-0.025 2.275,0.57 -0.017,0.073 -0.01,0.068 -0.04,0.108 -0.069,0.146 -0.234,0.162 -0.453,0.154 v 0.068 c 0.399,0.006 0.567,-0.056 0.795,-0.188 0.012,-0.076 0.026,-0.152 0.038,-0.227 -0.13,-0.135 -0.222,-0.312 -0.38,-0.419 -0.621,-0.408 -1.905,-0.613 -2.611,-0.149 -0.111,0.538 0.222,0.828 0.53,1.058 0.618,0.468 1.14,0.738 2.008,0.985 0.278,0.078 0.527,0.008 0.834,0.073 0.268,0.062 0.732,0.074 1.022,0 0.482,-0.123 1.153,-0.631 0.604,-1.215 z m -3.484,-3.596 c 0.134,0.092 0.211,0.279 0.341,0.38 -0.003,0.096 -0.004,0.143 -0.037,0.19 -0.247,0.668 -1.635,0.174 -1.971,-0.077 -0.104,-0.077 -0.146,-0.237 -0.227,-0.34 0.015,-0.078 0.01,-0.073 0.039,-0.11 0.104,-0.293 0.4,-0.193 0.644,-0.339 0.48,0 0.914,0.094 1.211,0.296 z"
   id="path18" />
		<path
   style="opacity:1;fill:#000000;fill-opacity:1;enable-background:new"
   d="m 51.635,91.85 c 0.014,-0.035 0.023,-0.072 0.037,-0.11 -0.934,-0.038 -1.87,-0.075 -2.802,-0.113 -0.118,0.078 -0.299,0.033 -0.454,0.075 -0.194,0.057 -0.408,0.145 -0.568,0.229 0.024,0.064 0.008,0.037 0.038,0.074 0.229,0.18 1.555,0.19 1.818,0 h 0.075 V 91.93 c -0.4,-0.127 -1.133,0.192 -1.438,0 h -0.039 v -0.039 c 1.006,-0.068 2.133,-0.042 3.183,-0.038 -0.101,0.069 -0.314,0.05 -0.417,0.114 -0.038,0.013 -0.075,0.025 -0.112,0.037 v 0.077 c 0.228,0.034 0.454,0.073 0.681,0.11 0.035,0.039 -0.004,0.004 0.037,0.035 -0.335,0.225 -1.199,0.135 -1.514,-0.035 v -0.076 c -0.17,-0.078 -0.948,0.08 -1.099,0.111 -0.127,0.029 -0.259,-0.014 -0.342,0.037 -0.158,0.01 -0.174,0.027 -0.264,0.076 0.021,0.122 0.033,0.11 0.076,0.188 0.243,0.059 0.666,0.062 0.944,0.148 V 92.64 h 0.039 v -0.037 c -0.142,-0.055 -0.536,-0.022 -0.683,-0.108 h -0.076 c 0.127,-0.102 1.364,-0.268 1.593,-0.114 0.063,0.021 0.037,0.007 0.076,0.037 -0.203,0.037 -0.406,0.077 -0.608,0.111 0.024,0.062 0.009,0.036 0.039,0.074 0.062,0.043 0.185,0.043 0.302,0.037 -0.038,0.071 -0.052,0.104 -0.114,0.151 0.014,0.021 0.026,0.049 0.039,0.075 0.536,0 0.986,-0.056 1.438,-0.149 0.27,-0.06 0.599,0.05 0.795,-0.077 h 0.306 v -0.075 c -0.517,-0.001 -1.806,-0.052 -2.12,0.152 h -0.113 c 0.031,-0.041 -0.004,-0.004 0.035,-0.04 0.149,-0.172 0.451,-0.086 0.719,-0.148 0.422,-0.1 1.117,-0.271 1.479,0 0.1,0.062 0.037,-0.008 0.037,0.111 0.102,-0.002 0.173,-0.002 0.227,-0.033 h 0.264 V 92.529 C 52.807,92.445 52.297,92.29 52.012,92.114 51.848,92.015 51.922,91.876 51.635,91.85 Z"
   id="path20" />
		<path
   style="opacity:1;fill:#000000;fill-opacity:1;enable-background:new"
   d="m 92.766,62.35 c -0.137,0.124 -0.338,0.155 -0.492,0.266 -0.479,0.344 -0.98,0.92 -1.325,1.399 -0.274,0.386 -0.511,0.808 -0.757,1.214 -0.107,0.181 -0.131,0.386 -0.266,0.529 v 0.076 c 0.33,-0.056 0.524,-0.271 0.758,-0.417 0.631,-0.392 1.195,-0.748 1.778,-1.172 0.282,-0.208 0.493,-0.528 0.796,-0.723 0.027,-0.452 0.119,-0.809 -0.076,-1.138 -0.118,-0.022 -0.252,-0.036 -0.416,-0.034 z m -0.455,1.361 c -0.229,0.169 -0.448,0.405 -0.682,0.569 -0.199,0.141 -0.438,0.215 -0.605,0.38 h -0.038 c 0.125,-0.392 0.782,-1.062 1.098,-1.286 0.162,-0.12 0.366,-0.15 0.532,-0.269 h 0.148 c 0.035,0.044 0.033,0.042 0.078,0.076 -0.035,0.287 -0.344,0.389 -0.531,0.53 z"
   id="path22" />
		<path
   style="opacity:1;fill:#000000;fill-opacity:1;enable-background:new"
   d="m 73.45,84.731 h -0.38 c -0.25,0.2 -0.662,0.227 -0.947,0.381 -0.253,0.134 -0.557,0.316 -0.794,0.491 -0.198,0.142 -0.313,0.4 -0.495,0.566 0.004,0.188 0.008,0.22 0.154,0.266 0.037,0.027 0.009,0.019 0.07,0.038 0.041,-0.045 0.078,-0.06 0.115,-0.115 0.032,-0.021 -0.025,-0.1 -0.037,-0.222 0.366,-0.369 0.639,-0.572 1.174,-0.796 0.14,-0.057 0.429,-0.224 0.607,-0.114 h 0.075 c -0.024,0.374 -0.877,1.523 -1.138,1.705 v 0.109 c 0.697,-0.18 1.162,-1.573 1.63,-2.081 -0.013,-0.087 -0.011,-0.106 -0.038,-0.15 z"
   id="path24" />
		<path
   style="opacity:1;fill:#000000;fill-opacity:1;enable-background:new"
   d="m 92.01,46.251 c 0.082,0.209 0.243,0.556 0.418,0.683 0.082,0.06 0.125,0.037 0.188,0.113 1.255,0.107 1.764,-2.052 1.253,-3.296 -0.093,-0.215 -0.495,-0.847 -0.872,-0.605 H 92.92 c 0.025,-0.065 0.011,-0.036 0.039,-0.077 -0.001,-0.179 -0.021,-0.239 -0.073,-0.34 -0.076,-0.012 -0.148,-0.024 -0.229,-0.036 -0.037,0.029 -0.01,0.014 -0.074,0.036 0.025,0.23 0.105,0.236 0.114,0.492 -0.614,0.559 -1.136,1.897 -0.687,3.03 z m 0.414,-2.006 c 0.084,-0.204 0.254,-0.336 0.379,-0.493 0.078,-0.015 0.071,-0.009 0.111,-0.039 0.288,0 0.369,0.056 0.531,0.153 0.287,0.681 0.33,1.869 -0.149,2.388 -0.073,0.08 -0.219,0.11 -0.301,0.188 -0.794,-0.062 -0.858,-1.508 -0.571,-2.197 z"
   id="path26" />
		<path
   style="opacity:1;fill:#000000;fill-opacity:1;enable-background:new"
   d="m 95.113,46.024 v -0.605 c -0.094,-0.434 -0.057,-1.011 -0.149,-1.438 -0.181,-0.844 -0.021,-1.844 -0.34,-2.538 -0.188,-0.046 -0.376,-0.081 -0.642,-0.077 -0.1,0.101 -0.172,0.15 -0.152,0.267 0.079,0.343 0.523,0.413 0.645,0.757 0.015,0.165 0.023,0.329 0.037,0.493 0.129,0.537 0.106,1.231 0.227,1.781 v 0.454 c 0.061,0.276 0.152,0.991 0.074,1.213 -0.133,0.392 -0.56,0.746 -0.83,1.022 -0.721,0.722 -1.569,1.642 -2.844,1.778 -0.022,0.065 -0.01,0.037 -0.039,0.077 0.021,0.473 0.457,0.379 0.76,0.568 0.076,-0.015 0.15,-0.026 0.226,-0.04 0.117,-0.07 0.185,-0.231 0.265,-0.342 0.192,-0.25 0.541,-0.383 0.721,-0.643 h 0.037 c 0.002,1.154 0.027,2.451 0.039,3.561 h 0.111 c 0.26,-1.123 0.241,-2.5 0.229,-3.867 0.498,-0.465 0.816,-1.139 1.326,-1.589 v -0.075 h 0.039 c 0.006,1.198 0.035,2.422 0.035,3.635 0,0.389 -0.099,1.319 0,1.479 v 0.228 h 0.076 c 0.102,-0.407 0.127,-0.979 0.227,-1.438 V 50.04 c 0.113,-0.511 0.111,-1.496 0.002,-2.009 -0.138,-0.636 0.049,-1.413 -0.08,-2.007 z"
   id="path28" />
		<path
   style="opacity:1;fill:#000000;fill-opacity:1;enable-background:new"
   d="m 70.42,87.535 c -0.225,0.2 -0.771,0.22 -1.021,0.417 H 69.36 c 0.1,-0.144 0.278,-0.204 0.38,-0.339 0.072,-0.101 0.104,-0.218 0.188,-0.303 -0.018,-0.078 -0.01,-0.071 -0.037,-0.111 v -0.077 c -1.105,-0.202 -2.951,0.751 -3.521,1.252 -0.148,0.129 -0.236,0.322 -0.38,0.457 0.003,0.104 0.015,0.161 0.036,0.226 0.673,0.045 1.931,-0.366 2.082,-0.907 0.029,-0.023 0.012,-0.002 0,-0.038 v -0.075 c -0.459,-0.025 -1.076,0.07 -1.36,0.339 H 66.71 c 0.249,-0.378 1.171,-0.714 1.664,-0.871 0.165,-0.051 0.527,-0.142 0.686,-0.037 0.035,0.015 0.071,0.024 0.111,0.037 -0.09,0.38 -0.63,0.802 -0.984,0.908 v 0.076 c 0.58,-0.136 1.113,-0.398 1.627,-0.606 0.353,-0.144 0.752,-0.181 1.062,-0.379 0.22,-0.143 0.965,-1.155 1.021,-1.439 -0.877,0.13 -0.949,0.994 -1.477,1.47 z m -2.992,0.757 v 0.114 c -0.072,0.047 -0.123,0.148 -0.189,0.188 -0.196,0.115 -0.458,0.104 -0.646,0.229 -0.086,-0.011 -0.104,-0.009 -0.148,-0.039 h -0.037 c 0.1,-0.324 0.725,-0.472 1.02,-0.492 z"
   id="path30" />
		<path
   style="opacity:1;fill:#000000;fill-opacity:1;enable-background:new"
   d="M 74.854,59.161 C 74.428,58.898 74.37,57.557 74.209,56.966 73.897,55.803 73.746,54.583 73.413,53.405 73.2,52.649 72.912,51.868 72.997,50.941 c 0.133,-0.133 0.222,-0.307 0.379,-0.417 0.213,-0.146 0.556,-0.22 0.72,-0.417 0.026,-0.049 -0.018,-0.122 -0.039,-0.228 -0.438,0.07 -0.84,0.335 -1.211,0.491 -0.76,0.324 -1.502,0.515 -2.272,0.834 -0.241,0.1 -0.492,0.27 -0.798,0.301 v 0.229 c 0.027,0.014 0.053,0.023 0.076,0.037 0.041,0.043 0.99,-0.374 1.289,-0.111 0.34,0.119 0.297,0.563 0.492,0.834 -0.059,0.588 -0.645,1.491 -0.873,2.008 -0.557,1.269 -1.121,2.479 -1.738,3.672 -0.237,0.457 -0.521,1.276 -0.834,1.628 v 0.037 c -0.207,-0.283 -0.189,-1.006 -0.301,-1.399 -0.338,-1.182 -0.554,-2.479 -0.91,-3.635 -0.064,-0.221 -0.291,-1.225 -0.148,-1.438 0.049,-0.522 0.787,-0.751 1.211,-0.909 -0.011,-0.088 -0.021,-0.178 -0.037,-0.267 -0.671,0.103 -1.367,0.459 -1.97,0.684 -0.569,0.214 -1.091,0.3 -1.667,0.494 -0.285,0.098 -0.607,0.263 -0.943,0.301 v 0.039 h -0.039 c 0.016,0.106 0.023,0.164 0.074,0.227 0.155,0.104 0.986,-0.337 1.327,-0.072 0.532,0.181 0.548,1.028 0.72,1.589 0.46,1.512 0.696,3.186 1.137,4.735 0.109,0.388 0.375,1.613 0.113,1.932 -0.141,0.421 -0.847,0.589 -1.25,0.758 0.014,0.076 0.021,0.152 0.034,0.227 0.583,-0.087 1.112,-0.355 1.634,-0.534 1.018,-0.341 1.979,-0.623 2.958,-0.985 -0.017,-0.088 -0.026,-0.179 -0.04,-0.264 -0.418,0.11 -0.74,0.236 -1.326,0.227 -0.076,-0.066 -0.149,-0.128 -0.225,-0.191 -0.064,-0.2 -0.13,-0.402 -0.191,-0.604 0.041,-0.479 0.654,-1.36 0.871,-1.781 0.646,-1.237 1.209,-2.488 1.776,-3.786 0.22,-0.496 0.722,-1.221 0.797,-1.776 0.177,0.105 0.127,0.42 0.188,0.644 0.129,0.454 0.201,0.938 0.34,1.438 0.27,0.958 0.374,1.985 0.645,2.992 0.1,0.37 0.25,1.004 0.076,1.401 -0.171,0.387 -0.805,0.645 -1.212,0.794 0.017,0.081 0.034,0.176 0.077,0.229 0.003,0.007 0.865,-0.276 1.018,-0.341 1.057,-0.449 2.141,-0.918 3.217,-1.325 -0.015,-0.091 -0.021,-0.181 -0.037,-0.263 -0.269,0.062 -0.882,0.411 -1.251,0.181 z"
   id="path32" />
		<path
   style="opacity:1;fill:#000000;fill-opacity:1;enable-background:new"
   d="m 57.35,16.858 c 0.181,0.09 0.181,0.318 0.268,0.493 0.177,0.354 0.418,0.784 0.529,1.175 v 0.303 c 0.089,0.241 0.379,0.271 0.57,0.417 0.149,-0.021 0.205,-0.059 0.301,-0.114 -0.062,-0.72 -0.502,-1.317 -0.756,-1.894 -0.078,-0.18 -0.199,-0.433 -0.228,-0.605 -0.021,-0.105 0.062,-0.163 0,-0.265 -0.05,-0.118 -0.067,-0.082 -0.147,-0.152 -0.059,-0.038 -0.031,-0.016 0,-0.075 0.063,-0.138 0.202,-0.274 0.262,-0.417 0.127,-0.299 0.121,-0.552 0.38,-0.719 -0.038,-0.393 -0.611,-0.438 -1.06,-0.416 -0.056,0.039 -0.149,0.061 -0.23,0.073 0.049,0.099 0.078,0.119 0.191,0.15 0.107,1.111 -0.67,2.13 -1.178,2.803 -0.197,0.267 -0.531,0.437 -0.718,0.723 h -0.037 v 0.035 c 0.502,-0.081 1.599,-1.125 1.853,-1.515 z"
   id="path34" />
		<path
   style="opacity:1;fill:#000000;fill-opacity:1;enable-background:new"
   d="m 49.816,17.393 c 0.19,0.063 0.379,0.125 0.571,0.188 0.152,0.002 0.313,-0.002 0.414,-0.037 -0.01,-0.627 -0.35,-0.875 -0.568,-1.288 -0.107,-0.211 -0.168,-0.5 -0.34,-0.645 0.066,-0.23 0.696,-0.294 0.946,-0.378 0.615,-0.202 1.312,-0.404 1.934,-0.606 0.293,-0.095 0.637,-0.074 0.871,-0.226 0.141,0.014 0.211,0.027 0.267,0.111 0.136,0.204 0.248,1.598 0.149,2.009 -0.383,1.592 -0.858,2.836 -1.854,3.788 v 0.038 c 0.368,-0.06 0.543,-0.418 0.793,-0.605 1.007,-0.761 1.688,-1.888 2.047,-3.297 0.211,-0.827 -0.135,-1.64 0.19,-2.347 h -0.037 c -0.071,-0.18 -1.036,-0.529 -1.33,-0.531 -0.156,0.169 -0.381,0.398 -0.605,0.492 -0.343,0.146 -0.804,0.105 -1.098,0.302 -0.273,-0.022 -0.484,-0.546 -0.302,-0.757 -0.011,-0.086 -0.009,-0.107 -0.038,-0.151 -0.229,-0.184 -0.812,-0.163 -1.213,-0.151 -0.129,0.119 -0.242,0.144 -0.303,0.343 h -0.037 c -0.021,0.072 0.02,0.048 0.037,0.074 0.024,0.016 0.155,-0.006 0.228,0.039 0.431,0.045 0.419,0.541 0.646,0.795 -0.024,0.066 -0.01,0.039 -0.039,0.076 -0.148,0.118 -1.246,0.434 -1.478,0.494 -0.178,0.044 -0.396,-0.065 -0.529,-0.078 -0.321,-0.027 -0.606,0.153 -0.797,0.265 0.104,0.151 0.416,0.114 0.531,0.265 0.401,0.535 0.581,1.223 0.944,1.818 z"
   id="path36" />
		<path
   style="opacity:1;fill:#000000;fill-opacity:1;enable-background:new"
   d="m 53.299,33.372 c 0.76,0.229 1.303,1.088 1.739,1.667 0.192,0.255 0.491,0.462 0.683,0.719 0.813,1.08 1.73,2.055 2.537,3.146 0.313,0.423 0.738,0.79 1.021,1.249 0.171,-0.004 0.206,-0.024 0.303,-0.077 0.204,-0.889 0.316,-1.785 0.57,-2.689 0.113,-0.414 0.257,-0.901 0.3,-1.362 0.313,0.111 0.567,0.58 0.76,0.834 0.593,0.786 1.427,1.438 1.97,2.271 0.156,-0.007 0.174,-0.025 0.266,-0.075 0.171,-1.285 0.333,-2.573 0.498,-3.86 v -0.379 c 0.171,-0.767 0.131,-1.689 0.3,-2.461 0.229,-1.042 -0.097,-2.056 0.948,-2.312 0.02,-0.102 0.055,-0.141 0,-0.228 -0.023,-0.064 -0.01,-0.037 -0.039,-0.076 -0.041,-0.029 -0.036,-0.022 -0.111,-0.037 -0.291,0.213 -1.082,0.357 -1.477,0.454 -0.301,0.073 -0.611,0.01 -0.834,0.151 -0.036,0.013 -0.074,0.025 -0.113,0.037 0.014,0.077 0.023,0.154 0.039,0.228 0.432,0.142 0.83,-0.029 1.021,0.341 0.123,0.242 0.105,1.107 0.037,1.44 -0.24,1.113 -0.142,2.384 -0.38,3.483 -0.083,0.381 0.021,1.121 -0.149,1.401 v 0.076 c -0.23,-0.109 -0.381,-0.408 -0.53,-0.606 -0.339,-0.446 -0.838,-0.804 -1.177,-1.249 -0.203,-0.269 -0.418,-0.59 -0.682,-0.797 0.034,-0.729 0.247,-1.494 0.42,-2.157 0.125,-0.5 0.129,-0.963 0.377,-1.328 0.143,-0.207 0.483,-0.339 0.719,-0.454 -0.002,-0.095 -0.004,-0.14 -0.037,-0.189 -0.014,-0.038 -0.022,-0.076 -0.035,-0.113 -0.521,0.077 -0.961,0.325 -1.441,0.454 -0.435,0.118 -0.871,0.088 -1.214,0.264 0.011,0.088 0.009,0.107 0.039,0.151 0.015,0.038 0.022,0.077 0.038,0.113 1.331,-0.075 1.129,0.649 0.872,1.668 -0.081,0.312 -0.026,0.741 -0.19,0.984 v 0.074 h -0.039 c -0.272,-0.414 -0.683,-0.814 -1.021,-1.174 -0.14,-0.126 -0.278,-0.252 -0.416,-0.378 -0.101,-0.132 -0.153,-0.299 -0.269,-0.418 0.024,-0.417 0.365,-0.525 0.685,-0.643 -0.015,-0.175 -0.05,-0.197 -0.112,-0.304 -0.988,0.145 -1.846,0.699 -2.955,0.757 v 0.039 h -0.037 c 0.004,0.096 0.004,0.141 0.037,0.189 v 0.075 c 0.217,0.038 0.541,-0.051 0.797,0.038 0.408,0.145 0.773,0.621 1.021,0.948 0.371,0.491 0.953,0.909 1.323,1.4 0.195,0.262 0.416,0.606 0.684,0.797 -0.035,0.665 -0.22,1.366 -0.379,1.97 -0.083,0.309 -0.033,0.703 -0.188,0.945 -0.024,0.066 -0.01,0.037 -0.039,0.076 -0.361,-0.688 -1.059,-1.21 -1.516,-1.818 -0.879,-1.168 -1.855,-2.22 -2.765,-3.37 0,-0.161 0.009,-0.257 0.075,-0.341 0.07,-0.22 0.344,-0.424 0.605,-0.455 0.016,-0.116 0.031,-0.129 -0.037,-0.229 -0.016,-0.036 -0.025,-0.074 -0.039,-0.113 -0.77,0.118 -1.457,0.476 -2.195,0.684 -0.383,0.107 -0.889,0.055 -1.176,0.265 -0.039,0.012 -0.076,0.025 -0.112,0.038 0.021,0.146 0.059,0.168 0.112,0.266 0.298,-0.006 0.617,-0.089 0.908,0 z"
   id="path38" />
		<path
   style="opacity:1;fill:#000000;fill-opacity:1;enable-background:new"
   d="m 89.164,29.357 c -0.087,1.316 -1.215,1.734 -2.421,1.212 -0.862,-0.369 -1.548,-1.185 -2.087,-1.895 -0.18,-0.237 -0.46,-0.437 -0.643,-0.683 -0.17,-0.229 -0.293,-0.484 -0.494,-0.683 v -0.037 h -0.074 c 0.104,0.408 0.339,0.78 0.492,1.138 0.641,1.473 1.455,2.502 2.69,3.37 0.582,0.41 1.552,1.057 2.388,0.455 1.461,-1.052 0.75,-4.967 0.15,-6.438 -0.156,-0.387 -0.281,-0.69 -0.455,-1.021 -0.285,-0.55 -0.586,-1.354 -1.4,-1.363 -0.201,0.171 -0.416,0.308 -0.531,0.566 -0.743,1.687 0.783,3.588 1.479,4.509 0.244,0.325 0.532,0.682 0.906,0.87 z M 87.653,25.23 h 0.188 c 0.371,0.386 0.715,0.754 0.947,1.286 0.124,0.286 0.146,0.771 0.3,1.023 -0.021,0.067 -0.005,0.038 -0.034,0.077 -0.099,0.097 -0.516,-0.4 -0.606,-0.492 -0.423,-0.423 -1.272,-1.167 -0.795,-1.894 z"
   id="path40" />
		<path
   style="opacity:1;fill:#000000;fill-opacity:1;enable-background:new"
   d="m 12.358,25.572 c 0.591,-0.608 1.838,-2.126 1.819,-3.257 -0.061,-0.059 -0.114,-0.155 -0.152,-0.227 -0.236,-0.057 -0.539,-0.082 -0.872,-0.076 -0.085,0.307 -0.262,0.567 -0.378,0.832 -0.256,0.587 -0.486,1.173 -0.72,1.744 -0.197,0.475 -0.319,1.239 -0.605,1.626 v 0.076 c 0.398,-0.07 0.669,-0.472 0.908,-0.718 z m 0.152,-1.21 c 0.226,-0.537 0.38,-1.071 0.643,-1.552 0.146,0.002 0.257,0.014 0.341,0.075 0.091,0.049 0.026,-0.019 0.075,0.076 0.078,0.188 -0.17,0.488 -0.263,0.642 -0.173,0.286 -0.269,0.567 -0.456,0.834 -0.17,0.244 -0.44,0.434 -0.605,0.682 h -0.039 c 0.048,-0.287 0.203,-0.521 0.304,-0.757 z"
   id="path42" />
		<path
   style="opacity:1;fill:#000000;fill-opacity:1;enable-background:new"
   d="m 8.873,26.327 h 0.529 c 0.088,-0.113 0.176,-0.228 0.266,-0.341 0.316,-0.334 0.734,-0.673 0.983,-1.06 h 0.114 v 0.528 c -0.29,0.261 -0.739,0.665 -0.871,1.062 v 0.302 c -0.194,0.842 0.214,1.271 0.947,1.212 0.479,-0.444 1.268,-0.812 1.175,-1.702 -0.042,-0.033 -0.004,0.005 -0.039,-0.036 -0.077,0.017 -0.072,0.008 -0.112,0.037 -0.275,0.143 -0.739,1.365 -1.289,1.022 -0.278,0.002 -0.305,-0.052 -0.455,-0.153 0.02,-0.358 0.631,-1.017 0.874,-1.173 0.03,-0.578 0.18,-1.198 0.113,-1.741 -0.039,-0.014 -0.076,-0.026 -0.113,-0.038 -0.134,-0.043 -0.239,0.161 -0.342,0.266 -0.276,0.278 -0.62,0.57 -0.834,0.908 C 9.498,25.417 8.465,25.407 8.265,25.534 H 8.152 C 8.247,25.289 8.976,24.483 8.758,24.132 8.745,24.093 8.735,24.056 8.719,24.018 c -0.69,0.002 -1.523,1.231 -1.742,1.741 -0.11,0.256 -0.11,0.55 -0.264,0.758 v 0.039 C 7.23,26.493 7.749,26.429 8.265,26.365 8.462,26.321 8.733,26.414 8.873,26.327 Z M 7.585,25.61 H 7.357 C 7.461,25.192 7.871,24.714 8.379,24.7 v 0.189 C 8.202,25.118 8.025,25.343 7.85,25.572 7.742,25.57 7.644,25.57 7.585,25.61 Z"
   id="path44" />
		<path
   style="opacity:1;fill:#000000;fill-opacity:1;enable-background:new"
   d="m 27.393,51.062 v 0.037 c 0.061,0.084 0.059,0.253 0.113,0.341 -0.023,0.063 -0.009,0.037 -0.038,0.076 -0.157,0.105 -0.387,0.059 -0.605,0.111 -0.451,0.113 -1.901,0.466 -2.234,0.151 -0.213,-0.069 -0.354,-0.349 -0.38,-0.604 -0.095,0.004 -0.14,0.004 -0.188,0.037 h -0.078 c 0.14,0.733 0.278,1.464 0.416,2.197 h 0.039 v 0.039 c 1.326,-0.229 2.651,-0.458 3.978,-0.684 -0.19,-0.697 -0.378,-1.39 -0.568,-2.087 -0.106,-0.16 -0.447,-0.141 -0.644,-0.223 -0.332,-0.139 -0.742,-0.442 -0.946,-0.719 -0.609,-0.839 -1.28,-2.823 -0.833,-4.318 0.363,-1.213 1.151,-2.036 2.424,-2.351 0.645,-0.154 1.337,0.061 1.743,0.268 1.157,0.595 1.651,1.441 2.006,2.84 0.46,1.807 -0.125,3.465 -1.325,4.015 0.074,0.73 0.151,1.465 0.227,2.196 0.426,-0.012 0.816,-0.101 1.176,-0.189 0.602,-0.147 1.216,-0.168 1.779,-0.302 0.413,-0.1 1.008,-0.016 1.326,-0.228 0.074,-0.162 -0.238,-1.292 -0.303,-1.554 -0.055,-0.22 -0.008,-0.441 -0.113,-0.605 V 49.43 c -0.088,0.013 -0.177,0.024 -0.265,0.038 0.017,1.145 -0.799,0.987 -1.705,1.213 -0.453,0.114 -1.004,0.258 -1.515,0.265 0,-0.162 0,-0.328 0,-0.492 0.043,-0.079 0.707,-0.369 0.83,-0.456 0.441,-0.305 0.892,-0.79 1.177,-1.247 0.193,-0.313 0.351,-0.732 0.453,-1.102 0.131,-0.468 0.147,-1.12 0.04,-1.591 -0.077,-0.324 -0.047,-0.577 -0.152,-0.871 -0.409,-1.136 -1.266,-1.966 -2.348,-2.424 -0.492,-0.206 -1.047,-0.215 -1.628,-0.34 -0.516,-0.112 -1.444,0.117 -1.819,0.228 -1.823,0.538 -3.061,1.417 -3.637,3.182 -0.227,0.697 -0.156,1.662 0.038,2.311 0.446,1.496 1.696,2.892 3.559,2.918 z"
   id="path46" />
		<path
   style="opacity:1;fill:#000000;fill-opacity:1;enable-background:new"
   d="m 32.81,71.438 c -0.076,0.327 0.729,1.06 0.984,1.252 0.127,0.096 0.298,0.313 0.492,0.226 0.1,-0.008 0.131,-0.019 0.19,-0.038 0.044,-0.102 0.11,-0.229 0.038,-0.339 -0.02,-0.478 -1.253,-1.01 -1.704,-1.101 z"
   id="path48" />
		<path
   style="opacity:1;fill:#000000;fill-opacity:1;enable-background:new"
   d="m 41.6,73.255 c 0.039,-0.016 0.078,-0.024 0.113,-0.041 -0.019,-0.495 -0.966,-0.705 -1.479,-0.563 -0.228,0.063 -0.491,0.204 -0.719,0.265 -0.177,0.014 -0.354,0.025 -0.531,0.037 -0.06,-0.616 -0.363,-1.096 -0.378,-1.74 0.568,-0.012 1.283,-0.087 1.664,-0.303 -0.007,-0.19 -0.043,-0.19 -0.111,-0.301 -0.435,-0.102 -1.179,-0.12 -1.517,0.111 -0.096,-0.004 -0.141,-0.004 -0.188,-0.037 -0.212,-0.269 -0.11,-0.814 -0.303,-1.098 v -0.151 c 0.408,-0.088 1.074,-0.161 1.287,-0.455 0.03,-0.039 0.014,-0.01 0.038,-0.073 -0.034,-0.034 -0.049,-0.065 -0.075,-0.114 -0.593,-0.149 -0.85,-0.047 -1.363,0.15 -0.159,-0.513 0.033,-0.918 -0.491,-1.06 0.112,-0.195 0.484,-0.187 0.719,-0.265 0.365,-0.121 0.782,-0.283 1.099,-0.454 0.025,-0.065 0.008,-0.039 0.039,-0.076 -0.021,-0.191 -0.074,-0.186 -0.153,-0.303 -0.546,-0.042 -0.982,0.011 -1.288,0.303 H 37.89 c 0.045,-0.282 0.222,-0.688 0.378,-0.908 0.106,-0.155 0.305,-0.135 0.38,-0.341 h 0.037 v -0.041 c -0.077,-0.099 -0.151,-0.202 -0.228,-0.3 -0.178,-0.125 -0.435,-0.139 -0.604,-0.269 -0.252,-0.004 -0.493,-0.003 -0.644,0.075 0.021,0.146 0.085,0.237 0.113,0.341 0.105,0.392 -0.271,1.6 -0.418,1.779 -0.116,0.148 -1.484,0.645 -1.855,0.531 -0.088,-0.027 -0.345,-0.157 -0.416,-0.229 -0.03,-0.038 -0.015,-0.008 -0.038,-0.073 0.536,-0.505 0.924,-1.631 1.667,-1.855 0.013,-0.062 0.025,-0.126 0.039,-0.188 -0.186,-0.191 -1.086,-1.138 -1.554,-0.835 -0.037,0.015 -0.075,0.022 -0.111,0.037 0,0.323 0.161,0.567 0.074,0.908 -0.174,0.682 -0.562,1.489 -0.909,2.048 -0.209,0.334 -0.663,0.697 -0.682,1.177 0.618,-0.062 0.768,-0.699 1.248,-0.873 0.141,0.129 0.278,0.256 0.417,0.38 0.198,0.297 0.161,0.744 0.265,1.135 0.177,0.819 0.355,1.641 0.53,2.461 0.024,0.406 0.051,0.809 0.077,1.215 0.101,0.364 0.401,1.002 0.794,1.09 0.063,0.031 0.116,0.021 0.188,-0.038 0.133,-0.107 0.061,-0.299 0.153,-0.453 0.212,-0.152 0.588,-0.114 0.872,-0.19 0.773,-0.204 1.678,-0.19 2.537,-0.38 0.404,-0.09 1.077,0.152 1.4,-0.036 z m -6.139,-4.921 c 0.061,-0.104 1.065,-0.262 1.176,-0.19 0.401,0.188 0.259,0.778 0.492,1.138 -0.08,0.187 -1.003,0.467 -1.288,0.491 -0.051,-0.402 -0.118,-1.222 -0.38,-1.439 z m 0.494,1.855 c 0.289,-0.025 1.039,-0.274 1.249,-0.418 h 0.038 c 0.072,0.346 0.114,0.937 0.304,1.214 -0.137,0.333 -0.972,0.304 -1.288,0.493 -0.133,-0.079 -0.307,-1.029 -0.303,-1.289 z m 0.681,3.181 c -0.079,-0.54 -0.337,-1.017 -0.341,-1.591 0.582,-0.012 0.881,-0.245 1.361,-0.305 0.03,0.354 0.248,1.349 0.418,1.59 0.001,0.023 0.001,0.054 0.001,0.077 -0.456,0.1 -0.932,0.231 -1.439,0.229 z"
   id="path50" />
		<path
   style="opacity:1;fill:#000000;fill-opacity:1;enable-background:new"
   d="m 5.613,45.529 c 0.08,0.021 0.136,0.035 0.189,0.076 0.747,-0.051 0.902,-0.65 1.287,-1.061 0.327,0.785 0.082,2.157 -0.643,2.349 C 6.135,47.107 5.678,46.83 5.5,46.666 4.88,46.092 4.748,45.219 4.517,44.242 4.438,43.913 4.548,43.244 4.405,42.99 4.41,42.604 4.493,41.906 4.29,41.704 v -0.038 l -0.075,0.002 c -0.013,2.361 -0.137,6.001 1.705,6.516 0.669,0.184 1.04,-0.26 1.249,-0.57 C 7.922,46.495 7.711,44.315 6.98,43.374 6.655,43.406 6.189,44.179 6.034,44.433 5.956,44.418 5.963,44.422 5.921,44.395 5.833,44.356 5.839,44.332 5.769,44.282 5.711,43.388 5.89,42.556 5.921,41.706 c 0.999,0.098 1.857,0.666 2.878,0.72 -10e-4,-0.178 0,-0.416 0.073,-0.529 C 8.863,41.809 8.865,41.791 8.834,41.744 8.695,41.634 7.926,41.452 7.698,41.443 V 41.405 H 7.66 C 7.799,40.28 7.481,39.412 6.712,39.093 6.282,39.017 5.854,38.94 5.424,38.864 5.204,38.784 5.097,38.609 4.932,38.486 4.876,38.122 4.805,37.714 5.084,37.501 5.063,37.364 5.053,37.34 4.97,37.273 V 37.235 H 4.932 c -0.127,0.219 -0.234,0.473 -0.303,0.759 -0.223,0.941 0.297,1.74 0.872,1.932 0.379,0.062 0.757,0.127 1.137,0.189 0.301,0.115 0.434,0.362 0.642,0.568 -0.008,0.49 -0.479,0.544 -0.871,0.416 C 5.797,40.901 5.144,40.761 4.516,40.533 4.351,40.471 4.198,40.371 3.985,40.343 c -0.026,0.239 -0.052,0.479 -0.076,0.719 0.53,0.164 1.062,0.328 1.591,0.493 -0.023,1.337 -0.551,2.941 0.113,3.974 z"
   id="path52" />
		<path
   style="opacity:1;fill:#000000;fill-opacity:1;enable-background:new"
   d="m 10.347,66.439 c 0.231,0.121 0.28,0.653 0.378,0.91 0.203,0.534 0.5,1.233 0.987,1.478 v 0.039 h 0.079 C 11.728,68.437 11.487,68.053 11.336,67.689 11.001,66.872 10.739,66.01 10.464,65.188 10.305,64.709 10.197,64.241 10.048,63.787 9.971,63.552 9.988,63.284 9.857,63.103 v -0.112 c 0.258,0.093 0.65,0.083 0.872,0.229 h 0.192 C 10.878,63.023 10.838,62.692 10.729,62.536 10.615,62.349 9.88,62.348 9.67,62.198 9.371,61.964 9.089,61.291 8.873,60.947 8.337,60.097 7.627,59.193 6.828,58.597 6.403,58.284 6.108,57.954 5.349,57.953 5.261,58.015 5.172,58.079 5.085,58.141 4.914,58.896 5.218,60.292 5.651,60.64 v 0.074 C 5.469,60.665 5.275,60.569 5.159,60.451 H 5.122 c 0.007,0.217 0.049,0.499 0.15,0.644 0.045,0.187 0.348,0.338 0.531,0.379 0.237,0.992 0.566,2.011 0.909,2.919 0.276,0.727 0.417,1.417 0.718,2.118 0.149,0.342 0.501,0.591 0.607,0.948 H 8.149 C 8.062,67.139 7.888,66.84 7.771,66.55 7.423,65.713 7.146,64.823 6.86,63.978 6.674,63.419 6.547,62.88 6.368,62.347 6.302,62.147 6.321,61.939 6.218,61.779 v -0.037 c 0.257,0.047 0.411,0.181 0.605,0.265 0.441,0.191 0.865,0.265 1.326,0.455 0.338,0.14 0.763,0.332 1.176,0.379 0.047,0.344 0.243,1.245 0.417,1.479 v 0.111 C 9.166,64.036 9.177,63.474 8.149,63.56 c -0.051,0.062 -0.122,0.112 -0.188,0.151 -0.095,0.234 -0.1,0.619 0,0.87 0.246,0.618 1.026,1.906 1.667,2.086 0.247,0.179 0.607,-0.038 0.719,-0.228 z M 9.365,62.121 C 8.965,62.093 8.625,61.935 8.304,61.82 7.449,61.502 6.674,61.23 5.919,60.871 5.827,60.528 5.191,59.298 5.539,58.866 5.564,58.827 5.59,58.788 5.615,58.751 c 0.077,-0.019 0.073,-0.01 0.113,-0.037 1.168,0.139 2.338,1.559 2.916,2.348 0.226,0.308 0.411,0.765 0.72,0.984 z m -0.983,2.84 c 0.004,-0.372 0.145,-0.373 0.301,-0.568 0.088,-0.007 0.107,-0.007 0.151,-0.035 0.587,0.005 0.721,0.268 1.063,0.493 0.055,0.224 0.09,0.32 0.074,0.564 -0.114,0.141 -0.227,0.279 -0.34,0.417 -0.102,0.075 -0.213,0.104 -0.303,0.189 -0.651,-0.018 -0.674,-0.656 -0.946,-1.06 z"
   id="path54" />
		<path
   style="opacity:1;fill:#000000;fill-opacity:1;enable-background:new"
   d="m 75.419,15.423 c 0.438,0.589 0.931,1.198 1.74,1.402 0.915,0.228 1.36,-0.847 1.705,-1.253 0.354,-0.416 1.132,-0.516 1.401,-1.061 0.1,-0.197 0.033,-0.588 -0.037,-0.757 -0.174,-0.407 -1.021,-1.552 -1.364,-1.778 0.022,-0.229 0.129,-0.237 0.225,-0.379 0.237,0.115 0.323,0.45 0.494,0.643 0.218,0.248 0.522,0.38 0.759,0.606 0.36,0.003 0.576,-0.09 0.756,-0.266 h 0.039 c -0.091,-0.254 -0.424,-0.429 -0.604,-0.606 -0.396,-0.397 -0.698,-0.896 -1.099,-1.287 v -0.038 c -0.196,0.069 -0.861,0.658 -0.984,0.834 -0.239,-0.092 -0.374,-0.35 -0.568,-0.491 -0.646,-0.487 -1.256,-1.118 -2.384,-1.099 -0.142,0.109 -0.353,0.113 -0.532,0.188 -0.507,0.221 -1.035,0.659 -1.248,1.175 -0.238,0.577 0.004,1.428 0.188,1.855 0.373,0.867 0.985,1.598 1.513,2.312 z m -0.19,-5.266 c 0.645,0.006 0.953,0.439 1.328,0.722 0.924,0.693 1.701,1.556 2.385,2.499 0.307,0.419 0.723,0.658 0.718,1.399 -0.116,0.111 -0.149,0.215 -0.341,0.265 -0.037,0.03 -0.01,0.015 -0.074,0.039 -0.536,-0.892 -1.309,-1.638 -1.932,-2.463 -0.202,-0.27 -0.518,-0.488 -0.719,-0.757 -0.348,-0.459 -0.76,-0.827 -1.139,-1.249 -0.107,-0.126 -0.161,-0.246 -0.299,-0.342 0.032,-0.083 0.03,-0.055 0.073,-0.113 z m -0.947,0.531 h 0.149 c 0.189,0.285 0.516,0.484 0.722,0.757 0.565,0.751 1.257,1.407 1.815,2.159 0.344,0.464 0.728,0.899 1.06,1.363 0.171,0.238 0.302,0.54 0.532,0.719 -0.039,0.173 -0.111,0.253 -0.187,0.381 -0.67,0.156 -1.003,-0.281 -1.362,-0.646 -0.897,-0.895 -1.504,-2.003 -2.199,-3.105 -0.237,-0.379 -0.847,-1.085 -0.53,-1.628 z"
   id="path56" />
	</g>
</g><path
       inkscape:connector-curvature="0"
       style="fill:#000000;fill-opacity:1;stroke:#ffffff;stroke-width:4.89822;stroke-miterlimit:4;stroke-dasharray:none;stroke-opacity:1;paint-order:stroke fill markers"
       id="path4834"
       d="m 98.275213,53.331287 -19.844648,9.922343 19.089957,4.772003 v 5.067854 h 6.053858 v -19.7622 z M 60.295179,78.450255 c 4.245536,6.556503 6.276839,14.693746 6.252328,22.865405 -0.02487,8.29263 -2.164318,16.64784 -6.451078,23.50136 h 72.628431 c 5.24953,-5.8377 8.18904,-14.34891 8.27183,-22.9919 0.0827,-8.665602 -2.68957,-17.279437 -8.26253,-23.374865 H 60.294878 Z m 37.225343,51.345355 -0.0017,12.3738 c 1.861661,0.83718 3.491418,2.10667 4.754028,3.68369 0.39753,-0.49614 0.83408,-0.96 1.29984,-1.39224 l 0.002,-14.66525 z"
       sodipodi:nodetypes="ccccccccccccccccccccc" /></g></g><metadata
   id="metadata97"><rdf:RDF><cc:Work
       rdf:about=""><dc:format>image/svg+xml</dc:format><dc:type
         rdf:resource="http://purl.org/dc/dcmitype/StillImage" /><dc:title></dc:title></cc:Work></rdf:RDF></metadata><defs
   id="defs95" /><sodipodi:namedview
   inkscape:current-layer="Capa_1"
   inkscape:window-maximized="1"
   inkscape:window-y="25"
   inkscape:window-x="0"
   inkscape:cy="99.588928"
   inkscape:cx="40.925195"
   inkscape:zoom="1.5"
   showgrid="false"
   id="namedview93"
   inkscape:window-height="715"
   inkscape:window-width="1366"
   inkscape:pageshadow="2"
   inkscape:pageopacity="0"
   guidetolerance="10"
   gridtolerance="10"
   objecttolerance="10"
   borderopacity="1"
   bordercolor="#666666"
   pagecolor="#ffffff"
   inkscape:document-rotation="0" />
















</svg>
